<?xml version="1.0" standalone="no"?>
<!DOCTYPE svg PUBLIC "-//W3C//DTD SVG 1.1//EN" "http://www.w3.org/Graphics/SVG/1.1/DTD/svg11.dtd" >
<svg xmlns="http://www.w3.org/2000/svg">
<metadata></metadata>
<defs>
<font id="georgiaregular" horiz-adv-x="1300" >
<font-face units-per-em="2048" ascent="1638" descent="-410" />
<missing-glyph horiz-adv-x="512" />
<glyph unicode="&#xfb01;" horiz-adv-x="1374" d="M0 877v114h180v10q0 242 155.5 393.5t409.5 151.5q186 0 298 -71t112 -191q0 -74 -54.5 -129t-129.5 -55q-119 0 -182 93t-70 263q-58 -17 -85.5 -60t-40.5 -124.5t-13 -212.5v-68h424l208 17l13 -15v-788q0 -103 131 -125v-80h-621v80q46 0 65 22.5t19 87.5v570 q0 101 -41 117h-194v-678q0 -47 3.5 -61.5t15 -27.5t29 -20.5t36.5 -9.5v-80h-615v80q67 0 96 23t29 87v687h-178z" />
<glyph unicode="&#xfb02;" horiz-adv-x="1407" d="M0 877v114h180v10q0 242 162 393.5t422 151.5q163 0 336 -39l143 41l14 -18v-1325q0 -63 27.5 -89.5t93.5 -35.5v-80h-614v80q46 0 65 22t19 91v1019q-72 37 -100.5 95t-28.5 149q-58 -17 -85.5 -60t-40.5 -124.5t-13 -212.5v-68h178v-114h-174v-678q0 -47 3.5 -61.5 t15 -27.5t29 -20.5t36.5 -9.5v-80h-615v80q67 0 96 23t29 87v687h-178z" />
<glyph unicode="&#xfb03;" horiz-adv-x="2015" d="M0 877v114h180v10q0 245 147.5 386t407.5 141q88 0 154 -31.5t100 -91.5q65 65 165.5 103t231.5 38q186 0 298 -71t112 -191q0 -74 -54.5 -129t-129.5 -55q-119 0 -182 93t-70 263q-58 -17 -85.5 -60t-40.5 -124.5t-13 -212.5v-68h424l208 17l13 -15v-788 q0 -103 131 -125v-80h-621v80q46 0 65 22.5t19 87.5v570q0 101 -41 117h-194v-678q0 -47 3.5 -61.5t15 -27.5t29 -20.5t36.5 -9.5v-80h-574v80q46 0 65 22.5t19 87.5v687h-235v-678q0 -42 7 -61.5t21 -33.5q21 -14 56 -24v-80h-615v80q68 0 96.5 23.5t28.5 89.5v684h-178z M580 991h241v10q0 93 17 152q-72 8 -117.5 71t-89.5 214q-27 -27 -39 -103t-12 -237v-107z" />
<glyph unicode="&#xfb04;" horiz-adv-x="2077" d="M0 877v114h180v10q0 254 139.5 390.5t395.5 136.5q102 0 181.5 -40.5t102.5 -105.5q158 164 435 164q162 0 335 -39l144 41l14 -18v-1325q0 -67 29.5 -92t91.5 -33v-80h-614v80q47 0 65.5 23t18.5 90v1019q-72 37 -100.5 95t-28.5 149q-57 -17 -84.5 -59t-41.5 -122 t-14 -216v-68h178v-114h-174v-678q0 -57 8.5 -74t27.5 -29.5t48 -15.5v-80h-573v80q45 0 64.5 22.5t19.5 87.5v687h-264v-678q0 -42 7 -61.5t21 -33.5q21 -14 56 -24v-80h-615v80q68 0 96.5 23.5t28.5 89.5v684h-178zM580 991h270v10q0 78 18 152q-88 0 -138.5 59.5 t-98.5 225.5q-27 -27 -39 -103t-12 -237v-107z" />
<glyph horiz-adv-x="2048" />
<glyph horiz-adv-x="2048" />
<glyph unicode="&#xd;" horiz-adv-x="539" />
<glyph unicode=" "  horiz-adv-x="512" />
<glyph unicode="&#x09;" horiz-adv-x="512" />
<glyph unicode="&#xa0;" horiz-adv-x="512" />
<glyph unicode="!" horiz-adv-x="793" d="M166 1221q0 93 66.5 157t160.5 64t162 -65t68 -156q0 -35 -9.5 -71.5t-51.5 -152.5q-77 -212 -130 -514h-74q-55 304 -132 514q-43 117 -51.5 152t-8.5 72zM174 184q0 90 64.5 156t154.5 66t154.5 -66t64.5 -156q0 -89 -64.5 -154t-154.5 -65q-91 0 -155 65t-64 154z" />
<glyph unicode="&#x22;" horiz-adv-x="1126" d="M117 1333q0 87 53 142t139 55q84 0 137.5 -56t53.5 -141q0 -37 -17 -98.5t-41 -141t-51 -173.5t-47 -197h-70q-25 123 -100 372q-57 190 -57 238zM627 1333q0 87 53 142t139 55q84 0 137.5 -56t53.5 -141q0 -37 -17 -98.5t-41 -141t-51 -173.5t-47 -197h-68 q-21 102 -48.5 197t-52 175t-41.5 141.5t-17 96.5z" />
<glyph unicode="#" horiz-adv-x="1450" d="M150 305v184h258l77 261h-278v184h334l96 328h166l-98 -328h229l96 328h166l-96 -328h200v-184h-253l-82 -261h278v-184h-330l-92 -305h-168l90 305h-225l-92 -305h-166l90 305h-200zM571 487h228l80 265h-230z" />
<glyph unicode="$" horiz-adv-x="1174" d="M66 289q0 83 51.5 136.5t136.5 53.5q93 0 148 -50.5t55 -149.5q0 -40 -7 -75.5t-34 -109.5q18 -7 55.5 -13.5t57.5 -6.5h8v409l-60 4q-197 19 -291 111.5t-94 257.5q0 190 114.5 315t330.5 144v209h104v-209q420 -26 420 -281q0 -85 -44 -131.5t-130 -46.5q-89 0 -139 38 t-50 132q0 46 5 85.5t24 88.5q-47 21 -86 25v-381l53 -4q215 -21 314.5 -114.5t99.5 -281.5q0 -200 -125 -322.5t-342 -141.5v-279h-104v281q-227 8 -349 87t-122 220zM358 1020q0 -50 17 -84t48.5 -53.5t113.5 -30.5v373q-82 -17 -130.5 -68.5t-48.5 -136.5zM641 72 q104 14 159.5 72.5t55.5 154.5q0 90 -51 134t-164 44v-405z" />
<glyph unicode="%" horiz-adv-x="1849" d="M78 1087q0 110 53.5 196.5t148.5 134.5t209 48q183 0 300.5 -105t117.5 -274q0 -161 -118 -267.5t-295 -106.5q-180 0 -298 107t-118 267zM238 0l1185 1430h185l-1188 -1430h-182zM412 1100q0 -158 8 -212t26 -80t52 -26q42 0 58.5 59t16.5 242q0 197 -18 253.5t-66 56.5 q-42 0 -59.5 -55.5t-17.5 -237.5zM942 342q0 163 118.5 268t295.5 105q183 0 299.5 -104t116.5 -269q0 -164 -118.5 -271.5t-295.5 -107.5q-180 0 -298 108.5t-118 270.5zM1274 352q0 -157 8 -211t27 -79t53 -25q44 0 61 64t17 237q0 150 -8 203t-27 78.5t-53 25.5 q-41 0 -59.5 -59.5t-18.5 -233.5z" />
<glyph unicode="&#x26;" horiz-adv-x="1546" d="M61 322q0 308 371 436q-143 184 -143 356q0 148 118.5 246t290.5 98t262.5 -70.5t90.5 -203.5q0 -102 -53.5 -180t-166.5 -154q108 -177 146.5 -235t91.5 -132q66 132 66 250q0 35 -23.5 53.5t-101.5 34.5v78h493v-78q-55 -9 -89.5 -21.5t-70.5 -45t-98 -142.5 q-76 -132 -123 -204q87 -118 148.5 -185t120 -97t176.5 -40v-86h-649q-26 46 -82 127q-91 -91 -168 -124.5t-207 -33.5q-179 0 -289.5 99.5t-110.5 253.5zM418 459q0 -129 71.5 -209t182.5 -80q70 0 119 33q-197 319 -314 487q-59 -95 -59 -231zM655 1231q0 -95 129 -309 q58 42 91.5 111t33.5 151q0 74 -39 125t-100 51q-57 0 -86 -33.5t-29 -95.5z" />
<glyph unicode="'" horiz-adv-x="598" d="M106 1333q0 85 53.5 141t139.5 56q84 0 136 -55.5t52 -141.5q0 -37 -16.5 -98.5t-40.5 -141t-50.5 -173.5t-47.5 -197h-68q-21 102 -48 197t-51.5 175t-41.5 141.5t-17 96.5z" />
<glyph unicode="(" horiz-adv-x="967" d="M106 606q0 245 91.5 439t277.5 323.5t428 163.5v-96q-184 -36 -278.5 -246.5t-94.5 -581.5q0 -377 95 -590t278 -249v-97q-238 33 -425 162.5t-279.5 325t-92.5 446.5z" />
<glyph unicode=")" horiz-adv-x="967" d="M63 -231q185 36 279 250.5t94 588.5q0 372 -94.5 582t-278.5 246v96q241 -33 427 -162.5t278 -324t92 -439.5q0 -244 -95 -442t-283.5 -329.5t-418.5 -162.5v97z" />
<glyph unicode="*" horiz-adv-x="1001" d="M80 1071q0 48 26.5 73t69.5 25q13 0 38 -6q169 -41 216 -47q-39 49 -73.5 84t-60 62.5t-40 50t-14.5 47.5q0 37 30.5 65.5t67.5 28.5q50 0 84 -49q8 -14 29 -95q22 -88 47 -155q26 69 49 155q21 81 35 102t33.5 31.5t44.5 10.5q37 0 68.5 -29t31.5 -65q0 -26 -15 -48.5 t-40.5 -49.5t-60 -62t-73.5 -84q49 7 157 33q81 20 93 20q44 0 72.5 -25t28.5 -73t-28.5 -71t-72.5 -23q-13 0 -37 7q-149 39 -217 48q41 -51 76 -86.5t61 -63t41 -51t15 -49.5q0 -36 -31.5 -64t-68.5 -28q-52 0 -82 55q-10 16 -31 93q-25 91 -49 153q-20 -52 -62 -210 q-11 -42 -38.5 -66.5t-59.5 -24.5q-36 0 -67 27.5t-31 64.5q0 26 14.5 49.5t40 51t60 63t73.5 86.5q-55 -8 -157 -33q-85 -22 -97 -22q-43 0 -69.5 23t-26.5 71z" />
<glyph unicode="+" horiz-adv-x="1526" d="M178 492v186h488v489h192v-489h490v-186h-490v-488h-192v488h-488z" />
<glyph unicode="," horiz-adv-x="719" d="M135 201q0 79 57 139.5t138 60.5q121 0 188.5 -89t67.5 -246q0 -133 -104 -268t-267 -212l-41 76q125 60 186 142t70 194h-59q-236 0 -236 203z" />
<glyph unicode="-" horiz-adv-x="743" d="M82 414v264h580v-264h-580z" />
<glyph unicode="." horiz-adv-x="719" d="M131 201q0 98 66.5 168.5t162.5 70.5q94 0 161 -72.5t67 -166.5t-67 -165t-161 -71q-95 0 -162 69.5t-67 166.5z" />
<glyph unicode="/" horiz-adv-x="922" d="M10 -424l658 1948h202l-655 -1948h-205z" />
<glyph unicode="0" d="M70 711q0 346 149.5 542.5t431.5 196.5q277 0 428.5 -194t151.5 -545q0 -359 -152.5 -553.5t-429.5 -194.5q-280 0 -429.5 192t-149.5 556zM530 711q0 -386 28 -514.5t91 -128.5q64 0 91.5 129.5t27.5 513.5q0 373 -27 502.5t-90 129.5q-65 0 -93 -133t-28 -499z" />
<glyph unicode="1" d="M164 0v82q85 5 149 13.5t76 15.5q29 9 47.5 34.5t18.5 65.5v958h-271v105h68q110 0 185 20t125.5 52.5t99.5 103.5h251q-10 -217 -10 -309v-920q0 -64 48 -95t202 -44v-82h-989z" />
<glyph unicode="2" d="M96 0v252q75 167 340 366q106 81 154 143t71 137t23 171q0 130 -38 206.5t-99 76.5q-35 0 -64 -11q19 -40 33 -83.5t14 -102.5q0 -97 -53.5 -152t-144.5 -55q-88 0 -142.5 52t-54.5 133q0 139 137.5 228t348.5 89q243 0 383.5 -117.5t140.5 -314.5q0 -113 -41.5 -194.5 t-123.5 -140t-239 -112.5l-135 -44q-204 -66 -287 -132v-10h863v-385h-1086z" />
<glyph unicode="3" d="M104 275q0 83 54.5 139.5t137.5 56.5q92 0 146.5 -53t54.5 -143q0 -87 -39 -195q26 -14 80 -14q82 0 128 89.5t46 252.5q0 135 -43.5 205.5t-120.5 70.5h-77v125h55q149 0 149 301q0 112 -26.5 177t-73.5 65q-40 0 -72 -13l17 -45q24 -60 24 -137q0 -91 -53.5 -141.5 t-140.5 -50.5q-81 0 -136 54.5t-55 141.5q0 126 136.5 207.5t336.5 81.5q233 0 362.5 -93.5t129.5 -240.5q0 -131 -97.5 -219.5t-275.5 -122.5v-16q204 -13 318 -105.5t114 -248.5q0 -125 -72 -225t-202 -156t-287 -56q-249 0 -383.5 80.5t-134.5 227.5z" />
<glyph unicode="4" d="M70 305v246l598 926h365v-864h211v-308h-211v-305h-416v305h-547zM250 613h367v571z" />
<glyph unicode="5" d="M94 279q0 83 55 139.5t138 56.5q89 0 143.5 -54.5t54.5 -139.5q0 -65 -14 -111.5t-33 -91.5q6 -3 30.5 -7.5t55.5 -4.5q82 0 135.5 110t53.5 281q0 141 -60 225t-155 84q-65 0 -126 -36.5t-102 -102.5l-82 26l101 764h831v-377h-770l-31 -252q56 41 156 69t213 28 q227 0 354 -113t127 -313q0 -225 -157.5 -358.5t-423.5 -133.5q-227 0 -360.5 85.5t-133.5 226.5z" />
<glyph unicode="6" d="M96 567q0 373 235 609t656 284l23 -102l-97 -21q-102 -31 -175 -96t-115.5 -166.5t-67.5 -283.5q65 71 132.5 99t156.5 28q173 0 273 -122t100 -331q0 -142 -69 -257.5t-196 -180t-290 -64.5q-169 0 -298 73.5t-198.5 211t-69.5 319.5zM545 483q0 -215 31.5 -320.5 t80.5 -105.5q54 0 79.5 89t25.5 280q0 346 -100 346q-35 0 -65 -26.5t-50 -71.5z" />
<glyph unicode="7" d="M141 813v604h1088v-196l-692 -1254h-158l618 1073h-512q-58 0 -114.5 -8t-73 -20.5t-32 -40.5t-27 -66.5t-19.5 -91.5h-78z" />
<glyph unicode="8" d="M94 332q0 127 84.5 201.5t270.5 103.5q-140 56 -221.5 171.5t-81.5 254.5q0 115 66 207t187 142t281 50q219 0 354.5 -89t135.5 -232q0 -113 -78 -187t-244 -112q193 -77 285 -182t92 -248q0 -211 -155.5 -331t-430.5 -120q-165 0 -288.5 46t-190 131.5t-66.5 193.5z M506 358q0 -148 43 -225.5t113 -77.5q74 0 112.5 58.5t38.5 160.5q0 64 -21.5 109.5t-56.5 80t-81 61.5t-95 55q-53 -82 -53 -222zM557 1180q0 -99 34 -157.5t138 -111.5q29 108 29 226q0 233 -98 233q-43 0 -73 -53.5t-30 -136.5z" />
<glyph unicode="9" d="M86 946q0 146 70 263.5t196.5 182t290.5 64.5q255 0 408 -163t153 -447q0 -362 -228.5 -589t-660.5 -290l-20 103l94 20q113 36 183 102t110 158.5t65 280.5q-60 -63 -132 -95t-169 -32q-169 0 -264.5 118.5t-95.5 323.5zM538 991q0 -163 27.5 -239t75.5 -76 q28 0 53.5 26t42.5 64l2 119q0 236 -28.5 357.5t-73.5 121.5q-42 0 -70.5 -96.5t-28.5 -276.5z" />
<glyph unicode=":" horiz-adv-x="788" d="M168 201q0 96 66.5 167.5t162.5 71.5q93 0 159.5 -70t66.5 -169q0 -97 -67 -166.5t-159 -69.5q-95 0 -162 70.5t-67 165.5zM168 788q0 98 67 169t162 71q93 0 159.5 -70t66.5 -170q0 -96 -66.5 -164.5t-159.5 -68.5q-95 0 -162 69t-67 164z" />
<glyph unicode=";" horiz-adv-x="788" d="M168 788q0 98 67 169t162 71q93 0 159.5 -70t66.5 -170q0 -96 -66.5 -164.5t-159.5 -68.5q-95 0 -162 69t-67 164zM170 201q0 78 58.5 139t138.5 61q119 0 186.5 -89t67.5 -246q0 -133 -104 -268t-267 -212l-39 76q242 119 252 336h-55q-238 0 -238 203z" />
<glyph unicode="&#x3c;" horiz-adv-x="1526" d="M221 508v158l1051 512v-224l-795 -366l795 -369v-225z" />
<glyph unicode="=" horiz-adv-x="1526" d="M205 270v187h1114v-187h-1114zM205 713v186h1114v-186h-1114z" />
<glyph unicode="&#x3e;" horiz-adv-x="1526" d="M254 -6v225l799 369l-799 366v224l1051 -512v-158z" />
<glyph unicode="?" horiz-adv-x="1081" d="M57 1147q0 133 131.5 219t325.5 86q211 0 338 -114t127 -304q0 -209 -130 -340t-355 -147l-9 -76h-82v395q112 17 173 98.5t61 209.5q0 82 -40.5 137t-94.5 55q-51 0 -107 -33l16 -44q29 -78 29 -159q0 -178 -190 -178q-85 0 -139 54.5t-54 140.5zM227 184 q0 89 65.5 155.5t156.5 66.5q90 0 154.5 -67t64.5 -155t-64.5 -153.5t-154.5 -65.5q-91 0 -156.5 65t-65.5 154z" />
<glyph unicode="@" horiz-adv-x="1855" d="M143 477q0 244 119 454.5t325 329.5t460 119q201 0 352 -79.5t237 -234t86 -349.5q0 -168 -62.5 -310.5t-175 -224.5t-249.5 -82q-92 0 -155 28t-101 91h-4q-103 -110 -217 -110q-111 0 -178.5 78.5t-67.5 203.5q0 154 69.5 289.5t188.5 218t248 82.5q49 0 82 -24.5 t41 -55.5h4l22 68h316l-189 -568q-22 -63 -22 -120q0 -72 53 -72q67 0 133 69.5t106 187t40 251.5q0 256 -152 403.5t-412 147.5q-180 0 -343.5 -102.5t-257 -281t-93.5 -397.5q0 -325 179 -518.5t483 -193.5q317 0 538 172l41 -70q-124 -99 -272.5 -153t-310.5 -54 q-240 0 -441 103t-310.5 285t-109.5 419zM827 350q0 -106 54 -106q18 0 38 16t31 39l148 473q0 49 -14.5 77t-39.5 28q-44 0 -97 -80t-86.5 -203t-33.5 -244z" />
<glyph unicode="A" horiz-adv-x="1456" d="M-61 0v82q174 11 237 178q125 306 321 884l101 296h272l106 -310q212 -631 320 -919q39 -101 136 -118l65 -11v-82h-797v82q74 8 119 22t45 31q0 9 -5 34.5t-87 293.5h-391q-42 -128 -63 -198t-21 -101q0 -30 34 -49t132 -33v-82h-524zM418 569h319l-155 508z" />
<glyph unicode="B" horiz-adv-x="1513" d="M47 1337v82h741q295 0 426.5 -75t131.5 -244q0 -80 -39.5 -139t-115 -102t-226.5 -83v-24q207 -21 330.5 -119.5t123.5 -247.5q0 -140 -60 -224t-183.5 -122.5t-350.5 -38.5h-772v82q98 7 140.5 32.5t42.5 98.5v985q0 48 -17 70t-67 39.5t-105 29.5zM670 162 q10 -22 43 -42t65 -20q69 0 116.5 76.5t47.5 204.5q0 156 -61 235.5t-174 79.5l-37 -4v-530zM670 805h12q93 0 144 68.5t51 195.5q0 119 -43 184.5t-121 65.5l-43 -4v-510z" />
<glyph unicode="C" horiz-adv-x="1374" d="M63 696q0 219 93 395.5t259.5 272.5t372.5 96q87 0 178 -22.5t167 -65.5l65 47h78l10 -526h-86q-69 241 -157.5 352t-221.5 111q-139 0 -206.5 -151t-67.5 -464q0 -217 35.5 -354t104 -202.5t187.5 -65.5q107 0 196.5 66.5t189.5 230.5l88 -62q-196 -397 -580 -397 q-207 0 -368.5 92t-249 260.5t-87.5 386.5z" />
<glyph unicode="D" horiz-adv-x="1622" d="M39 1337v82h764q224 0 402.5 -92t266 -252.5t87.5 -374.5q0 -215 -94 -372t-274.5 -242.5t-418.5 -85.5h-723v82q107 8 127 20q60 27 60 103v993q0 76 -60 109q-15 6 -31 10.5t-106 19.5zM670 250q0 -67 35 -110.5t94 -43.5q141 0 208.5 148t67.5 454q0 298 -79 460.5 t-224 162.5l-102 -4v-1067z" />
<glyph unicode="E" horiz-adv-x="1360" d="M55 0v82q94 7 121 24q37 16 48.5 42t11.5 61v989q0 34 -11.5 59.5t-48.5 45.5q-48 20 -121 34v82h1166v-377h-74q-23 57 -64 115t-89 98.5t-92.5 54t-127.5 13.5h-104v-541h10q108 0 180 64q19 17 47 81.5t35 110.5h74v-616h-74q-9 48 -35.5 113.5t-46.5 87.5 q-65 65 -180 65h-10v-399q0 -77 8 -118t26 -58t60 -17q223 0 280 54q50 56 114 160.5t81 148.5h72l-25 -459h-1231z" />
<glyph unicode="F" horiz-adv-x="1266" d="M55 0v82q103 16 121 27q60 24 60 104v985q0 34 -11.5 60t-46.5 45q-39 16 -121 34v82h1186v-395h-74q-50 112 -118.5 192t-125.5 93.5t-167 13.5h-88v-549h6q78 0 128 28t85 101t45 127h72v-624h-72q-6 44 -37.5 116.5t-50.5 87.5q-58 64 -170 64h-6v-459q0 -63 37.5 -89 t152.5 -44v-82h-805z" />
<glyph unicode="G" horiz-adv-x="1528" d="M63 694q0 233 89 406.5t256.5 266.5t390.5 93q83 0 182 -23.5t178 -64.5l74 47h84l8 -534h-84q-75 241 -170.5 356t-226.5 115q-143 0 -220 -156.5t-77 -456.5q0 -333 65 -505t191 -172q56 0 109 19.5t89 55.5v314q0 47 -48 80.5t-122 48.5v82h738v-82q-80 -8 -116 -34.5 t-36 -88.5v-205l4 -102q-98 -81 -289.5 -139t-373.5 -58q-208 0 -366 88t-243.5 254.5t-85.5 394.5z" />
<glyph unicode="H" horiz-adv-x="1757" d="M47 0v82q115 10 152 35.5t37 91.5v989q0 37 -14.5 61t-65 46t-109.5 32v82h789v-82q-106 -18 -136 -44t-30 -85v-411h415v401q0 64 -57 97t-106 42v82h788v-82l-64 -10q-74 -11 -100 -38.5t-26 -80.5v-993q0 -59 40.5 -88.5t149.5 -44.5v-82h-788v82q79 4 121 30.5 t42 92.5v475h-415v-465q0 -60 43 -89.5t123 -43.5v-82h-789z" />
<glyph unicode="I" horiz-adv-x="905" d="M49 0v82q103 8 125 20q38 14 50 41t12 64v991q0 70 -62 105q-53 22 -125 34v82h807v-82l-62 -10q-75 -10 -99.5 -36t-24.5 -83v-993q0 -78 59 -102q22 -15 127 -31v-82h-807z" />
<glyph unicode="J" horiz-adv-x="1219" d="M20 305q0 103 61 169.5t159 66.5q95 0 147.5 -57.5t52.5 -157.5q0 -66 -31 -117.5t-110 -93.5v-25q5 -7 28.5 -13.5t49.5 -6.5q100 0 151.5 75t51.5 217v836q0 32 -10.5 58t-43 42.5t-141.5 38.5v82h793v-82q-99 -15 -131.5 -39t-32.5 -90v-741q0 -242 -142.5 -375 t-402.5 -133q-200 0 -324.5 92.5t-124.5 253.5z" />
<glyph unicode="K" horiz-adv-x="1630" d="M43 0v82q121 8 157 35t36 88v993q0 63 -44.5 92.5t-148.5 46.5v82h846v-82q-120 -9 -157.5 -25t-49.5 -43t-12 -61v-471h32q152 152 266.5 319t114.5 230q0 25 -33.5 36t-103.5 15v82h641v-82q-125 -17 -205.5 -60.5t-192.5 -154t-181 -204.5q315 -544 405 -670 q112 -154 273 -166v-82h-646q-133 294 -323 629h-47v-414q0 -57 34.5 -84t145.5 -49v-82h-807z" />
<glyph unicode="L" horiz-adv-x="1307" d="M49 0v82q102 14 123 24q64 24 64 103v993q0 34 -12 58.5t-52 44.5q-51 18 -123 32v82h840v-82l-35 -4q-119 -12 -151.5 -36t-32.5 -85v-921q0 -96 10.5 -131t38.5 -48.5t110 -13.5q126 0 173.5 23t102 104.5t132.5 251.5h70l-27 -477h-1231z" />
<glyph unicode="M" horiz-adv-x="1960" d="M20 0v82q64 7 115 33.5t68.5 59.5t25 89.5t7.5 155.5v688q0 120 -53.5 169.5t-151.5 59.5v82h712l230 -807l192 613q9 23 27.5 97t21.5 97h703v-82l-64 -9q-71 -8 -100 -35t-29 -85v-993q0 -43 21 -70.5t79.5 -44t94.5 -18.5v-82h-807v82q118 17 154.5 44t36.5 91v1053 l-402 -1247h-168l-22 77l-101 314l-248 870v-850q0 -95 9.5 -155.5t29 -96t70.5 -61.5t113 -39v-82h-564z" />
<glyph unicode="N" horiz-adv-x="1577" d="M25 0v82q78 7 129.5 40t69.5 95t18 201v651q0 54 -15.5 98t-50.5 82t-60 52t-87 32v86h575l606 -862v426q0 143 -20.5 206.5t-66 94.5t-132.5 53v82h565v-82l-27 -4q-106 -17 -150 -80.5t-44 -259.5v-997h-227l-739 1053v-619q0 -209 51 -266.5t164 -81.5v-82h-559z" />
<glyph unicode="O" horiz-adv-x="1602" d="M61 684q0 228 93.5 406.5t264 275t384.5 96.5q206 0 376.5 -93.5t265.5 -261t95 -382.5q0 -222 -93.5 -400.5t-261 -272t-394.5 -93.5q-203 0 -373.5 95t-263.5 260t-93 370zM547 702q0 -641 256 -641q252 0 252 654q0 335 -63.5 489t-188.5 154q-126 0 -191 -166 t-65 -490z" />
<glyph unicode="P" horiz-adv-x="1399" d="M45 0v82q57 4 105 17.5t65.5 37t17.5 72.5v987q0 62 -53 93t-129 48v82h715q303 0 445.5 -85t142.5 -271q0 -240 -159 -350.5t-499 -110.5h-28v-375q0 -46 22.5 -75t81.5 -48t90 -22v-82h-817zM668 700h24q81 0 122 28.5t59 92.5t18 189q0 170 -41.5 240.5t-153.5 70.5 h-28v-621z" />
<glyph unicode="Q" horiz-adv-x="1595" d="M61 684q0 228 93.5 406.5t264 275t384.5 96.5q206 0 376.5 -93.5t265.5 -261t95 -382.5q0 -248 -122 -435t-337 -265q4 -128 66 -213.5t151 -85.5q80 0 164 26v-94q-88 -42 -206.5 -68t-227.5 -26q-162 0 -265.5 112t-115.5 299q-172 31 -305.5 127.5t-207 246 t-73.5 335.5zM547 702q0 -641 256 -641q252 0 252 654q0 335 -63.5 489t-188.5 154q-126 0 -191 -166t-65 -490z" />
<glyph unicode="R" horiz-adv-x="1589" d="M47 0v82q92 6 140.5 32t48.5 95v985q0 37 -12.5 60.5t-73 49.5t-103.5 33v82h770q279 0 412 -81.5t133 -264.5q0 -117 -25 -182t-83.5 -109t-163.5 -77q25 -32 125 -194q136 -224 190.5 -291t105.5 -97t129 -41v-82h-624q-81 167 -158.5 327t-159.5 312h-28v-418 q0 -48 26.5 -75t112.5 -64v-82h-762zM670 735h55q96 0 133 67t37 238q0 160 -44 220.5t-151 60.5h-30v-586z" />
<glyph unicode="S" horiz-adv-x="1247" d="M41 530h86q189 -462 432 -462q102 0 168 62.5t66 160.5q0 67 -38 109.5t-143 82.5q-287 108 -325 127q-99 48 -156 151t-57 245q0 128 63.5 232.5t178.5 163t268 58.5q200 0 360 -94l70 53h86l8 -491h-84q-69 182 -117.5 261t-105.5 122t-127 43q-91 0 -147 -59.5 t-56 -155.5q0 -73 48 -122.5t169 -90.5q181 -59 247.5 -87t113 -65.5t79 -89t50.5 -117t18 -147.5q0 -133 -70 -239.5t-199 -166t-292 -59.5q-247 0 -416 113l-84 -68h-80z" />
<glyph unicode="T" horiz-adv-x="1346" d="M10 999v420h1325v-420h-80q-42 125 -96.5 215t-99.5 99q-40 8 -135 8h-33v-1098q0 -67 33 -92t143 -49v-82h-793v82q24 2 67 9.5t54 12.5q62 28 62 109v1108h-35q-84 0 -135 -8q-86 -13 -199 -314h-78z" />
<glyph unicode="U" horiz-adv-x="1630" d="M61 1341v78h770v-78l-54 -10l-58 -14q-60 -22 -60 -105v-669q0 -155 34 -249.5t97 -139.5t175 -45q145 0 223 119t78 341v410q0 121 -13 185.5t-51 107.5q-24 20 -69.5 38t-85.5 27v82h569v-82q-111 -19 -153.5 -51.5t-56 -97t-13.5 -201.5v-467q0 -259 -148 -410 t-399 -151q-303 0 -461 151t-158 443v649q0 58 -33 88.5t-133 50.5z" />
<glyph unicode="V" horiz-adv-x="1477" d="M-37 1337v82h809v-78q-75 -7 -114.5 -19.5t-39.5 -37.5q0 -42 65.5 -236.5t221.5 -627.5l59 171q195 553 195 658q0 44 -45 61t-139 23v86h538v-86q-47 -7 -97.5 -34t-75 -58.5t-50 -94t-418.5 -1160.5h-270q-56 170 -144.5 428t-172.5 490.5t-104.5 274.5t-45 69 t-70 53.5t-102.5 35.5z" />
<glyph unicode="W" horiz-adv-x="2408" d="M-31 1337v82h842v-78q-154 -21 -154 -67q0 -26 15 -76q138 -448 248 -756l274 992h301l338 -1020q98 273 175 519.5t77 319.5q0 34 -49 53t-166 27v86h569v-86q-45 -6 -95 -35t-75 -63t-69.5 -159t-378.5 -1090h-277l-346 1050l-293 -1050h-278q-231 663 -307 873 t-107 283.5t-101 131t-143 63.5z" />
<glyph unicode="X" horiz-adv-x="1554" d="M0 1337v82h907v-82q-78 -3 -118.5 -14t-40.5 -37q0 -33 61 -172t92 -190q115 151 164 236.5t49 111.5t-13.5 36.5t-42.5 17.5t-75 11v82h502v-82q-107 -14 -209.5 -127.5t-172.5 -206.5l-147 -190q89 -175 169 -315l118 -209q89 -164 311 -207v-82h-895v82q82 3 117 15.5 t35 37.5q0 22 -25 82q-12 35 -52 117.5t-103 212.5q-131 -178 -200 -278t-69 -119q0 -55 142 -68v-82h-500v82l39 9q27 6 71.5 34.5t128 116.5t156.5 184t170 229l-72 139q-133 259 -203 356t-146.5 139t-147.5 48z" />
<glyph unicode="Y" horiz-adv-x="1489" d="M-90 1337v82h868v-82l-55 -3q-107 -6 -107 -50q0 -31 77.5 -206.5t176.5 -372.5q118 207 201.5 375.5t83.5 199.5q0 48 -139 57v82h481v-82q-28 -4 -49 -11t-57 -30q-74 -49 -151 -167t-239 -418q-52 -96 -67.5 -160.5t-15.5 -175.5v-152q0 -78 55 -103t127 -38v-82h-797 v82q102 8 142 35.5t40 95.5v166q0 86 -27 168.5t-151.5 347.5t-168.5 319t-102.5 86.5t-125.5 36.5z" />
<glyph unicode="Z" horiz-adv-x="1350" d="M10 0v80l770 1239h-170q-179 0 -235 -41q-59 -59 -201 -315h-80l41 456h1170v-80l-773 -1239h238q144 0 210.5 8.5t83.5 39.5l13 22q82 122 183 336h71l-45 -506h-1276z" />
<glyph unicode="[" horiz-adv-x="909" d="M186 -309v1829h639v-107h-250v-1620h250v-102h-639z" />
<glyph unicode="\" horiz-adv-x="879" d="M49 1524h207l575 -1948h-200z" />
<glyph unicode="]" horiz-adv-x="907" d="M84 -207h246v1620h-246v107h637v-1829h-637v102z" />
<glyph unicode="^" horiz-adv-x="1526" d="M221 733l465 723h156l465 -723h-232l-311 508l-313 -508h-230z" />
<glyph unicode="_" horiz-adv-x="1446" d="M-4 -180h1454v-133h-1454v133z" />
<glyph unicode="`" horiz-adv-x="973" d="M133 1460q0 51 37 86t102 35q61 0 109.5 -30t103.5 -111q108 -155 222 -303l-39 -45l-151 72q-258 118 -321 169t-63 127z" />
<glyph unicode="a" horiz-adv-x="1204" d="M76 217q0 104 42.5 174.5t145.5 114.5q54 23 209 71q137 42 172 60v135q0 168 -92 168q-41 0 -84 -25q31 -72 31 -149q0 -81 -49 -114.5t-140 -33.5q-192 0 -192 166q0 110 134.5 177t340.5 67q172 0 265.5 -35t142.5 -110.5t49 -198.5l-4 -280l-5 -175q0 -74 21 -100.5 t88 -26.5h23v-79q-34 -21 -111 -40.5t-133 -19.5q-119 0 -184 30t-95 109h-6q-67 -73 -144.5 -105t-178.5 -32q-107 0 -176.5 70t-69.5 182zM459 291q0 -139 94 -139q23 0 49.5 13t38.5 32l2 344l-66 -39q-118 -68 -118 -211z" />
<glyph unicode="b" horiz-adv-x="1278" d="M6 1444v76l526 28l19 -18v-647h6q126 141 264 141q185 0 287 -137.5t102 -382.5q0 -249 -128.5 -394t-356.5 -145q-237 0 -358 127l-185 -141l-53 26q12 166 12 398v907q0 88 -45 123t-90 39zM551 195q7 -67 32 -105.5t64 -38.5q60 0 92.5 105.5t32.5 314.5 q0 371 -127 371q-28 0 -54 -18.5t-40 -43.5v-585z" />
<glyph unicode="c" horiz-adv-x="1061" d="M68 498q0 143 71.5 266.5t198.5 193.5t287 70q183 0 285 -69.5t102 -188.5q0 -85 -45.5 -133.5t-139.5 -48.5q-190 0 -190 151q0 54 9 97.5t16 78.5q-12 27 -48 27q-47 0 -72.5 -106t-25.5 -301q0 -184 58.5 -292t154.5 -108q71 0 126 42.5t106 141.5l81 -51 q-62 -148 -174.5 -226.5t-269.5 -78.5q-249 0 -389.5 143t-140.5 392z" />
<glyph unicode="d" horiz-adv-x="1315" d="M68 512q0 141 59 259t159.5 185.5t211.5 67.5q135 0 239 -63v317q0 64 -39 110.5t-135 53.5v78l565 28l13 -18v-1297q0 -86 47 -106q29 -19 112 -27v-77l-548 -33l-13 14v92l-8 2q-44 -55 -117 -94t-141 -39q-182 0 -293.5 150.5t-111.5 396.5zM508 494q0 -359 133 -359 q48 0 96 70v557q-10 72 -36 109.5t-64 37.5q-57 0 -93 -104t-36 -311z" />
<glyph unicode="e" horiz-adv-x="1137" d="M68 498q0 147 66.5 269.5t188.5 191.5t279 69q227 0 350 -113t123 -315v-65h-579q0 -205 69.5 -303.5t212.5 -98.5q65 0 132.5 48t115.5 128l76 -63q-79 -135 -202.5 -209t-274.5 -74q-263 0 -410 142t-147 393zM496 618l184 7q0 158 -25 237.5t-63 79.5q-46 0 -71 -88 t-25 -236z" />
<glyph unicode="f" horiz-adv-x="786" d="M0 877v114h180v13q4 256 142.5 400t396.5 144q131 0 201.5 -54t70.5 -151q0 -90 -42.5 -140t-114.5 -50q-48 0 -79 21t-56 70.5t-74 213.5q-24 -29 -34.5 -111t-10.5 -245v-111h200v-114h-196v-678q0 -42 14.5 -61.5t40.5 -33.5q38 -15 102 -24v-80h-688v80 q68 0 96.5 23.5t28.5 89.5v684h-178z" />
<glyph unicode="g" horiz-adv-x="1155" d="M18 -190q0 74 75 117t226 46v13q-90 31 -144 88.5t-54 124.5q0 49 26 83t69 56t140 45v8q-153 55 -220.5 127.5t-67.5 179.5q0 149 124 237.5t316 88.5q117 0 213 -33h403v-114h-197q74 -87 74 -191q0 -141 -115 -225t-302 -84h-144q-9 -8 -17.5 -25.5t-8.5 -29.5 q0 -28 14.5 -42.5t44.5 -21t123 -8.5q128 -5 234.5 -14.5t164.5 -45.5t89.5 -100t31.5 -151q0 -177 -150.5 -280t-410.5 -103t-398.5 63.5t-138.5 190.5zM391 -170q0 -76 51 -132t129 -56q85 0 127.5 45t42.5 145q0 96 -55 115q-45 12 -171 12h-77q-47 -60 -47 -129z M453 698q0 -114 22.5 -179.5t59.5 -65.5q40 0 61.5 60.5t21.5 176.5q0 119 -21 185.5t-62 66.5q-82 0 -82 -244z" />
<glyph unicode="h" horiz-adv-x="1341" d="M18 1444v76l543 28l12 -18v-688h5l56 64q103 118 265 118q140 0 219.5 -92t79.5 -254v-477q0 -64 26.5 -88t92.5 -33v-80h-592v80q25 0 38.5 6.5t18 23t4.5 83.5v438q0 104 -20 149t-68 45q-30 0 -63.5 -29.5t-61.5 -78.5v-514q0 -65 12.5 -86t59.5 -37v-80h-602v80 q44 0 82 14q26 13 35.5 37t9.5 62v1089q0 41 -17 79.5t-57.5 59.5t-77.5 23z" />
<glyph unicode="i" horiz-adv-x="733" d="M25 901v80l538 27l17 -15v-788q0 -70 57 -101q22 -9 36.5 -15t37.5 -9v-80h-668v80q131 0 131 113v563q0 63 -45.5 98.5t-103.5 46.5zM109 1354q0 89 67 153t166 64q95 0 165.5 -65t70.5 -158q0 -90 -70 -150.5t-166 -60.5q-99 0 -166 64t-67 153z" />
<glyph unicode="j" horiz-adv-x="748" d="M-246 -236q0 85 46.5 137t127.5 52q48 0 80.5 -20.5t57 -59.5t45 -95.5t45.5 -127.5q34 60 34 450v654q0 73 -51 104q-18 12 -36.5 25t-47.5 16v82l535 27l12 -15v-833q0 -177 -73 -319t-199.5 -213.5t-294.5 -71.5q-135 0 -208 53t-73 155zM133 1354q0 91 68.5 154 t167.5 63q95 0 163 -65.5t68 -157.5q0 -91 -67 -151t-164 -60t-166.5 62t-69.5 155z" />
<glyph unicode="k" horiz-adv-x="1286" d="M18 1444v76l543 28l12 -18v-1000q88 94 165 185.5t89.5 116t12.5 42.5q0 20 -29.5 30.5t-71.5 17.5v73h492v-71q-112 -31 -187.5 -76.5t-160.5 -132.5q184 -363 307 -565q17 -28 47.5 -45.5t89.5 -24.5v-80h-526q-56 156 -193 436l-35 -24v-219q0 -91 91 -113v-80h-621 v80q17 0 59.5 10.5t55 35.5t12.5 67v1091q0 69 -41.5 112t-110.5 48z" />
<glyph unicode="l" horiz-adv-x="711" d="M-2 1444v76l549 28l14 -18v-1325q0 -64 29.5 -90.5t91.5 -34.5v-80h-649v80q60 0 89.5 24.5t29.5 88.5v1083q0 77 -49 118.5t-105 49.5z" />
<glyph unicode="m" horiz-adv-x="1931" d="M33 901v80l530 27l19 -15v-143h2l55 62q98 112 254 112q203 0 264 -186h12q27 34 54 67t62.5 59.5t82.5 43t115 16.5q145 0 225 -91t80 -257v-477q0 -37 6.5 -60.5t34.5 -36.5q28 -17 74 -22v-80h-584v80q28 0 43 10.5t15 38.5l-1 64v436q0 107 -18.5 151.5t-61.5 44.5 q-33 0 -66.5 -35t-45.5 -73v-514q0 -72 14 -97q24 -20 43 -26v-80h-528v80q33 0 49 14q11 13 11 37l-1 62v436q0 107 -18.5 151.5t-61.5 44.5q-34 0 -66 -34t-46 -74v-516q0 -71 18 -97q18 -18 39 -24v-80h-590v80q68 0 97.5 26t29.5 87v559q0 32 -14.5 65.5t-38.5 52.5 t-88 31z" />
<glyph unicode="n" horiz-adv-x="1341" d="M29 901v80l534 27l15 -15v-151h4l56 64q103 118 265 118q139 0 217 -90.5t78 -255.5v-477q0 -64 29 -89t92 -32v-80h-592v80q39 0 49 20.5t10 92.5v438q0 106 -18.5 150t-67.5 44q-29 0 -62 -28.5t-60 -79.5v-514q0 -70 22 -99q10 -10 47 -24v-80h-602v80q65 0 97 22.5 t32 90.5v563q0 30 -16 63.5t-40.5 51t-88.5 30.5z" />
<glyph unicode="o" horiz-adv-x="1272" d="M68 496q0 244 150 388t409 144q267 0 422 -142t155 -386q0 -246 -158 -390.5t-421 -144.5q-164 0 -291.5 65.5t-196.5 186t-69 279.5zM520 510q0 -219 10.5 -298t34.5 -120t68 -41q61 0 90 97t29 358q0 181 -11.5 263.5t-37.5 127.5t-70 45t-67.5 -43.5t-34.5 -120.5 t-11 -268z" />
<glyph unicode="p" horiz-adv-x="1288" d="M0 -367q82 14 106 25q50 16 50 98v1008q-14 70 -47.5 98t-104.5 39v80l545 27l14 -13v-110l6 -2q76 79 138.5 110t130.5 31q184 0 283.5 -143.5t99.5 -399.5q0 -139 -56.5 -256t-157 -184.5t-219.5 -67.5q-131 0 -221 68h-6v-264q0 -34 7 -56.5t22.5 -36.5t67 -28 t85.5 -16l-2 -84h-741v77zM561 201q29 -125 103 -125q116 0 116 405q0 361 -127 361q-24 0 -51 -15.5t-41 -44.5v-581z" />
<glyph unicode="q" horiz-adv-x="1268" d="M68 508q0 152 62.5 270t177.5 182t261 64q228 0 383 -90l154 123l51 -15q-16 -144 -16 -307v-958q0 -78 51 -111q43 -21 115 -33v-77h-719v77q78 7 113.5 31.5t35.5 91.5v340l-8 2q-55 -55 -89.5 -76.5t-77 -35t-95.5 -13.5q-185 0 -292 141t-107 394zM508 498 q0 -353 129 -353q38 0 60 16t40 50v561q-27 156 -106 156q-58 0 -90.5 -119t-32.5 -311z" />
<glyph unicode="r" horiz-adv-x="1077" d="M29 901v80l534 27l15 -15v-151h4q72 97 140.5 137.5t141.5 40.5q102 0 162.5 -68.5t60.5 -177.5q0 -95 -59.5 -164t-144.5 -69q-93 0 -147 48t-54 134q0 63 16 100q-29 -7 -67 -36t-53 -50v-530q0 -72 32 -98q10 -10 53.5 -19.5t57.5 -9.5v-80h-676v80q65 0 97 22.5 t32 90.5v563q0 40 -17.5 70t-42 46t-85.5 29z" />
<glyph unicode="s" horiz-adv-x="1016" d="M59 375h72q44 -137 134.5 -232.5t183.5 -95.5q66 0 96 27.5t30 83.5q0 64 -48.5 103t-176.5 83q-140 51 -200 135t-60 211q0 148 114 241t300 93q75 0 143 -14.5t152 -51.5l18 64h76l14 -358h-69q-33 110 -106.5 189t-143.5 79q-54 0 -85.5 -27.5t-31.5 -83.5 q0 -59 38.5 -91.5t178.5 -76.5q137 -41 202.5 -122t65.5 -205q0 -171 -121 -269t-329 -98q-76 0 -161.5 24.5t-160.5 67.5l-34 -69h-76z" />
<glyph unicode="t" horiz-adv-x="786" d="M-8 877v114h139v301h401v-301h246v-114h-243v-512q0 -132 26 -184t88 -52q83 0 137 12v-94q-74 -35 -167 -56.5t-168 -21.5q-161 0 -242.5 85t-81.5 247v576h-135z" />
<glyph unicode="u" horiz-adv-x="1333" d="M0 903v78l545 27l10 -15v-653q0 -104 22 -147t66 -43q34 0 66.5 28.5t52.5 67.5v526q0 124 -113 131v78l508 27l10 -15v-764q0 -46 32.5 -84.5t117.5 -44.5v-77l-539 -33l-14 14v135h-6q-33 -35 -64 -66.5t-68.5 -55.5t-85 -38t-114.5 -14q-133 0 -207 94.5t-74 264.5 v436q0 40 -15 66.5t-39 45.5t-91 31z" />
<glyph unicode="v" horiz-adv-x="1047" d="M-37 920v75h653v-73q-46 -2 -75 -15.5t-29 -36.5l12 -59l25 -74q80 -250 131 -391l64 202q79 248 79 300q0 56 -104 74v73h358v-80q-91 -15 -131 -118q-119 -309 -287 -805h-253q-235 626 -310 817q-20 48 -55.5 76t-77.5 35z" />
<glyph unicode="w" horiz-adv-x="1757" d="M-20 920v75h696v-73q-123 -23 -123 -56q0 -16 54 -172t110 -301l176 615h268l221 -666q47 128 96.5 293t49.5 201q0 23 -34 43t-128 39v77h422v-77q-46 -12 -73 -33t-46 -61t-106.5 -277.5t-139 -378.5t-61.5 -178h-270l-213 637l-187 -637h-270q-157 436 -309 819 q-39 94 -133 111z" />
<glyph unicode="x" horiz-adv-x="1114" d="M6 0v82q38 5 75 24.5t66 48.5t102 116t144 175q-15 27 -33.5 60.5t-102.5 182t-102 168t-50 35t-87 28.5v75h648v-75q-91 -10 -91 -31q0 -33 109 -227q54 60 94 120q47 68 47 92q0 44 -106 44v77h360v-77q-36 -10 -61 -25.5t-77 -69.5t-114.5 -130.5t-95.5 -119.5 q67 -120 154 -272t110 -174.5t58 -34.5t51 -12h4v-80h-668v80q90 6 90 31q0 17 -16 67l-82 180q-17 -25 -30.5 -44.5t-25.5 -37t-23 -35.5t-23 -40q-31 -57 -31 -80q0 -41 82 -41v-80h-375z" />
<glyph unicode="y" horiz-adv-x="1102" d="M-14 920v75h651v-73q-34 -3 -69.5 -19t-35.5 -33q0 -52 189 -477q139 369 139 451q0 32 -32.5 51t-82.5 23v77h385v-77q-56 -14 -83.5 -38t-53.5 -81q-96 -243 -346 -830q-91 -218 -190.5 -315.5t-225.5 -97.5q-83 0 -139.5 59t-56.5 147q0 81 42 133t113 52 q38 0 70.5 -14.5t61 -39t86.5 -100.5q22 22 54 67.5t54 94.5q-237 527 -397 854q-28 47 -57 75.5t-76 35.5z" />
<glyph unicode="z" horiz-adv-x="1014" d="M33 0v82l459 815h-19q-194 0 -236 -34t-92 -210h-71v342h864v-75l-459 -824l96 -2q120 0 174.5 20t81.5 72q13 28 35 90.5t35 112.5h74v-389h-942z" />
<glyph unicode="{" horiz-adv-x="991" d="M70 520v166q130 8 172 28.5t61 65t19 127.5q0 59 -7.5 116t-7.5 120q0 150 52 235.5t168 121.5t401 36v-88q-90 -8 -128.5 -33t-58.5 -74.5t-20 -132.5v-159q0 -116 -36.5 -192t-105.5 -122t-219 -78v-110q149 -32 220 -79.5t106 -125t35 -188.5v-158q0 -82 19.5 -132 t58 -74t129.5 -30v-94q-275 0 -394 36.5t-173 122.5t-54 236q0 63 7.5 120t7.5 116q0 73 -13.5 115t-43.5 64.5t-78 30.5t-117 13z" />
<glyph unicode="|" horiz-adv-x="772" d="M291 -424v1948h192v-1948h-192z" />
<glyph unicode="}" horiz-adv-x="991" d="M63 -240q92 6 131 30.5t59.5 74t20.5 131.5v158q0 109 34.5 188t106 126t216.5 79v110q-150 33 -217.5 79t-103.5 122.5t-36 190.5v159q0 82 -20.5 131.5t-59 74.5t-131.5 34v88q280 0 398 -36t170.5 -121t52.5 -236q0 -63 -5 -120t-5 -116q0 -84 18.5 -128t59.5 -64.5 t170 -28.5v-166q-130 -9 -171.5 -30t-59 -65t-17.5 -128q0 -59 5 -116t5 -120q0 -150 -54.5 -236t-174 -122.5t-392.5 -36.5v94z" />
<glyph unicode="~" horiz-adv-x="1526" d="M158 416q50 155 154.5 263.5t224.5 108.5q130 0 273 -102q87 -61 131.5 -81.5t86.5 -20.5q62 0 110.5 42.5t110.5 170.5l119 -47q-51 -156 -155.5 -263.5t-223.5 -107.5q-65 0 -129.5 25t-140.5 78q-85 59 -132.5 80.5t-88.5 21.5q-64 0 -114 -45.5t-105 -171.5z" />
<glyph unicode="&#xa1;" horiz-adv-x="793" d="M170 195q0 38 10.5 78.5t50.5 145.5q75 203 129 513h74q56 -312 133 -514q40 -108 50 -145.5t10 -77.5q0 -91 -66.5 -156.5t-161.5 -65.5q-94 0 -161.5 66t-67.5 156zM180 1231q0 89 64.5 154t154.5 65q91 0 155 -65t64 -154q0 -91 -65 -156t-154 -65t-154 65t-65 156z " />
<glyph unicode="&#xa2;" horiz-adv-x="1106" d="M92 498q0 143 69.5 265.5t188 190.5t268.5 74v248h115v-254q133 -18 208 -85t75 -167q0 -85 -45.5 -133.5t-139.5 -48.5q-60 0 -98 28v-481h10q68 0 118.5 40.5t103.5 143.5l82 -51q-100 -237 -314 -291v-276h-115v262q-248 0 -387 141t-139 394zM500 535 q0 -257 118 -355v760q-54 -19 -86 -129.5t-32 -275.5z" />
<glyph unicode="&#xa3;" horiz-adv-x="1327" d="M113 0v217q78 31 118 71t57 103t17 240h-164v127h152q-17 153 -17 235q0 218 135 343.5t377 125.5q192 0 303 -73t111 -201q0 -86 -52.5 -140.5t-129.5 -54.5q-86 0 -135 47.5t-49 128.5q0 73 36 181q-26 12 -67 12q-98 0 -98 -234l12 -370h274v-127h-274 q-17 -110 -64 -178.5t-135 -106.5v-10h690v-336h-1097z" />
<glyph unicode="&#xa4;" horiz-adv-x="1376" d="M86 109l264 262q-59 95 -59 209t61 213l-266 266l131 125l260 -269q97 64 211 64q109 0 211 -64l262 269l131 -125l-268 -266q63 -102 63 -213q0 -112 -61 -209l266 -262l-131 -129l-264 264q-98 -62 -209 -62q-109 0 -209 62l-262 -264zM487 580q0 -93 57.5 -152 t143.5 -59t144.5 59t58.5 152q0 90 -57.5 151.5t-145.5 61.5t-144.5 -61t-56.5 -152z" />
<glyph unicode="&#xa5;" horiz-adv-x="1477" d="M0 1337v82h838v-82q-97 -6 -129.5 -20.5t-32.5 -38.5q0 -27 51.5 -157.5t169.5 -403.5q94 172 166 346.5t72 216.5q0 23 -30.5 37.5t-109.5 19.5v82h482v-82q-48 -6 -79.5 -24t-60 -44t-59.5 -69.5t-61 -98t-265 -507.5v-16h389v-132h-389v-223q0 -82 64 -106 q14 -7 58 -20t61 -15v-82h-797v82q102 8 142 35.5t40 95.5v233h-385v132h385v8l-149 313l-125 258q-40 77 -111.5 126t-134.5 54z" />
<glyph unicode="&#xa6;" horiz-adv-x="772" d="M291 385h192v-809h-192v809zM291 723v801h192v-801h-192z" />
<glyph unicode="&#xa7;" horiz-adv-x="1104" d="M115 553q0 206 250 293q-201 92 -201 295q0 137 113 225t305 88q169 0 271.5 -61t102.5 -158q0 -68 -37.5 -108t-103.5 -40q-63 0 -108.5 54t-77.5 169l-17 60h-6q-58 0 -89.5 -36t-31.5 -97q0 -58 20 -97t60 -68.5t180 -88.5q139 -59 191.5 -132.5t52.5 -186.5 q0 -197 -246 -285q97 -50 144 -115t47 -158q0 -150 -118.5 -244.5t-311.5 -94.5q-171 0 -269 60.5t-98 160.5q0 62 37.5 101.5t101.5 39.5q53 0 89.5 -29t62 -79.5t55.5 -170.5q61 0 94 41t33 113q0 51 -16.5 85t-54.5 62t-195 99q-120 53 -174.5 123.5t-54.5 179.5z M426 664q0 -57 18.5 -96t55.5 -67t153 -75q29 61 29 129q0 57 -19.5 96.5t-60 70.5t-147.5 77q-29 -69 -29 -135z" />
<glyph unicode="&#xa8;" horiz-adv-x="942" d="M53 1360q0 85 50.5 142t127.5 57q74 0 126.5 -57.5t52.5 -141.5q0 -87 -53 -143t-126 -56q-77 0 -127.5 57.5t-50.5 141.5zM532 1360q0 86 51 142.5t128 56.5q75 0 126.5 -58t51.5 -141q0 -86 -51.5 -142.5t-126.5 -56.5q-76 0 -127.5 57t-51.5 142z" />
<glyph unicode="&#xa9;" horiz-adv-x="1929" d="M80 604q0 230 115.5 433t323 325.5t448.5 122.5q239 0 444.5 -122t321.5 -325t116 -434q0 -234 -117 -438.5t-321.5 -325.5t-443.5 -121q-242 0 -448 121.5t-322.5 325.5t-116.5 438zM178 604q0 -222 108 -407.5t289.5 -288.5t391.5 -103q211 0 391 104t286.5 289 t106.5 406q0 216 -105.5 400t-285.5 288.5t-393 104.5q-212 0 -393.5 -103.5t-288.5 -287t-107 -402.5zM467 592q0 226 145 366t379 140q66 0 124 -12t140 -48l27 41h72l2 -377h-78q-100 314 -246 314q-110 0 -166.5 -98t-56.5 -291q0 -199 54.5 -294t170.5 -95 q104 0 171 41t128 133l72 -47q-131 -248 -430 -248q-142 0 -260 61t-183 169t-65 245z" />
<glyph unicode="&#xaa;" horiz-adv-x="1061" d="M111 805q0 79 37.5 133t125.5 90l159 63q95 36 130 54v104q0 135 -67 135q-28 0 -52 -20q25 -53 25 -111q0 -55 -43.5 -89t-116.5 -34q-76 0 -117.5 33.5t-41.5 96.5q0 93 100 144.5t280 51.5q142 0 217 -27.5t113.5 -87t38.5 -159.5l-8 -361q0 -76 31 -92q15 -10 62 -10 h20v-70q-24 -15 -90 -31t-117 -16q-95 0 -151 26t-79 85h-4q-48 -50 -79.5 -69.5t-72.5 -30.5t-94 -11q-93 0 -149.5 56.5t-56.5 146.5zM426 864q0 -112 72 -112q15 0 33.5 10.5t27.5 25.5l2 277q-76 -37 -105.5 -84.5t-29.5 -116.5z" />
<glyph unicode="&#xab;" horiz-adv-x="1147" d="M113 559q0 50 8.5 81t26.5 56t89 86.5t160.5 128.5t169.5 125l49 -45l-223 -438l223 -428l-49 -45q-179 126 -285.5 216t-127.5 117.5t-31 60t-10 85.5zM557 559q0 64 16.5 103.5t63.5 80.5q86 75 140.5 118.5t234.5 174.5l49 -45l-223 -438l223 -428l-49 -45 q-211 145 -373 291q-46 40 -64 83t-18 105z" />
<glyph unicode="&#xac;" horiz-adv-x="1526" d="M178 520v191h1159v-680h-196v489h-963z" />
<glyph unicode="&#xad;" horiz-adv-x="743" d="M82 414v264h580v-264h-580z" />
<glyph unicode="&#xae;" horiz-adv-x="1929" d="M80 604q0 230 115.5 433t323 325.5t448.5 122.5q239 0 444.5 -122t321.5 -325t116 -434q0 -234 -117 -438.5t-321.5 -325.5t-443.5 -121q-242 0 -448 121.5t-322.5 325.5t-116.5 438zM178 604q0 -222 108 -407.5t289.5 -288.5t391.5 -103q211 0 391 104t286.5 289 t106.5 406q0 216 -105.5 400t-285.5 288.5t-393 104.5q-212 0 -393.5 -103.5t-288.5 -287t-107 -402.5zM489 145v58q69 7 97 25.5t28 62.5v629q0 23 -8 39t-55 35.5t-62 23.5v57h531q206 0 298.5 -53.5t92.5 -167.5q0 -95 -58 -151.5t-161 -88.5l30 -42q77 -116 204 -275 q51 -64 96 -82l61 -12v-58h-401q-124 202 -160.5 258t-116.5 166h-8v-272q0 -76 102 -94v-58h-510zM897 631h18q102 0 145.5 49t43.5 158q0 92 -49.5 131t-155.5 39h-2v-377z" />
<glyph unicode="&#xaf;" horiz-adv-x="1194" d="M-4 1604v100h1204v-100h-1204z" />
<glyph unicode="&#xb0;" horiz-adv-x="862" d="M74 1128q0 148 100 243t254 95q157 0 256.5 -95.5t99.5 -242.5q0 -146 -100.5 -238.5t-255.5 -92.5q-153 0 -253.5 92t-100.5 239zM276 1135q0 -113 39 -176.5t117 -63.5q67 0 110.5 64t43.5 161q0 119 -42 180.5t-116 61.5q-70 0 -111 -60.5t-41 -166.5z" />
<glyph unicode="&#xb1;" horiz-adv-x="1526" d="M174 0v190h492v389h-492v191h492v487h192v-487h494v-191h-494v-389h494v-190h-1178z" />
<glyph unicode="&#xb2;" horiz-adv-x="1047" d="M119 489v185q249 189 332.5 288t83.5 226q0 84 -30.5 137t-72.5 53q-30 0 -43 -8q35 -80 35 -141q0 -59 -42 -97t-112 -38q-60 0 -99.5 37t-39.5 108q0 92 100.5 155.5t249.5 63.5q188 0 288.5 -72t100.5 -204q0 -116 -63.5 -195t-205.5 -130l-257 -95v-8h569v-265h-794z " />
<glyph unicode="&#xb3;" horiz-adv-x="1047" d="M119 686q0 67 40 110.5t105 43.5q68 0 108 -40t40 -104q0 -73 -21 -123l-14 -32q25 -9 61 -9q160 0 160 213q0 185 -139 185h-66v92h53q69 0 101.5 48.5t32.5 154.5q0 72 -30.5 111.5t-78.5 39.5q-31 0 -53 -10l14 -32q23 -46 23 -113q0 -63 -35.5 -101.5t-95.5 -38.5 q-64 0 -105 40.5t-41 101.5q0 102 102 168.5t248 66.5q164 0 260.5 -61t96.5 -164q0 -188 -258 -234v-14q134 -2 216.5 -63.5t82.5 -163.5q0 -137 -121.5 -222t-308.5 -85q-171 0 -274 63.5t-103 171.5z" />
<glyph unicode="&#xb4;" horiz-adv-x="973" d="M266 1137q102 134 221 303q48 71 96 106t117 35q64 0 102 -34.5t38 -86.5t-25 -87.5t-82.5 -71.5t-277.5 -138l-150 -71z" />
<glyph unicode="&#xb5;" horiz-adv-x="1321" d="M90 -244q0 64 28 154q42 135 42 242v843h399v-647q0 -106 22 -149t70 -43q38 0 68 25t47 65v749h401v-772q0 -63 30 -93t108 -30v-77q-39 -26 -104 -44t-120 -18q-231 0 -268 174h-4q-78 -172 -215 -172q-95 0 -170 68h-12v-8q0 -19 12.5 -51t27.5 -70.5t27.5 -80.5 t12.5 -79q0 -83 -57 -134.5t-150 -51.5q-90 0 -142.5 54t-52.5 146z" />
<glyph unicode="&#xb6;" horiz-adv-x="1112" d="M78 995q0 118 55.5 215t157.5 153t233 56h523v-90h-111v-1544h-137v1544h-170v-1544h-137v788q-199 26 -306.5 135.5t-107.5 286.5z" />
<glyph unicode="&#xb7;" horiz-adv-x="719" d="M141 676q0 98 66.5 168.5t162.5 70.5q94 0 161 -72.5t67 -166.5t-67 -165t-161 -71q-95 0 -162 69.5t-67 166.5z" />
<glyph unicode="&#xb8;" horiz-adv-x="1024" d="M287 -362q124 0 156 6.5t45.5 21t13.5 45.5q0 34 -27 46t-84 12v247h90v-110q122 0 181 -42.5t59 -117.5q0 -76 -38.5 -116t-127 -57t-268.5 -17v82z" />
<glyph unicode="&#xb9;" horiz-adv-x="1047" d="M203 1212v88h22q98 0 174 38.5t119 113.5h168q-6 -126 -6 -219v-563q0 -62 39 -80q13 -9 62.5 -18.5t62.5 -10.5v-72h-639v72q53 5 94.5 13.5t53.5 19t19 29t7 39.5v550h-176z" />
<glyph unicode="&#xba;" horiz-adv-x="1077" d="M68 1036q0 194 124 308t343 114q221 0 348 -114.5t127 -309.5q0 -196 -128 -312t-350 -116q-211 0 -337.5 116t-126.5 314zM449 1044q0 -175 8.5 -235t28 -92.5t53.5 -32.5q49 0 70.5 70.5t21.5 285.5q0 202 -22 272t-70 70q-35 0 -54 -34t-27.5 -92.5t-8.5 -211.5z" />
<glyph unicode="&#xbb;" horiz-adv-x="1147" d="M86 125l223 428l-223 438l49 45q56 -41 103 -75t91 -68t87.5 -70t93.5 -80q46 -40 63 -79.5t17 -104.5q0 -60 -17.5 -102.5t-64.5 -85.5q-162 -146 -373 -291zM530 125l224 428l-224 438l50 45q56 -41 103 -75t91 -68t87.5 -70t92.5 -80q46 -40 63 -79.5t17 -104.5 q0 -60 -14.5 -98.5t-48 -72t-127 -110.5t-264.5 -198z" />
<glyph unicode="&#xbc;" horiz-adv-x="2068" d="M117 1212v88h22q98 0 174 38.5t119 113.5h168q-6 -126 -6 -219v-563q0 -62 39 -80q13 -9 62.5 -18.5t62.5 -10.5v-72h-639v72q53 5 94.5 13.5t53.5 19t19 29t7 39.5v550h-176zM555 0l827 1436h164l-829 -1436h-162zM1124 220v165l432 584h254v-559h168v-190h-168v-238 h-266v238h-420zM1253 410h291v387z" />
<glyph unicode="&#xbd;" horiz-adv-x="2068" d="M117 1212v88h22q98 0 174 38.5t119 113.5h168q-6 -126 -6 -219v-563q0 -62 39 -80q13 -9 62.5 -18.5t62.5 -10.5v-72h-639v72q53 5 94.5 13.5t53.5 19t19 29t7 39.5v550h-176zM496 0l827 1436h164l-829 -1436h-162zM1196 2v185q249 189 332.5 288t83.5 226 q0 84 -30.5 137t-72.5 53q-30 0 -43 -8q35 -80 35 -141q0 -59 -42 -97t-112 -38q-60 0 -99.5 37t-39.5 108q0 92 100.5 155.5t249.5 63.5q188 0 288.5 -72t100.5 -204q0 -116 -63.5 -195t-205.5 -130l-257 -95v-8h569v-265h-794z" />
<glyph unicode="&#xbe;" horiz-adv-x="2068" d="M96 686q0 67 40 110.5t105 43.5q68 0 108 -40t40 -104q0 -73 -21 -123l-14 -32q25 -9 61 -9q160 0 160 213q0 185 -139 185h-66v92h53q69 0 101.5 48.5t32.5 154.5q0 72 -30.5 111.5t-78.5 39.5q-31 0 -53 -10l14 -32q23 -46 23 -113q0 -63 -35.5 -101.5t-95.5 -38.5 q-64 0 -105 40.5t-41 101.5q0 102 102 168.5t248 66.5q164 0 260.5 -61t96.5 -164q0 -188 -258 -234v-14q134 -2 216.5 -63.5t82.5 -163.5q0 -137 -121.5 -222t-308.5 -85q-171 0 -274 63.5t-103 171.5zM613 0l827 1436h164l-829 -1436h-162zM1138 220v165l432 584h254v-559 h168v-190h-168v-238h-266v238h-420zM1267 410h291v387z" />
<glyph unicode="&#xbf;" horiz-adv-x="1081" d="M102 387q0 212 131.5 341.5t354.5 145.5l8 76h82v-395q-112 -17 -173 -98.5t-61 -208.5q0 -83 40.5 -138t95.5 -55q50 0 106 33q-32 93 -38.5 128.5t-6.5 74.5q0 178 190 178q85 0 139 -54.5t54 -140.5q0 -133 -131.5 -219t-325.5 -86q-212 0 -338.5 114.5t-126.5 303.5z M414 1237q0 88 64.5 153.5t154.5 65.5q92 0 156.5 -66t64.5 -153q0 -89 -65 -155t-156 -66q-89 0 -154 66t-65 155z" />
<glyph unicode="&#xc0;" horiz-adv-x="1456" d="M-61 0v82q174 11 237 178q125 306 321 884l101 296h272l106 -310q212 -631 320 -919q39 -101 136 -118l65 -11v-82h-797v82q74 8 119 22t45 31q0 9 -5 34.5t-87 293.5h-391q-42 -128 -63 -198t-21 -101q0 -30 34 -49t132 -33v-82h-524zM324 1792q0 55 37.5 91t97.5 36 q70 0 149 -64.5t172 -164.5q37 -39 144 -138l-29 -43l-148 43q-281 79 -323 97q-100 39 -100 143zM418 569h319l-155 508z" />
<glyph unicode="&#xc1;" horiz-adv-x="1456" d="M-61 0v82q174 11 237 178q125 306 321 884l101 296h272l106 -310q212 -631 320 -919q39 -101 136 -118l65 -11v-82h-797v82q74 8 119 22t45 31q0 9 -5 34.5t-87 293.5h-391q-42 -128 -63 -198t-21 -101q0 -30 34 -49t132 -33v-82h-524zM418 569h319l-155 508zM514 1552 l145 138q112 116 182.5 172.5t139.5 56.5q60 0 96.5 -34.5t36.5 -90.5q0 -46 -20.5 -80t-57.5 -54.5t-346 -107.5l-148 -43z" />
<glyph unicode="&#xc2;" horiz-adv-x="1456" d="M-61 0v82q174 11 237 178q125 306 321 884l101 296h272l106 -310q212 -631 320 -919q39 -101 136 -118l65 -11v-82h-797v82q74 8 119 22t45 31q0 9 -5 34.5t-87 293.5h-391q-42 -128 -63 -198t-21 -101q0 -30 34 -49t132 -33v-82h-524zM365 1550l106 164 q97 151 140.5 183t123.5 32q56 0 90.5 -13.5t69.5 -55t80 -104t135 -206.5l-45 -39l-330 201l-329 -201zM418 569h319l-155 508z" />
<glyph unicode="&#xc3;" horiz-adv-x="1456" d="M-61 0v82q174 11 237 178q125 306 321 884l101 296h272l106 -310q212 -631 320 -919q39 -101 136 -118l65 -11v-82h-797v82q74 8 119 22t45 31q0 9 -5 34.5t-87 293.5h-391q-42 -128 -63 -198t-21 -101q0 -30 34 -49t132 -33v-82h-524zM280 1510q59 151 147.5 242.5 t180.5 91.5q65 0 117.5 -17.5t96 -39t80 -39t71.5 -17.5t57.5 10.5t38.5 34t49 106.5l80 -26q-43 -150 -129.5 -246t-183.5 -96q-103 0 -209 59q-105 58 -168 58q-41 0 -73 -31t-79 -125zM418 569h319l-155 508z" />
<glyph unicode="&#xc4;" horiz-adv-x="1456" d="M-61 0v82q174 11 237 178q125 306 321 884l101 296h272l106 -310q212 -631 320 -919q39 -101 136 -118l65 -11v-82h-797v82q74 8 119 22t45 31q0 9 -5 34.5t-87 293.5h-391q-42 -128 -63 -198t-21 -101q0 -30 34 -49t132 -33v-82h-524zM289 1712q0 84 51.5 141.5 t130.5 57.5q77 0 131 -57t54 -142q0 -84 -54 -141t-131 -57q-79 0 -130.5 58t-51.5 140zM418 569h319l-155 508zM823 1712q0 84 51.5 141.5t131.5 57.5q77 0 130.5 -58t53.5 -141q0 -84 -54 -141t-130 -57q-79 0 -131 57t-52 141z" />
<glyph unicode="&#xc5;" horiz-adv-x="1456" d="M-61 0v82q174 11 237 178q125 306 321 884l101 296h272l106 -310q212 -631 320 -919q39 -101 136 -118l65 -11v-82h-797v82q74 8 119 22t45 31q0 9 -5 34.5t-87 293.5h-391q-42 -128 -63 -198t-21 -101q0 -30 34 -49t132 -33v-82h-524zM418 569h319l-155 508zM430 1628 q0 108 80.5 174t212.5 66q133 0 213 -65t80 -175q0 -106 -79.5 -170.5t-213.5 -64.5q-135 0 -214 63t-79 172zM592 1628q0 -74 33 -118t98 -44t98 43.5t33 118.5t-33 120.5t-98 45.5q-63 0 -97 -43.5t-34 -122.5z" />
<glyph unicode="&#xc6;" horiz-adv-x="2023" d="M-86 0v82q84 8 138 44t112 134q319 571 563 1051q-94 18 -172 26v82h1329v-377h-74q-21 57 -65 117.5t-94.5 102t-97 51.5t-115.5 10h-105v-541h10q109 0 181 64q19 19 47.5 85.5t34.5 106.5h73v-616h-73q-8 43 -35.5 111.5t-46.5 89.5q-65 65 -181 65h-10v-399 q0 -77 8 -118t26 -58t60 -17q224 0 281 54q50 56 114 160.5t81 148.5h71l-24 -459h-1231v82q102 8 141 36t39 91v377h-418q-39 -69 -149 -285q-56 -106 -56 -151q0 -29 63 -48.5t128 -19.5v-82h-553zM535 686h364v641h-35z" />
<glyph unicode="&#xc7;" horiz-adv-x="1374" d="M63 696q0 219 93 395.5t259.5 272.5t372.5 96q87 0 178 -22.5t167 -65.5l65 47h78l10 -526h-86q-69 241 -157.5 352t-221.5 111q-139 0 -206.5 -151t-67.5 -464q0 -217 35.5 -354t104 -202.5t187.5 -65.5q107 0 196.5 66.5t189.5 230.5l88 -62q-196 -397 -580 -397 q-207 0 -368.5 92t-249 260.5t-87.5 386.5zM549 -362q124 0 156 6.5t45.5 21t13.5 45.5q0 34 -27 46t-84 12v247h90v-110q122 0 181 -42.5t59 -117.5q0 -76 -38.5 -116t-127 -57t-268.5 -17v82z" />
<glyph unicode="&#xc8;" horiz-adv-x="1360" d="M55 0v82q94 7 121 24q37 16 48.5 42t11.5 61v989q0 34 -11.5 59.5t-48.5 45.5q-48 20 -121 34v82h1166v-377h-74q-23 57 -64 115t-89 98.5t-92.5 54t-127.5 13.5h-104v-541h10q108 0 180 64q19 17 47 81.5t35 110.5h74v-616h-74q-9 48 -35.5 113.5t-46.5 87.5 q-65 65 -180 65h-10v-399q0 -77 8 -118t26 -58t60 -17q223 0 280 54q50 56 114 160.5t81 148.5h72l-25 -459h-1231zM260 1792q0 55 37.5 91t97.5 36q70 0 149 -64.5t172 -164.5q37 -39 144 -138l-29 -43l-148 43q-281 79 -323 97q-100 39 -100 143z" />
<glyph unicode="&#xc9;" horiz-adv-x="1360" d="M55 0v82q94 7 121 24q37 16 48.5 42t11.5 61v989q0 34 -11.5 59.5t-48.5 45.5q-48 20 -121 34v82h1166v-377h-74q-23 57 -64 115t-89 98.5t-92.5 54t-127.5 13.5h-104v-541h10q108 0 180 64q19 17 47 81.5t35 110.5h74v-616h-74q-9 48 -35.5 113.5t-46.5 87.5 q-65 65 -180 65h-10v-399q0 -77 8 -118t26 -58t60 -17q223 0 280 54q50 56 114 160.5t81 148.5h72l-25 -459h-1231zM449 1552l145 138q112 116 182.5 172.5t139.5 56.5q60 0 96.5 -34.5t36.5 -90.5q0 -46 -20.5 -80t-57.5 -54.5t-346 -107.5l-148 -43z" />
<glyph unicode="&#xca;" horiz-adv-x="1360" d="M55 0v82q94 7 121 24q37 16 48.5 42t11.5 61v989q0 34 -11.5 59.5t-48.5 45.5q-48 20 -121 34v82h1166v-377h-74q-23 57 -64 115t-89 98.5t-92.5 54t-127.5 13.5h-104v-541h10q108 0 180 64q19 17 47 81.5t35 110.5h74v-616h-74q-9 48 -35.5 113.5t-46.5 87.5 q-65 65 -180 65h-10v-399q0 -77 8 -118t26 -58t60 -17q223 0 280 54q50 56 114 160.5t81 148.5h72l-25 -459h-1231zM326 1550l106 164q97 151 140.5 183t123.5 32q56 0 90.5 -13.5t69.5 -55t80 -104t135 -206.5l-45 -39l-330 201l-329 -201z" />
<glyph unicode="&#xcb;" horiz-adv-x="1360" d="M55 0v82q94 7 121 24q37 16 48.5 42t11.5 61v989q0 34 -11.5 59.5t-48.5 45.5q-48 20 -121 34v82h1166v-377h-74q-23 57 -64 115t-89 98.5t-92.5 54t-127.5 13.5h-104v-541h10q108 0 180 64q19 17 47 81.5t35 110.5h74v-616h-74q-9 48 -35.5 113.5t-46.5 87.5 q-65 65 -180 65h-10v-399q0 -77 8 -118t26 -58t60 -17q223 0 280 54q50 56 114 160.5t81 148.5h72l-25 -459h-1231zM248 1718q0 84 51.5 141.5t130.5 57.5q77 0 131 -57t54 -142q0 -84 -54 -141t-131 -57q-79 0 -130.5 58t-51.5 140zM782 1718q0 84 51.5 141.5t131.5 57.5 q77 0 130.5 -58t53.5 -141q0 -84 -54 -141t-130 -57q-79 0 -131 57t-52 141z" />
<glyph unicode="&#xcc;" horiz-adv-x="905" d="M49 0v82q103 8 125 20q38 14 50 41t12 64v991q0 70 -62 105q-53 22 -125 34v82h807v-82l-62 -10q-75 -10 -99.5 -36t-24.5 -83v-993q0 -78 59 -102q22 -15 127 -31v-82h-807zM115 1792q0 55 37.5 91t97.5 36q70 0 149 -64.5t172 -164.5q37 -39 144 -138l-29 -43l-148 43 q-281 79 -323 97q-100 39 -100 143z" />
<glyph unicode="&#xcd;" horiz-adv-x="905" d="M49 0v82q103 8 125 20q38 14 50 41t12 64v991q0 70 -62 105q-53 22 -125 34v82h807v-82l-62 -10q-75 -10 -99.5 -36t-24.5 -83v-993q0 -78 59 -102q22 -15 127 -31v-82h-807zM195 1552l145 138q112 116 182.5 172.5t139.5 56.5q60 0 96.5 -34.5t36.5 -90.5 q0 -46 -20.5 -80t-57.5 -54.5t-346 -107.5l-148 -43z" />
<glyph unicode="&#xce;" horiz-adv-x="905" d="M49 0v82q103 8 125 20q38 14 50 41t12 64v991q0 70 -62 105q-53 22 -125 34v82h807v-82l-62 -10q-75 -10 -99.5 -36t-24.5 -83v-993q0 -78 59 -102q22 -15 127 -31v-82h-807zM82 1550l106 164q97 151 140.5 183t123.5 32q56 0 90.5 -13.5t69.5 -55t80 -104t135 -206.5 l-45 -39l-330 201l-329 -201z" />
<glyph unicode="&#xcf;" horiz-adv-x="905" d="M37 1698q0 85 50.5 142t127.5 57q74 0 126.5 -57.5t52.5 -141.5q0 -87 -53 -143t-126 -56q-77 0 -127.5 57.5t-50.5 141.5zM49 0v82q103 8 125 20q38 14 50 41t12 64v991q0 70 -62 105q-53 22 -125 34v82h807v-82l-62 -10q-75 -10 -99.5 -36t-24.5 -83v-993 q0 -78 59 -102q22 -15 127 -31v-82h-807zM516 1698q0 86 51 142.5t128 56.5q75 0 126.5 -58t51.5 -141q0 -86 -51.5 -142.5t-126.5 -56.5q-76 0 -127.5 57t-51.5 142z" />
<glyph unicode="&#xd0;" horiz-adv-x="1622" d="M39 1337v82h764q224 0 402.5 -92t266 -252.5t87.5 -374.5q0 -215 -94 -372t-274.5 -242.5t-418.5 -85.5h-723v82q107 8 127 20q60 27 60 103v471h-181v108h181v414q0 76 -60 109q-15 6 -31 10.5t-106 19.5zM670 250q0 -69 35 -111.5t92 -42.5q141 0 209.5 149t68.5 453 q0 298 -79 460.5t-224 162.5l-102 -4v-533h213v-108h-213v-426z" />
<glyph unicode="&#xd1;" horiz-adv-x="1577" d="M25 0v82q78 7 129.5 40t69.5 95t18 201v651q0 54 -15.5 98t-50.5 82t-60 52t-87 32v86h575l606 -862v426q0 143 -20.5 206.5t-66 94.5t-132.5 53v82h565v-82l-27 -4q-106 -17 -150 -80.5t-44 -259.5v-997h-227l-739 1053v-619q0 -209 51 -266.5t164 -81.5v-82h-559z M364 1503q59 151 147.5 242.5t180.5 91.5q65 0 117.5 -17.5t96 -39t80 -39t71.5 -17.5t57.5 10.5t38.5 34t49 106.5l80 -26q-43 -150 -129.5 -246t-183.5 -96q-103 0 -209 59q-105 58 -168 58q-41 0 -73 -31t-79 -125z" />
<glyph unicode="&#xd2;" horiz-adv-x="1602" d="M61 684q0 228 93.5 406.5t264 275t384.5 96.5q206 0 376.5 -93.5t265.5 -261t95 -382.5q0 -222 -93.5 -400.5t-261 -272t-394.5 -93.5q-203 0 -373.5 95t-263.5 260t-93 370zM410 1792q0 55 37.5 91t97.5 36q70 0 149 -64.5t172 -164.5q37 -39 144 -138l-29 -43l-148 43 q-281 79 -323 97q-100 39 -100 143zM547 702q0 -641 256 -641q252 0 252 654q0 335 -63.5 489t-188.5 154q-126 0 -191 -166t-65 -490z" />
<glyph unicode="&#xd3;" horiz-adv-x="1602" d="M61 684q0 228 93.5 406.5t264 275t384.5 96.5q206 0 376.5 -93.5t265.5 -261t95 -382.5q0 -222 -93.5 -400.5t-261 -272t-394.5 -93.5q-203 0 -373.5 95t-263.5 260t-93 370zM547 702q0 -641 256 -641q252 0 252 654q0 335 -63.5 489t-188.5 154q-126 0 -191 -166 t-65 -490zM584 1552l145 138q112 116 182.5 172.5t139.5 56.5q60 0 96.5 -34.5t36.5 -90.5q0 -46 -20.5 -80t-57.5 -54.5t-346 -107.5l-148 -43z" />
<glyph unicode="&#xd4;" horiz-adv-x="1602" d="M61 684q0 228 93.5 406.5t264 275t384.5 96.5q206 0 376.5 -93.5t265.5 -261t95 -382.5q0 -222 -93.5 -400.5t-261 -272t-394.5 -93.5q-203 0 -373.5 95t-263.5 260t-93 370zM418 1550l106 164q97 151 140.5 183t123.5 32q56 0 90.5 -13.5t69.5 -55t80 -104t135 -206.5 l-45 -39l-330 201l-329 -201zM547 702q0 -641 256 -641q252 0 252 654q0 335 -63.5 489t-188.5 154q-126 0 -191 -166t-65 -490z" />
<glyph unicode="&#xd5;" horiz-adv-x="1602" d="M61 684q0 228 93.5 406.5t264 275t384.5 96.5q206 0 376.5 -93.5t265.5 -261t95 -382.5q0 -222 -93.5 -400.5t-261 -272t-394.5 -93.5q-203 0 -373.5 95t-263.5 260t-93 370zM350 1503q59 151 147.5 242.5t180.5 91.5q65 0 117.5 -17.5t96 -39t80 -39t71.5 -17.5 t57.5 10.5t38.5 34t49 106.5l80 -26q-43 -150 -129.5 -246t-183.5 -96q-103 0 -209 59q-105 58 -168 58q-41 0 -73 -31t-79 -125zM547 702q0 -641 256 -641q252 0 252 654q0 335 -63.5 489t-188.5 154q-126 0 -191 -166t-65 -490z" />
<glyph unicode="&#xd6;" horiz-adv-x="1602" d="M61 684q0 228 93.5 406.5t264 275t384.5 96.5q206 0 376.5 -93.5t265.5 -261t95 -382.5q0 -222 -93.5 -400.5t-261 -272t-394.5 -93.5q-203 0 -373.5 95t-263.5 260t-93 370zM340 1718q0 84 51.5 141.5t130.5 57.5q77 0 131 -57t54 -142q0 -84 -54 -141t-131 -57 q-79 0 -130.5 58t-51.5 140zM547 702q0 -641 256 -641q252 0 252 654q0 335 -63.5 489t-188.5 154q-126 0 -191 -166t-65 -490zM874 1718q0 84 51.5 141.5t131.5 57.5q77 0 130.5 -58t53.5 -141q0 -84 -54 -141t-130 -57q-79 0 -131 57t-52 141z" />
<glyph unicode="&#xd7;" horiz-adv-x="1526" d="M229 188l402 400l-402 393l133 137l400 -401l397 401l133 -137l-399 -393l399 -400l-133 -133l-397 398l-400 -396z" />
<glyph unicode="&#xd8;" horiz-adv-x="1602" d="M61 684q0 228 93.5 406.5t264 275t384.5 96.5q269 0 467 -153l200 223l78 -76l-198 -219q190 -203 190 -512q0 -222 -93.5 -400.5t-261 -272t-394.5 -93.5q-257 0 -455 147l-189 -206l-75 77l184 201q-195 202 -195 506zM547 702q0 -102 6 -190l479 532q-52 314 -229 314 q-126 0 -191 -166t-65 -490zM571 369q54 -308 232 -308q252 0 252 654q0 91 -6 186z" />
<glyph unicode="&#xd9;" horiz-adv-x="1630" d="M61 1341v78h770v-78l-54 -10l-58 -14q-60 -22 -60 -105v-669q0 -155 34 -249.5t97 -139.5t175 -45q145 0 223 119t78 341v410q0 121 -13 185.5t-51 107.5q-24 20 -69.5 38t-85.5 27v82h569v-82q-111 -19 -153.5 -51.5t-56 -97t-13.5 -201.5v-467q0 -259 -148 -410 t-399 -151q-303 0 -461 151t-158 443v649q0 58 -33 88.5t-133 50.5zM494 1792q0 55 37.5 91t97.5 36q70 0 149 -64.5t172 -164.5q37 -39 144 -138l-29 -43l-148 43q-281 79 -323 97q-100 39 -100 143z" />
<glyph unicode="&#xda;" horiz-adv-x="1630" d="M61 1341v78h770v-78l-54 -10l-58 -14q-60 -22 -60 -105v-669q0 -155 34 -249.5t97 -139.5t175 -45q145 0 223 119t78 341v410q0 121 -13 185.5t-51 107.5q-24 20 -69.5 38t-85.5 27v82h569v-82q-111 -19 -153.5 -51.5t-56 -97t-13.5 -201.5v-467q0 -259 -148 -410 t-399 -151q-303 0 -461 151t-158 443v649q0 58 -33 88.5t-133 50.5zM680 1552l145 138q112 116 182.5 172.5t139.5 56.5q60 0 96.5 -34.5t36.5 -90.5q0 -46 -20.5 -80t-57.5 -54.5t-346 -107.5l-148 -43z" />
<glyph unicode="&#xdb;" horiz-adv-x="1630" d="M61 1341v78h770v-78l-54 -10l-58 -14q-60 -22 -60 -105v-669q0 -155 34 -249.5t97 -139.5t175 -45q145 0 223 119t78 341v410q0 121 -13 185.5t-51 107.5q-24 20 -69.5 38t-85.5 27v82h569v-82q-111 -19 -153.5 -51.5t-56 -97t-13.5 -201.5v-467q0 -259 -148 -410 t-399 -151q-303 0 -461 151t-158 443v649q0 58 -33 88.5t-133 50.5zM561 1550l106 164q97 151 140.5 183t123.5 32q56 0 90.5 -13.5t69.5 -55t80 -104t135 -206.5l-45 -39l-330 201l-329 -201z" />
<glyph unicode="&#xdc;" horiz-adv-x="1630" d="M61 1341v78h770v-78l-54 -10l-58 -14q-60 -22 -60 -105v-669q0 -155 34 -249.5t97 -139.5t175 -45q145 0 223 119t78 341v410q0 121 -13 185.5t-51 107.5q-24 20 -69.5 38t-85.5 27v82h569v-82q-111 -19 -153.5 -51.5t-56 -97t-13.5 -201.5v-467q0 -259 -148 -410 t-399 -151q-303 0 -461 151t-158 443v649q0 58 -33 88.5t-133 50.5zM403 1718q0 84 51.5 141.5t130.5 57.5q77 0 131 -57t54 -142q0 -84 -54 -141t-131 -57q-79 0 -130.5 58t-51.5 140zM937 1718q0 84 51.5 141.5t131.5 57.5q77 0 130.5 -58t53.5 -141q0 -84 -54 -141 t-130 -57q-79 0 -131 57t-52 141z" />
<glyph unicode="&#xdd;" horiz-adv-x="1489" d="M-90 1337v82h868v-82l-55 -3q-107 -6 -107 -50q0 -31 77.5 -206.5t176.5 -372.5q118 207 201.5 375.5t83.5 199.5q0 48 -139 57v82h481v-82q-28 -4 -49 -11t-57 -30q-74 -49 -151 -167t-239 -418q-52 -96 -67.5 -160.5t-15.5 -175.5v-152q0 -78 55 -103t127 -38v-82h-797 v82q102 8 142 35.5t40 95.5v166q0 86 -27 168.5t-151.5 347.5t-168.5 319t-102.5 86.5t-125.5 36.5zM576 1552l145 138q112 116 182.5 172.5t139.5 56.5q60 0 96.5 -34.5t36.5 -90.5q0 -46 -20.5 -80t-57.5 -54.5t-346 -107.5l-148 -43z" />
<glyph unicode="&#xde;" horiz-adv-x="1397" d="M47 0v82q112 9 150.5 37t38.5 90v969q0 57 -20 86.5t-73 49.5t-94 23v82h795v-82q-22 -2 -60 -11.5t-57 -18.5q-57 -40 -57 -107v-47h118q214 0 333.5 -40t175 -126.5t55.5 -238.5q0 -121 -71.5 -215t-205 -149.5t-284.5 -55.5h-121v-107q0 -46 21 -72t74.5 -45t78.5 -22 v-82h-797zM670 426h28q102 0 145.5 77t43.5 238q0 171 -39 241.5t-137 70.5h-41v-627z" />
<glyph unicode="&#xdf;" horiz-adv-x="1311" d="M14 0v80q66 0 98.5 25t32.5 83v838q0 187 55.5 286.5t178.5 166.5t313 71q208 0 337.5 -88t129.5 -231q0 -105 -75.5 -184t-206.5 -111v-10q166 -33 267 -146t101 -282q0 -228 -115.5 -368t-304.5 -140q-139 0 -209 20v88l26 -2h17q68 0 107 109t39 299q0 195 -33.5 284 t-107.5 89h-17v96h19q55 0 78.5 62.5t23.5 203.5q0 114 -25.5 167.5t-66.5 53.5q-66 0 -93.5 -76t-27.5 -260v-1124h-541z" />
<glyph unicode="&#xe0;" horiz-adv-x="1204" d="M76 217q0 104 42.5 174.5t145.5 114.5q54 23 209 71q137 42 172 60v135q0 168 -92 168q-41 0 -84 -25q31 -72 31 -149q0 -81 -49 -114.5t-140 -33.5q-192 0 -192 166q0 110 134.5 177t340.5 67q172 0 265.5 -35t142.5 -110.5t49 -198.5l-4 -280l-5 -175q0 -74 21 -100.5 t88 -26.5h23v-79q-34 -21 -111 -40.5t-133 -19.5q-119 0 -184 30t-95 109h-6q-67 -73 -144.5 -105t-178.5 -32q-107 0 -176.5 70t-69.5 182zM274 1460q0 51 37 86t102 35q61 0 109.5 -30t103.5 -111q108 -155 222 -303l-39 -45l-151 72q-258 118 -321 169t-63 127zM459 291 q0 -139 94 -139q23 0 49.5 13t38.5 32l2 344l-66 -39q-118 -68 -118 -211z" />
<glyph unicode="&#xe1;" horiz-adv-x="1204" d="M76 217q0 104 42.5 174.5t145.5 114.5q54 23 209 71q137 42 172 60v135q0 168 -92 168q-41 0 -84 -25q31 -72 31 -149q0 -81 -49 -114.5t-140 -33.5q-192 0 -192 166q0 110 134.5 177t340.5 67q172 0 265.5 -35t142.5 -110.5t49 -198.5l-4 -280l-5 -175q0 -74 21 -100.5 t88 -26.5h23v-79q-34 -21 -111 -40.5t-133 -19.5q-119 0 -184 30t-95 109h-6q-67 -73 -144.5 -105t-178.5 -32q-107 0 -176.5 70t-69.5 182zM344 1137q102 134 221 303q48 71 96 106t117 35q64 0 102 -34.5t38 -86.5t-25 -87.5t-82.5 -71.5t-277.5 -138l-150 -71zM459 291 q0 -139 94 -139q23 0 49.5 13t38.5 32l2 344l-66 -39q-118 -68 -118 -211z" />
<glyph unicode="&#xe2;" horiz-adv-x="1204" d="M76 217q0 104 42.5 174.5t145.5 114.5q54 23 209 71q137 42 172 60v135q0 168 -92 168q-41 0 -84 -25q31 -72 31 -149q0 -81 -49 -114.5t-140 -33.5q-192 0 -192 166q0 110 134.5 177t340.5 67q172 0 265.5 -35t142.5 -110.5t49 -198.5l-4 -280l-5 -175q0 -74 21 -100.5 t88 -26.5h23v-79q-34 -21 -111 -40.5t-133 -19.5q-119 0 -184 30t-95 109h-6q-67 -73 -144.5 -105t-178.5 -32q-107 0 -176.5 70t-69.5 182zM228 1124q119 213 154.5 270.5t60 92.5t62.5 49t91 14q60 0 96.5 -15t61.5 -52q65 -99 217 -359l-49 -32l-326 241l-325 -241z M459 291q0 -139 94 -139q23 0 49.5 13t38.5 32l2 344l-66 -39q-118 -68 -118 -211z" />
<glyph unicode="&#xe3;" horiz-adv-x="1204" d="M76 217q0 104 42.5 174.5t145.5 114.5q54 23 209 71q137 42 172 60v135q0 168 -92 168q-41 0 -84 -25q31 -72 31 -149q0 -81 -49 -114.5t-140 -33.5q-192 0 -192 166q0 110 134.5 177t340.5 67q172 0 265.5 -35t142.5 -110.5t49 -198.5l-4 -280l-5 -175q0 -74 21 -100.5 t88 -26.5h23v-79q-34 -21 -111 -40.5t-133 -19.5q-119 0 -184 30t-95 109h-6q-67 -73 -144.5 -105t-178.5 -32q-107 0 -176.5 70t-69.5 182zM139 1141q59 151 147.5 242.5t180.5 91.5q65 0 117.5 -17.5t96 -39t80 -39t71.5 -17.5t57.5 10.5t38.5 34t49 106.5l80 -26 q-43 -150 -129.5 -246t-183.5 -96q-103 0 -209 59q-105 58 -168 58q-41 0 -73 -31t-79 -125zM459 291q0 -139 94 -139q23 0 49.5 13t38.5 32l2 344l-66 -39q-118 -68 -118 -211z" />
<glyph unicode="&#xe4;" horiz-adv-x="1204" d="M76 217q0 104 42.5 174.5t145.5 114.5q54 23 209 71q137 42 172 60v135q0 168 -92 168q-41 0 -84 -25q31 -72 31 -149q0 -81 -49 -114.5t-140 -33.5q-192 0 -192 166q0 110 134.5 177t340.5 67q172 0 265.5 -35t142.5 -110.5t49 -198.5l-4 -280l-5 -175q0 -74 21 -100.5 t88 -26.5h23v-79q-34 -21 -111 -40.5t-133 -19.5q-119 0 -184 30t-95 109h-6q-67 -73 -144.5 -105t-178.5 -32q-107 0 -176.5 70t-69.5 182zM178 1360q0 85 50.5 142t127.5 57q74 0 126.5 -57.5t52.5 -141.5q0 -87 -53 -143t-126 -56q-77 0 -127.5 57.5t-50.5 141.5z M459 291q0 -139 94 -139q23 0 49.5 13t38.5 32l2 344l-66 -39q-118 -68 -118 -211zM657 1360q0 86 51 142.5t128 56.5q75 0 126.5 -58t51.5 -141q0 -86 -51.5 -142.5t-126.5 -56.5q-76 0 -127.5 57t-51.5 142z" />
<glyph unicode="&#xe5;" horiz-adv-x="1204" d="M76 217q0 104 42.5 174.5t145.5 114.5q54 23 209 71q137 42 172 60v135q0 168 -92 168q-41 0 -84 -25q31 -72 31 -149q0 -81 -49 -114.5t-140 -33.5q-192 0 -192 166q0 110 134.5 177t340.5 67q172 0 265.5 -35t142.5 -110.5t49 -198.5l-4 -280l-5 -175q0 -74 21 -100.5 t88 -26.5h23v-79q-34 -21 -111 -40.5t-133 -19.5q-119 0 -184 30t-95 109h-6q-67 -73 -144.5 -105t-178.5 -32q-107 0 -176.5 70t-69.5 182zM307 1321q0 108 80.5 174t212.5 66q133 0 213 -65t80 -175q0 -106 -79.5 -170.5t-213.5 -64.5q-135 0 -214 63t-79 172zM459 291 q0 -139 94 -139q23 0 49.5 13t38.5 32l2 344l-66 -39q-118 -68 -118 -211zM469 1321q0 -74 33 -118t98 -44t98 43.5t33 118.5t-33 120.5t-98 45.5q-63 0 -97 -43.5t-34 -122.5z" />
<glyph unicode="&#xe6;" horiz-adv-x="1692" d="M76 217q0 107 41.5 177t140.5 112q55 24 211 71q143 42 176 60v135q0 85 -27 126.5t-69 41.5q-43 0 -80 -25q31 -72 31 -149q0 -81 -49 -114.5t-140 -33.5q-192 0 -192 166q0 109 131 176.5t334 67.5q219 0 319 -55q108 55 254 55q224 0 348.5 -114t124.5 -314v-65h-579 q0 -199 74.5 -300.5t217.5 -101.5q63 0 128.5 49.5t109.5 126.5l76 -63q-75 -132 -196.5 -207.5t-270.5 -75.5q-172 0 -283 49.5t-178 147.5h-4q-73 -97 -169.5 -146t-201.5 -49q-127 0 -202.5 68t-75.5 184zM459 291q0 -139 84 -139q25 0 58 13.5t42 31.5v344l-61 -39 q-123 -72 -123 -211zM1051 618l184 7q0 152 -22 234.5t-62 82.5q-43 0 -71.5 -89t-28.5 -235z" />
<glyph unicode="&#xe7;" horiz-adv-x="1061" d="M68 498q0 143 71.5 266.5t198.5 193.5t287 70q183 0 285 -69.5t102 -188.5q0 -85 -45.5 -133.5t-139.5 -48.5q-190 0 -190 151q0 54 9 97.5t16 78.5q-12 27 -48 27q-47 0 -72.5 -106t-25.5 -301q0 -184 58.5 -292t154.5 -108q71 0 126 42.5t106 141.5l81 -51 q-62 -148 -174.5 -226.5t-269.5 -78.5q-249 0 -389.5 143t-140.5 392zM355 -362q124 0 156 6.5t45.5 21t13.5 45.5q0 34 -27 46t-84 12v247h90v-110q122 0 181 -42.5t59 -117.5q0 -76 -38.5 -116t-127 -57t-268.5 -17v82z" />
<glyph unicode="&#xe8;" horiz-adv-x="1137" d="M68 498q0 147 66.5 269.5t188.5 191.5t279 69q227 0 350 -113t123 -315v-65h-579q0 -205 69.5 -303.5t212.5 -98.5q65 0 132.5 48t115.5 128l76 -63q-79 -135 -202.5 -209t-274.5 -74q-263 0 -410 142t-147 393zM244 1460q0 51 37 86t102 35q61 0 109.5 -30t103.5 -111 q108 -155 222 -303l-39 -45l-151 72q-258 118 -321 169t-63 127zM496 618l184 7q0 158 -25 237.5t-63 79.5q-46 0 -71 -88t-25 -236z" />
<glyph unicode="&#xe9;" horiz-adv-x="1137" d="M68 498q0 147 66.5 269.5t188.5 191.5t279 69q227 0 350 -113t123 -315v-65h-579q0 -205 69.5 -303.5t212.5 -98.5q65 0 132.5 48t115.5 128l76 -63q-79 -135 -202.5 -209t-274.5 -74q-263 0 -410 142t-147 393zM379 1137q102 134 221 303q48 71 96 106t117 35 q64 0 102 -34.5t38 -86.5t-25 -87.5t-82.5 -71.5t-277.5 -138l-150 -71zM496 618l184 7q0 158 -25 237.5t-63 79.5q-46 0 -71 -88t-25 -236z" />
<glyph unicode="&#xea;" horiz-adv-x="1137" d="M68 498q0 147 66.5 269.5t188.5 191.5t279 69q227 0 350 -113t123 -315v-65h-579q0 -205 69.5 -303.5t212.5 -98.5q65 0 132.5 48t115.5 128l76 -63q-79 -135 -202.5 -209t-274.5 -74q-263 0 -410 142t-147 393zM211 1126q119 213 154.5 270.5t60 92.5t62.5 49t91 14 q60 0 96.5 -15t61.5 -52q65 -99 217 -359l-49 -32l-326 241l-325 -241zM496 618l184 7q0 158 -25 237.5t-63 79.5q-46 0 -71 -88t-25 -236z" />
<glyph unicode="&#xeb;" horiz-adv-x="1137" d="M68 498q0 147 66.5 269.5t188.5 191.5t279 69q227 0 350 -113t123 -315v-65h-579q0 -205 69.5 -303.5t212.5 -98.5q65 0 132.5 48t115.5 128l76 -63q-79 -135 -202.5 -209t-274.5 -74q-263 0 -410 142t-147 393zM168 1360q0 85 50.5 142t127.5 57q74 0 126.5 -57.5 t52.5 -141.5q0 -87 -53 -143t-126 -56q-77 0 -127.5 57.5t-50.5 141.5zM496 618l184 7q0 158 -25 237.5t-63 79.5q-46 0 -71 -88t-25 -236zM647 1360q0 86 51 142.5t128 56.5q75 0 126.5 -58t51.5 -141q0 -86 -51.5 -142.5t-126.5 -56.5q-76 0 -127.5 57t-51.5 142z" />
<glyph unicode="&#xec;" horiz-adv-x="733" d="M12 1460q0 51 37 86t102 35q61 0 109.5 -30t103.5 -111q108 -155 222 -303l-39 -45l-151 72q-258 118 -321 169t-63 127zM25 901v80l538 27l17 -15v-788q0 -70 57 -101q22 -9 36.5 -15t37.5 -9v-80h-668v80q131 0 131 113v563q0 63 -45.5 98.5t-103.5 46.5z" />
<glyph unicode="&#xed;" horiz-adv-x="733" d="M25 901v80l538 27l17 -15v-788q0 -70 57 -101q22 -9 36.5 -15t37.5 -9v-80h-668v80q131 0 131 113v563q0 63 -45.5 98.5t-103.5 46.5zM143 1137q102 134 221 303q48 71 96 106t117 35q64 0 102 -34.5t38 -86.5t-25 -87.5t-82.5 -71.5t-277.5 -138l-150 -71z" />
<glyph unicode="&#xee;" horiz-adv-x="733" d="M-14 1126q119 213 154.5 270.5t60 92.5t62.5 49t91 14q60 0 96.5 -15t61.5 -52q65 -99 217 -359l-49 -32l-326 241l-325 -241zM25 901v80l538 27l17 -15v-788q0 -70 57 -101q22 -9 36.5 -15t37.5 -9v-80h-668v80q131 0 131 113v563q0 63 -45.5 98.5t-103.5 46.5z" />
<glyph unicode="&#xef;" horiz-adv-x="733" d="M-62 1360q0 85 50.5 142t127.5 57q74 0 126.5 -57.5t52.5 -141.5q0 -87 -53 -143t-126 -56q-77 0 -127.5 57.5t-50.5 141.5zM25 901v80l538 27l17 -15v-788q0 -70 57 -101q22 -9 36.5 -15t37.5 -9v-80h-668v80q131 0 131 113v563q0 63 -45.5 98.5t-103.5 46.5zM417 1360 q0 86 51 142.5t128 56.5q75 0 126.5 -58t51.5 -141q0 -86 -51.5 -142.5t-126.5 -56.5q-76 0 -127.5 57t-51.5 142z" />
<glyph unicode="&#xf0;" horiz-adv-x="1268" d="M68 510q0 151 61.5 274.5t171 191.5t242.5 68q78 0 134.5 -23t96.5 -77l10 2q-9 70 -40 153t-72 148l-180 -127l-62 86l178 127q-41 51 -143 125l45 90q170 -69 235 -114l181 127l63 -88l-141 -101q129 -106 199.5 -209t111.5 -231.5t41 -286.5q0 -321 -151.5 -500.5 t-421.5 -179.5q-250 0 -404.5 147t-154.5 398zM520 510q0 -262 26 -360.5t89 -98.5q117 0 117 445q0 228 -29 333t-88 105q-58 0 -86.5 -97.5t-28.5 -326.5z" />
<glyph unicode="&#xf1;" horiz-adv-x="1341" d="M29 901v80l534 27l15 -15v-151h4l56 64q103 118 265 118q139 0 217 -90.5t78 -255.5v-477q0 -64 29 -89t92 -32v-80h-592v80q39 0 49 20.5t10 92.5v438q0 106 -18.5 150t-67.5 44q-29 0 -62 -28.5t-60 -79.5v-514q0 -70 22 -99q10 -10 47 -24v-80h-602v80q65 0 97 22.5 t32 90.5v563q0 30 -16 63.5t-40.5 51t-88.5 30.5zM217 1141q59 151 147.5 242.5t180.5 91.5q65 0 117.5 -17.5t96 -39t80 -39t71.5 -17.5t57.5 10.5t38.5 34t49 106.5l80 -26q-43 -150 -129.5 -246t-183.5 -96q-103 0 -209 59q-105 58 -168 58q-41 0 -73 -31t-79 -125z" />
<glyph unicode="&#xf2;" horiz-adv-x="1272" d="M68 496q0 244 150 388t409 144q267 0 422 -142t155 -386q0 -246 -158 -390.5t-421 -144.5q-164 0 -291.5 65.5t-196.5 186t-69 279.5zM283 1460q0 51 37 86t102 35q61 0 109.5 -30t103.5 -111q108 -155 222 -303l-39 -45l-151 72q-258 118 -321 169t-63 127zM520 510 q0 -219 10.5 -298t34.5 -120t68 -41q61 0 90 97t29 358q0 181 -11.5 263.5t-37.5 127.5t-70 45t-67.5 -43.5t-34.5 -120.5t-11 -268z" />
<glyph unicode="&#xf3;" horiz-adv-x="1272" d="M68 496q0 244 150 388t409 144q267 0 422 -142t155 -386q0 -246 -158 -390.5t-421 -144.5q-164 0 -291.5 65.5t-196.5 186t-69 279.5zM479 1137q102 134 221 303q48 71 96 106t117 35q64 0 102 -34.5t38 -86.5t-25 -87.5t-82.5 -71.5t-277.5 -138l-150 -71zM520 510 q0 -219 10.5 -298t34.5 -120t68 -41q61 0 90 97t29 358q0 181 -11.5 263.5t-37.5 127.5t-70 45t-67.5 -43.5t-34.5 -120.5t-11 -268z" />
<glyph unicode="&#xf4;" horiz-adv-x="1272" d="M68 496q0 244 150 388t409 144q267 0 422 -142t155 -386q0 -246 -158 -390.5t-421 -144.5q-164 0 -291.5 65.5t-196.5 186t-69 279.5zM256 1126q119 213 154.5 270.5t60 92.5t62.5 49t91 14q60 0 96.5 -15t61.5 -52q65 -99 217 -359l-49 -32l-326 241l-325 -241zM520 510 q0 -219 10.5 -298t34.5 -120t68 -41q61 0 90 97t29 358q0 181 -11.5 263.5t-37.5 127.5t-70 45t-67.5 -43.5t-34.5 -120.5t-11 -268z" />
<glyph unicode="&#xf5;" horiz-adv-x="1272" d="M68 496q0 244 150 388t409 144q267 0 422 -142t155 -386q0 -246 -158 -390.5t-421 -144.5q-164 0 -291.5 65.5t-196.5 186t-69 279.5zM182 1141q59 151 147.5 242.5t180.5 91.5q65 0 117.5 -17.5t96 -39t80 -39t71.5 -17.5t57.5 10.5t38.5 34t49 106.5l80 -26 q-43 -150 -129.5 -246t-183.5 -96q-103 0 -209 59q-105 58 -168 58q-41 0 -73 -31t-79 -125zM520 510q0 -219 10.5 -298t34.5 -120t68 -41q61 0 90 97t29 358q0 181 -11.5 263.5t-37.5 127.5t-70 45t-67.5 -43.5t-34.5 -120.5t-11 -268z" />
<glyph unicode="&#xf6;" horiz-adv-x="1272" d="M68 496q0 244 150 388t409 144q267 0 422 -142t155 -386q0 -246 -158 -390.5t-421 -144.5q-164 0 -291.5 65.5t-196.5 186t-69 279.5zM209 1360q0 85 50.5 142t127.5 57q74 0 126.5 -57.5t52.5 -141.5q0 -87 -53 -143t-126 -56q-77 0 -127.5 57.5t-50.5 141.5zM520 510 q0 -219 10.5 -298t34.5 -120t68 -41q61 0 90 97t29 358q0 181 -11.5 263.5t-37.5 127.5t-70 45t-67.5 -43.5t-34.5 -120.5t-11 -268zM688 1360q0 86 51 142.5t128 56.5q75 0 126.5 -58t51.5 -141q0 -86 -51.5 -142.5t-126.5 -56.5q-76 0 -127.5 57t-51.5 142z" />
<glyph unicode="&#xf7;" horiz-adv-x="1526" d="M178 492v186h1170v-186h-1170zM575 174q0 81 55 138t134 57q75 0 129.5 -57t54.5 -138t-55 -136.5t-129 -55.5q-77 0 -133 55.5t-56 136.5zM575 991q0 83 56.5 140t132.5 57q73 0 128.5 -56.5t55.5 -140.5q0 -78 -55 -135t-129 -57q-76 0 -132.5 57t-56.5 135z" />
<glyph unicode="&#xf8;" horiz-adv-x="1272" d="M0 -47l193 184q-125 144 -125 359q0 242 151.5 387t407.5 145q117 0 216.5 -29.5t170.5 -83.5l203 197l61 -72l-195 -188q121 -142 121 -352q0 -157 -70.5 -278.5t-203 -189t-305.5 -67.5q-219 0 -365 111l-201 -195zM520 322q5 -130 30.5 -200.5t82.5 -70.5q61 0 90 102 t29 353v31zM520 451l230 215q-7 144 -36 210t-81 66q-58 0 -85.5 -95.5t-27.5 -336.5v-59z" />
<glyph unicode="&#xf9;" horiz-adv-x="1333" d="M0 903v78l545 27l10 -15v-653q0 -104 22 -147t66 -43q34 0 66.5 28.5t52.5 67.5v526q0 124 -113 131v78l508 27l10 -15v-764q0 -46 32.5 -84.5t117.5 -44.5v-77l-539 -33l-14 14v135h-6q-33 -35 -64 -66.5t-68.5 -55.5t-85 -38t-114.5 -14q-133 0 -207 94.5t-74 264.5 v436q0 40 -15 66.5t-39 45.5t-91 31zM295 1460q0 51 37 86t102 35q61 0 109.5 -30t103.5 -111q108 -155 222 -303l-39 -45l-151 72q-258 118 -321 169t-63 127z" />
<glyph unicode="&#xfa;" horiz-adv-x="1333" d="M0 903v78l545 27l10 -15v-653q0 -104 22 -147t66 -43q34 0 66.5 28.5t52.5 67.5v526q0 124 -113 131v78l508 27l10 -15v-764q0 -46 32.5 -84.5t117.5 -44.5v-77l-539 -33l-14 14v135h-6q-33 -35 -64 -66.5t-68.5 -55.5t-85 -38t-114.5 -14q-133 0 -207 94.5t-74 264.5 v436q0 40 -15 66.5t-39 45.5t-91 31zM391 1137q102 134 221 303q48 71 96 106t117 35q64 0 102 -34.5t38 -86.5t-25 -87.5t-82.5 -71.5t-277.5 -138l-150 -71z" />
<glyph unicode="&#xfb;" horiz-adv-x="1333" d="M0 903v78l545 27l10 -15v-653q0 -104 22 -147t66 -43q34 0 66.5 28.5t52.5 67.5v526q0 124 -113 131v78l508 27l10 -15v-764q0 -46 32.5 -84.5t117.5 -44.5v-77l-539 -33l-14 14v135h-6q-33 -35 -64 -66.5t-68.5 -55.5t-85 -38t-114.5 -14q-133 0 -207 94.5t-74 264.5 v436q0 40 -15 66.5t-39 45.5t-91 31zM279 1126q119 213 154.5 270.5t60 92.5t62.5 49t91 14q60 0 96.5 -15t61.5 -52q65 -99 217 -359l-49 -32l-326 241l-325 -241z" />
<glyph unicode="&#xfc;" horiz-adv-x="1333" d="M0 903v78l545 27l10 -15v-653q0 -104 22 -147t66 -43q34 0 66.5 28.5t52.5 67.5v526q0 124 -113 131v78l508 27l10 -15v-764q0 -46 32.5 -84.5t117.5 -44.5v-77l-539 -33l-14 14v135h-6q-33 -35 -64 -66.5t-68.5 -55.5t-85 -38t-114.5 -14q-133 0 -207 94.5t-74 264.5 v436q0 40 -15 66.5t-39 45.5t-91 31zM211 1360q0 85 50.5 142t127.5 57q74 0 126.5 -57.5t52.5 -141.5q0 -87 -53 -143t-126 -56q-77 0 -127.5 57.5t-50.5 141.5zM690 1360q0 86 51 142.5t128 56.5q75 0 126.5 -58t51.5 -141q0 -86 -51.5 -142.5t-126.5 -56.5 q-76 0 -127.5 57t-51.5 142z" />
<glyph unicode="&#xfd;" horiz-adv-x="1102" d="M-14 920v75h651v-73q-34 -3 -69.5 -19t-35.5 -33q0 -52 189 -477q139 369 139 451q0 32 -32.5 51t-82.5 23v77h385v-77q-56 -14 -83.5 -38t-53.5 -81q-96 -243 -346 -830q-91 -218 -190.5 -315.5t-225.5 -97.5q-83 0 -139.5 59t-56.5 147q0 81 42 133t113 52 q38 0 70.5 -14.5t61 -39t86.5 -100.5q22 22 54 67.5t54 94.5q-237 527 -397 854q-28 47 -57 75.5t-76 35.5zM411 1137q102 134 221 303q48 71 96 106t117 35q64 0 102 -34.5t38 -86.5t-25 -87.5t-82.5 -71.5t-277.5 -138l-150 -71z" />
<glyph unicode="&#xfe;" horiz-adv-x="1274" d="M-14 -367q82 14 106 25q49 16 49 98v1526q0 43 -19.5 77t-59 56t-74.5 29v76l547 28l14 -12v-651l6 -2q128 141 270 141q180 0 280.5 -146t100.5 -397q0 -137 -56.5 -254t-156 -185.5t-215.5 -68.5q-140 0 -225 68h-6v-264q0 -73 36 -99t146 -38l-2 -84h-741v77zM547 201 q10 -52 38.5 -88.5t63.5 -36.5q53 0 85 101.5t32 303.5q0 169 -33 265t-92 96q-26 0 -55 -17t-39 -43v-581z" />
<glyph unicode="&#xff;" horiz-adv-x="1102" d="M-14 920v75h651v-73q-34 -3 -69.5 -19t-35.5 -33q0 -52 189 -477q139 369 139 451q0 32 -32.5 51t-82.5 23v77h385v-77q-56 -14 -83.5 -38t-53.5 -81q-96 -243 -346 -830q-91 -218 -190.5 -315.5t-225.5 -97.5q-83 0 -139.5 59t-56.5 147q0 81 42 133t113 52 q38 0 70.5 -14.5t61 -39t86.5 -100.5q22 22 54 67.5t54 94.5q-237 527 -397 854q-28 47 -57 75.5t-76 35.5zM170 1360q0 85 50.5 142t127.5 57q74 0 126.5 -57.5t52.5 -141.5q0 -87 -53 -143t-126 -56q-77 0 -127.5 57.5t-50.5 141.5zM649 1360q0 86 51 142.5t128 56.5 q75 0 126.5 -58t51.5 -141q0 -86 -51.5 -142.5t-126.5 -56.5q-76 0 -127.5 57t-51.5 142z" />
<glyph unicode="&#x152;" horiz-adv-x="2152" d="M61 702q0 219 105.5 380t306.5 249t422 88h1118v-377h-74q-21 57 -65 117.5t-94.5 102t-97 51.5t-115.5 10h-105v-541h11q108 0 180 64q19 19 47.5 85.5t34.5 106.5h73v-616h-73q-8 43 -35.5 111.5t-46.5 89.5q-65 65 -180 65h-11v-399q0 -77 8 -118t26 -58t60 -17 q224 0 281 54q50 56 114 160.5t81 148.5h71l-24 -459h-1159q-242 0 -447.5 91.5t-308.5 248.5t-103 362zM571 702q0 -290 104.5 -448t295.5 -158q41 0 57 4v1221h-45q-192 0 -302 -165.5t-110 -453.5z" />
<glyph unicode="&#x153;" horiz-adv-x="1802" d="M70 496q0 243 147 387.5t401 144.5q188 0 326 -96q132 96 324 96q224 0 348.5 -114t124.5 -314v-65h-580q0 -196 74.5 -299t218.5 -103q63 0 129.5 50.5t108.5 125.5l75 -63q-74 -130 -201 -206.5t-278 -76.5q-213 0 -348 92q-136 -90 -324 -90q-160 0 -286 66 t-193 186.5t-67 278.5zM522 510q0 -217 10.5 -297t34 -121t66.5 -41q61 0 90 97t29 358q0 181 -11.5 263.5t-37.5 127.5t-70 45q-42 0 -66 -43t-34.5 -119.5t-10.5 -269.5zM1161 618l185 7q0 152 -22 234.5t-62 82.5q-44 0 -72.5 -89t-28.5 -235z" />
<glyph unicode="&#x178;" horiz-adv-x="1489" d="M-90 1337v82h868v-82l-55 -3q-107 -6 -107 -50q0 -31 77.5 -206.5t176.5 -372.5q118 207 201.5 375.5t83.5 199.5q0 48 -139 57v82h481v-82q-28 -4 -49 -11t-57 -30q-74 -49 -151 -167t-239 -418q-52 -96 -67.5 -160.5t-15.5 -175.5v-152q0 -78 55 -103t127 -38v-82h-797 v82q102 8 142 35.5t40 95.5v166q0 86 -27 168.5t-151.5 347.5t-168.5 319t-102.5 86.5t-125.5 36.5zM328 1718q0 84 51.5 141.5t130.5 57.5q77 0 131 -57t54 -142q0 -84 -54 -141t-131 -57q-79 0 -130.5 58t-51.5 140zM862 1718q0 84 51.5 141.5t131.5 57.5q77 0 130.5 -58 t53.5 -141q0 -84 -54 -141t-130 -57q-79 0 -131 57t-52 141z" />
<glyph unicode="&#x2c6;" horiz-adv-x="973" d="M115 1126q119 213 154.5 270.5t60 92.5t62.5 49t91 14q60 0 96.5 -15t61.5 -52q65 -99 217 -359l-49 -32l-326 241l-325 -241z" />
<glyph unicode="&#x2dc;" horiz-adv-x="973" d="M20 1141q59 151 147.5 242.5t180.5 91.5q65 0 117.5 -17.5t96 -39t80 -39t71.5 -17.5t57.5 10.5t38.5 34t49 106.5l80 -26q-43 -150 -129.5 -246t-183.5 -96q-103 0 -209 59q-105 58 -168 58q-41 0 -73 -31t-79 -125z" />
<glyph unicode="&#x2000;" horiz-adv-x="964" />
<glyph unicode="&#x2001;" horiz-adv-x="1929" />
<glyph unicode="&#x2002;" horiz-adv-x="964" />
<glyph unicode="&#x2003;" horiz-adv-x="1929" />
<glyph unicode="&#x2004;" horiz-adv-x="643" />
<glyph unicode="&#x2005;" horiz-adv-x="482" />
<glyph unicode="&#x2006;" horiz-adv-x="321" />
<glyph unicode="&#x2007;" horiz-adv-x="321" />
<glyph unicode="&#x2008;" horiz-adv-x="241" />
<glyph unicode="&#x2009;" horiz-adv-x="385" />
<glyph unicode="&#x200a;" horiz-adv-x="107" />
<glyph unicode="&#x2010;" horiz-adv-x="743" d="M82 414v264h580v-264h-580z" />
<glyph unicode="&#x2011;" horiz-adv-x="743" d="M82 414v264h580v-264h-580z" />
<glyph unicode="&#x2012;" horiz-adv-x="743" d="M82 414v264h580v-264h-580z" />
<glyph unicode="&#x2013;" horiz-adv-x="1444" d="M106 492v186h1231v-186h-1231z" />
<glyph unicode="&#x2014;" horiz-adv-x="1917" d="M106 492v186h1704v-186h-1704z" />
<glyph unicode="&#x2018;" horiz-adv-x="610" d="M53 1036q0 85 52 182t143 177t211 131l51 -80q-128 -55 -203 -143.5t-86 -200.5h62q125 0 190.5 -50.5t65.5 -150.5q0 -76 -61.5 -133t-147.5 -57q-131 0 -204 86t-73 239z" />
<glyph unicode="&#x2019;" horiz-adv-x="610" d="M70 1339q0 75 63 133t150 58q130 0 202 -86t72 -238q0 -87 -51.5 -184.5t-143.5 -178.5t-208 -128l-50 80q127 58 202 148.5t83 197.5h-61q-258 0 -258 198z" />
<glyph unicode="&#x201a;" horiz-adv-x="610" d="M33 198q0 75 63 133t150 58q130 0 202 -86t72 -238q0 -87 -51.5 -184.5t-143.5 -178.5t-208 -128l-50 80q127 58 202 148.5t83 197.5h-61q-258 0 -258 198z" />
<glyph unicode="&#x201c;" horiz-adv-x="1219" d="M68 1036q0 86 51.5 182.5t143.5 177.5t210 130l51 -80q-127 -55 -202 -144.5t-86 -199.5h61q125 0 191.5 -50t66.5 -151q0 -76 -62.5 -133t-150.5 -57q-130 0 -202 86t-72 239zM647 1036q0 86 51.5 182.5t143 177t211.5 130.5l47 -80q-127 -55 -200.5 -145.5 t-82.5 -198.5h60q125 0 191.5 -51t66.5 -150q0 -76 -63.5 -133t-149.5 -57q-131 0 -203 87t-72 238z" />
<glyph unicode="&#x201d;" horiz-adv-x="1219" d="M84 1339q0 75 63 133t150 58q130 0 202 -86t72 -238q0 -87 -51.5 -184.5t-143.5 -178.5t-208 -128l-49 80q128 58 201.5 148.5t82.5 197.5h-59q-260 0 -260 198zM664 1339q0 76 62.5 133.5t150.5 57.5q130 0 203 -86t73 -238q0 -87 -51 -183.5t-142.5 -177t-211.5 -130.5 l-54 80q130 57 205 147.5t84 198.5h-59q-260 0 -260 198z" />
<glyph unicode="&#x201e;" horiz-adv-x="1219" d="M47 198q0 75 63 133t150 58q130 0 202 -86t72 -238q0 -87 -51.5 -184.5t-143.5 -178.5t-208 -128l-49 80q128 58 201.5 148.5t82.5 197.5h-59q-260 0 -260 198zM627 198q0 76 62.5 133.5t150.5 57.5q130 0 203 -86t73 -238q0 -87 -51 -183.5t-142.5 -177t-211.5 -130.5 l-54 80q130 57 205 147.5t84 198.5h-59q-260 0 -260 198z" />
<glyph unicode="&#x2022;" horiz-adv-x="961" d="M123 614q0 149 103.5 254t254.5 105q96 0 179.5 -48t131.5 -132t48 -179t-49 -178t-132 -129.5t-178 -46.5q-96 0 -178.5 46t-131 128.5t-48.5 179.5z" />
<glyph unicode="&#x2026;" horiz-adv-x="2122" d="M143 193q0 93 70 160t166 67q93 0 163 -67t70 -160q0 -94 -69.5 -161t-163.5 -67q-98 0 -167 67t-69 161zM852 193q0 92 69.5 159.5t165.5 67.5q94 0 163 -68t69 -159q0 -94 -68.5 -161t-163.5 -67q-99 0 -167 67.5t-68 160.5zM1559 193q0 92 69.5 159.5t163.5 67.5 t165 -66.5t71 -160.5q0 -95 -70.5 -161.5t-165.5 -66.5q-96 0 -164.5 67t-68.5 161z" />
<glyph unicode="&#x202f;" horiz-adv-x="385" />
<glyph unicode="&#x2039;" horiz-adv-x="702" d="M113 559q0 50 8.5 81t26.5 56t89 86.5t160.5 128.5t169.5 125l49 -45l-223 -438l223 -428l-49 -45q-179 126 -285.5 216t-127.5 117.5t-31 60t-10 85.5z" />
<glyph unicode="&#x203a;" horiz-adv-x="702" d="M86 125l223 428l-223 438l49 45q181 -131 260.5 -195.5t122 -104.5t57.5 -79t15 -98q0 -67 -19 -108.5t-63 -79.5q-162 -146 -373 -291z" />
<glyph unicode="&#x205f;" horiz-adv-x="482" />
<glyph unicode="&#x20ac;" horiz-adv-x="1327" d="M0 514l45 129h76q-4 16 -4 62l4 79h-121l45 127h96q41 261 210 405t425 144q71 0 164 -25.5t154 -62.5l63 47h76l12 -526h-86q-70 236 -152.5 349.5t-185.5 113.5q-102 0 -152.5 -102.5t-62.5 -342.5h305l-45 -127h-264l-1 -77l3 -64h211l-45 -129h-156 q14 -209 76.5 -302t179.5 -93q99 0 182.5 70.5t164.5 220.5l90 -56q-106 -208 -241.5 -302.5t-305.5 -94.5q-251 0 -411 142t-214 415h-135z" />
<glyph unicode="&#x2122;" horiz-adv-x="1823" d="M96 1214v205h639v-205h-49q-16 53 -45 93t-53 43q-6 4 -64 4h-12v-498q0 -30 20 -42.5t76 -22.5v-58h-385v58q56 8 70 14.5t19.5 21t5.5 20.5l-1 3v504h-14q-51 0 -67 -8t-34.5 -29.5t-34 -50t-22.5 -52.5h-49zM776 733v60q68 10 89 21t27.5 41.5t6.5 86.5v324 q0 85 -115 96v57h351l149 -420l117 316l33 104h333v-57q-65 -6 -84 -16q-20 -18 -20 -43v-451q0 -31 15 -42t89 -19v-58h-397v58q61 6 78.5 20.5t19.5 40.5v434h-8l-198 -530h-82l-193 540h-6v-354q0 -40 4.5 -65t15.5 -42.5t44 -28.5t63 -15v-58h-332z" />
<glyph unicode="&#x25fc;" horiz-adv-x="995" d="M0 0v995h995v-995h-995z" />
</font>
</defs>
</svg>
