<?xml version="1.0" standalone="no"?>
<!DOCTYPE svg PUBLIC "-//W3C//DTD SVG 1.1//EN" "http://www.w3.org/Graphics/SVG/1.1/DTD/svg11.dtd" >
<svg xmlns="http://www.w3.org/2000/svg">
<metadata></metadata>
<defs>
<font id="georgiaitalic" horiz-adv-x="1255" >
<font-face units-per-em="2048" ascent="1638" descent="-410" />
<missing-glyph horiz-adv-x="479" />
<glyph unicode="&#xfb01;" horiz-adv-x="1071" d="M-332 -350q0 29 18.5 52.5t61.5 23.5q29 0 54.5 -17.5t62.5 -70.5q92 5 160.5 104t107.5 281l184 874h-194l18 84h195q40 174 84 257.5t118 156.5t163.5 113t172.5 40q207 0 207 -118q0 -33 -19.5 -52.5t-49.5 -19.5q-81 0 -140 121h-24q-143 0 -238 -103.5t-139 -302.5 l-20 -92h274l246 8l10 -12l-154 -655q-30 -140 -30 -170q0 -42 26 -56t64 -14q67 0 119 16l-11 -53q-114 -61 -217 -61q-108 0 -108 112q0 45 18 117l146 600q6 28 6 47q0 21 -4 37h-404l-176 -838q-30 -141 -99 -256t-165.5 -181t-204.5 -66q-52 0 -85.5 27t-33.5 67z" />
<glyph unicode="&#xfb02;" horiz-adv-x="1112" d="M-332 -350q0 29 18.5 52.5t61.5 23.5q29 0 54.5 -17.5t62.5 -70.5q92 5 160.5 104t107.5 281l184 874h-194l18 84h195q37 166 81.5 254.5t122 162.5t167 112t170.5 38q42 0 78 -7t92 -34l69 41l10 -12l-282 -1223q-29 -118 -29 -163q0 -68 86 -68q83 0 123 16l-10 -53 q-41 -25 -105.5 -43t-109.5 -18q-111 0 -111 110q0 41 19 117l249 1081q15 66 15 109q0 36 -32 58t-91 22q-289 0 -381 -424l-16 -76h251l-22 -84h-248l-176 -838q-30 -141 -99 -256t-165.5 -181t-204.5 -66q-52 0 -85.5 27t-33.5 67z" />
<glyph unicode="&#xfb03;" horiz-adv-x="1606" d="M-332 -350q0 29 18.5 52.5t61.5 23.5q29 0 54.5 -17.5t62.5 -70.5q92 5 160.5 104t107.5 281l184 874h-194l18 84h195q58 252 188 389t291 137q50 0 84.5 -23t34.5 -61q0 -35 -20.5 -60.5t-55.5 -25.5q-68 0 -129 93q-184 -13 -266 -392l-12 -57h419l9 35 q34 146 78.5 228t119 154.5t162.5 111t170 38.5q207 0 207 -118q0 -26 -17.5 -49t-52.5 -23q-45 0 -78 32t-61 89h-25q-286 0 -376 -406l-21 -92h275l245 8l11 -12l-154 -655q-31 -145 -31 -170q0 -42 26 -56t64 -14q67 0 119 16l-10 -53q-116 -61 -217 -61q-109 0 -109 112 q0 41 19 117l145 600q6 28 6 47q0 21 -4 37h-403l-168 -799q-29 -140 -98.5 -256t-166.5 -182t-204 -66q-48 0 -83.5 26.5t-35.5 68.5q0 29 18 52t62 23q29 0 54.5 -17.5t62.5 -70.5q94 7 162 106.5t106 278.5l176 836h-420l-176 -838q-30 -141 -99 -256t-165.5 -181 t-204.5 -66q-52 0 -85.5 27t-33.5 67z" />
<glyph unicode="&#xfb04;" horiz-adv-x="1647" d="M-332 -350q0 29 18.5 52.5t61.5 23.5q29 0 54.5 -17.5t62.5 -70.5q92 5 160.5 104t107.5 281l184 874h-194l18 84h195q58 252 188 389t291 137q50 0 84.5 -23t34.5 -61q0 -35 -20.5 -60.5t-55.5 -25.5q-68 0 -129 93q-184 -13 -266 -392l-12 -57h419l7 27 q32 141 76.5 229t122.5 162.5t166.5 111.5t168.5 37q44 0 81 -7.5t89 -33.5l70 41l10 -12l-283 -1223q-28 -114 -28 -163q0 -68 86 -68q83 0 123 16l-11 -53q-41 -25 -105.5 -43t-109.5 -18q-110 0 -110 110q0 45 18 117l250 1081q14 61 14 109q0 38 -32.5 59t-90.5 21 q-289 0 -381 -424l-16 -76h252l-23 -84h-247l-168 -799q-29 -140 -98.5 -256t-166.5 -182t-204 -66q-48 0 -83.5 26.5t-35.5 68.5q0 29 18 52t62 23q29 0 54.5 -17.5t62.5 -70.5q94 7 162 106.5t106 278.5l176 836h-420l-176 -838q-30 -141 -99 -256t-165.5 -181t-204.5 -66 q-52 0 -85.5 27t-33.5 67z" />
<glyph horiz-adv-x="2048" />
<glyph horiz-adv-x="2048" />
<glyph unicode="&#xd;" horiz-adv-x="479" />
<glyph unicode=" "  horiz-adv-x="479" />
<glyph unicode="&#x09;" horiz-adv-x="479" />
<glyph unicode="&#xa0;" horiz-adv-x="479" />
<glyph unicode="!" horiz-adv-x="631" d="M141 94q0 46 31.5 79.5t77.5 33.5t77 -34t31 -79q0 -47 -32 -78.5t-76 -31.5q-47 0 -78 31t-31 79zM270 416l58 344q72 452 100 598q9 49 40.5 75.5t78.5 26.5q40 0 61 -21t21 -57q0 -41 -30.5 -147t-113.5 -353l-155 -466h-60z" />
<glyph unicode="&#x22;" horiz-adv-x="743" d="M279 1038l6 155q4 155 10 214.5t19 79.5t33.5 31.5t51.5 11.5q70 0 70 -70q0 -38 -43 -160l-90 -262h-57zM604 1038l7 155q7 220 13.5 256.5t31.5 58.5t65 22q38 0 56 -20.5t18 -49.5q0 -38 -81 -271l-50 -151h-60z" />
<glyph unicode="#" d="M147 391l41 105h215l93 247h-256l43 105h249l138 373h92l-139 -373h211l139 373h90l-137 -373h219l-43 -105h-213l-92 -247h254l-39 -105h-250l-146 -391h-94l144 391h-209l-142 -391h-94l144 391h-218zM489 494h218l96 249h-219z" />
<glyph unicode="$" horiz-adv-x="1217" d="M133 244q0 69 35 113t84 44q31 0 50.5 -20.5t19.5 -46.5q0 -63 -91 -131q25 -136 238 -154l133 563l-78 31q-231 92 -231 281q0 163 133.5 265.5t335.5 106.5l53 228h72l-56 -234q86 -12 153.5 -45.5t106.5 -81.5t39 -98q0 -55 -27 -97t-67 -42q-38 0 -58 20t-20 43 q0 49 56 127q-5 35 -62 67.5t-135 39.5l-121 -516l23 -9q313 -110 313 -317q0 -106 -66.5 -198.5t-184 -146.5t-255.5 -54l-65 -281h-72l66 276q-140 9 -231 83.5t-91 183.5zM430 963q0 -83 45 -135.5t156 -90.5l114 488q-152 -3 -233.5 -73.5t-81.5 -188.5zM543 47l25 -1 q141 0 227 81t86 215q0 86 -47.5 139.5t-165.5 100.5z" />
<glyph unicode="%" horiz-adv-x="1610" d="M41 0l1460 1421h139l-1462 -1421h-137zM184 973q0 133 54.5 245.5t144 171t203.5 58.5q120 0 184 -67.5t64 -194.5q0 -131 -51 -240.5t-143 -171t-206 -61.5q-120 0 -185 65t-65 195zM307 977q0 -93 37 -146t102 -53q73 0 134.5 54.5t99 151t37.5 200.5q0 94 -39 147 t-105 53q-117 0 -191.5 -116t-74.5 -291zM842 231q0 126 53 239.5t144 175t206 61.5q118 0 182 -66.5t64 -196.5q0 -133 -50.5 -242.5t-140.5 -170t-206 -60.5q-122 0 -187 65t-65 195zM963 231q0 -88 38.5 -141t106.5 -53q72 0 133 57t96 153.5t35 194.5q0 94 -36.5 146.5 t-104.5 52.5q-76 0 -137.5 -53.5t-96 -148.5t-34.5 -208z" />
<glyph unicode="&#x26;" horiz-adv-x="1403" d="M20 305q0 105 38 185t120 149.5t254 159.5q-53 99 -73.5 166t-20.5 145q0 94 51 173.5t140 123t194 43.5q120 0 194 -65.5t74 -174.5q0 -84 -41.5 -150t-123 -124t-265.5 -141q109 -193 303 -465q79 86 143.5 183t88.5 156.5t24 94.5q0 26 -39 43t-116 31l16 61h522 l-16 -61q-78 -8 -126.5 -25t-84 -45t-82.5 -97q-127 -185 -182 -258t-113 -132q25 -40 69.5 -94.5t73.5 -73.5q25 -20 86 -36t115 -18l-16 -59h-281l-129 193q-122 -126 -226 -177t-210 -51q-161 0 -261 96t-100 244zM178 336q0 -114 66 -187t176 -73q94 0 188 44.5 t174 127.5l-77 113q-178 258 -248 384q-131 -65 -205 -170t-74 -239zM451 1122q0 -59 18.5 -118t69.5 -158q178 78 255.5 163t77.5 199q0 79 -46.5 122.5t-125.5 43.5q-107 0 -178 -69t-71 -183z" />
<glyph unicode="'" horiz-adv-x="385" d="M262 1038l6 155q4 151 9.5 210t18 80t34 34t53.5 13q70 0 70 -70q0 -46 -82 -271l-52 -151h-57z" />
<glyph unicode="(" horiz-adv-x="694" d="M115 260q0 337 90 621.5t251.5 453.5t372.5 197l-10 -78q-163 -27 -295 -196t-211.5 -454t-79.5 -591q0 -210 66 -330.5t197 -144.5l-17 -66q-364 40 -364 588z" />
<glyph unicode=")" horiz-adv-x="694" d="M-72 -328l11 74q162 29 294.5 199.5t210.5 456t78 589.5q0 427 -260 475l17 66q364 -45 364 -588q0 -337 -90.5 -622t-253 -453.5t-371.5 -196.5z" />
<glyph unicode="*" horiz-adv-x="956" d="M215 1108q0 61 64 61q15 0 43 -6q178 -38 262 -47q-46 66 -84 109t-65.5 73t-42.5 52t-15 47t20 41t43 16q36 0 56 -35q10 -17 38 -107q35 -112 68 -184q39 82 71 184l21 66q23 76 68 76q26 0 47.5 -16t21.5 -41q0 -24 -15.5 -46t-43 -52.5t-65.5 -73.5t-84 -109 q67 7 193 33q97 20 112 20q28 0 46.5 -15t18.5 -46q0 -64 -65 -64q-17 0 -112 22q-108 25 -193 34q47 -66 85.5 -109t65.5 -73t42 -52t15 -47t-21.5 -41t-47.5 -16q-45 0 -68 77q-50 165 -92 251q-32 -70 -68 -184q-29 -95 -39 -111t-23.5 -24.5t-31.5 -8.5q-23 0 -43 16 t-20 41t15 47t42.5 52t65.5 73t84 109q-84 -9 -194 -34q-97 -22 -111 -22q-64 0 -64 64z" />
<glyph unicode="+" d="M164 500v106h438v438h109v-438h438v-106h-438v-443h-109v443h-438z" />
<glyph unicode="," horiz-adv-x="494" d="M-4 -270q214 121 268 274h-41q-42 0 -66 25t-24 69q0 48 32 78.5t85 30.5q115 0 115 -125q0 -77 -38.5 -152t-109.5 -137.5t-144 -102.5l-46 -26z" />
<glyph unicode="-" horiz-adv-x="762" d="M88 487l27 117h590l-27 -117h-590z" />
<glyph unicode="." horiz-adv-x="494" d="M137 88q0 47 29 78t74 31q46 0 76 -31t30 -78q0 -45 -30 -74.5t-76 -29.5q-45 0 -74 29.5t-29 74.5z" />
<glyph unicode="/" horiz-adv-x="956" d="M-100 -424l1032 1948h117l-1033 -1948h-116z" />
<glyph unicode="0" horiz-adv-x="1126" d="M96 416q0 177 56 382t145 349.5t207 221.5t260 77q169 0 257.5 -113.5t88.5 -326.5q0 -225 -86 -494t-228.5 -407t-334.5 -138q-178 0 -271.5 116.5t-93.5 332.5zM236 373q0 -166 59 -250t172 -84q135 0 241.5 133t184.5 401.5t78 466.5q0 334 -211 334 q-138 0 -252.5 -135t-193 -397.5t-78.5 -468.5z" />
<glyph unicode="1" horiz-adv-x="1126" d="M117 0l14 61l55 4q97 6 139 13.5t66.5 34.5t34.5 69l258 1090h-281l17 74h115q167 0 274 100h45l-19 -72l-59 -233l-219 -938l-6 -41q0 -34 18.5 -55t58 -29t177.5 -17l-17 -61h-671z" />
<glyph unicode="2" horiz-adv-x="1126" d="M18 0l25 111q76 122 187 231.5t294 239.5q186 130 261 207.5t116 162.5t41 189q0 107 -58.5 168t-164.5 61q-88 0 -156 -29.5t-106 -80.5q2 -53 2 -70q0 -69 -30 -114.5t-93 -45.5q-37 0 -57.5 19.5t-20.5 56.5q0 86 68.5 165t179.5 127t223 48q160 0 256 -81t96 -226 q0 -113 -36 -194t-127.5 -169.5t-317.5 -238.5q-167 -112 -270.5 -208t-171.5 -204h766l-29 -125h-877z" />
<glyph unicode="3" horiz-adv-x="1126" d="M62 209q0 68 34 112t87 44q34 0 55 -20t21 -46q0 -45 -22.5 -81t-51.5 -68q23 -49 98.5 -78t171.5 -29q109 0 201.5 59t145 162.5t52.5 225.5q0 211 -256 211h-139l23 96h110q86 0 161 51t118 139t43 189q0 192 -186 192q-81 0 -152.5 -29.5t-110.5 -78.5q9 -54 9 -88 q0 -146 -115 -146q-38 0 -61 22t-23 68q0 74 66 152.5t173.5 126t231.5 47.5q98 0 164.5 -36t102.5 -99t36 -140q0 -294 -336 -397l-4 -10q129 -18 200.5 -92t71.5 -189q0 -143 -71 -259t-199 -181t-283 -65q-148 0 -257 68t-109 167z" />
<glyph unicode="4" horiz-adv-x="1126" d="M51 451l29 110l895 879h67l-202 -877h225l-29 -112h-223l-100 -451h-129l106 451h-639zM186 563h531l153 672z" />
<glyph unicode="5" horiz-adv-x="1126" d="M53 217q0 60 31 97.5t84 37.5q37 0 57.5 -20t20.5 -47q0 -67 -72 -142q23 -35 83.5 -61.5t164.5 -26.5q113 0 211 66t154.5 180t56.5 248q0 122 -69.5 192t-184.5 70q-170 0 -297 -127l-60 27l228 708h647l-33 -127h-569l-154 -469q143 88 285 88q98 0 176 -42 t121 -120.5t43 -181.5q0 -159 -75.5 -292.5t-211.5 -211t-289 -77.5q-156 0 -252 65.5t-96 165.5z" />
<glyph unicode="6" horiz-adv-x="1126" d="M123 422q0 243 118 465.5t327 374t458 190.5l-4 -80l-80 -18q-218 -59 -389.5 -219t-243.5 -375q191 143 383 143q139 0 234.5 -102t95.5 -258q0 -152 -70.5 -285t-193.5 -211t-263 -78q-176 0 -274 117.5t-98 335.5zM256 414q0 -184 65.5 -278.5t192.5 -94.5 q100 0 187 62.5t137 171.5t50 233q0 140 -69 219.5t-191 79.5q-174 0 -333 -135q-14 -30 -26.5 -104.5t-12.5 -153.5z" />
<glyph unicode="7" horiz-adv-x="1126" d="M129 0l956 1309h-432q-80 0 -137.5 -3.5t-95.5 -17.5q-31 -11 -69 -66.5t-70 -142.5h-62l78 340h958l-6 -33l-1007 -1386h-113z" />
<glyph unicode="8" horiz-adv-x="1126" d="M71 299q0 147 90.5 256t290.5 199q-85 62 -130.5 128t-45.5 152q0 112 65 209.5t179.5 154t247.5 56.5q156 0 243.5 -83t87.5 -216q0 -128 -81.5 -240.5t-233.5 -191.5q116 -65 167.5 -140.5t51.5 -166.5q0 -118 -70.5 -222.5t-195.5 -165.5t-279 -61q-177 0 -282 91.5 t-105 240.5zM200 309q0 -122 78.5 -197t208.5 -75q170 0 280.5 98t110.5 250q0 73 -31 124.5t-99 96t-234 113.5q-314 -132 -314 -410zM397 1081q0 -109 74 -183t252 -140q119 54 186.5 164.5t67.5 240.5q0 98 -67 160.5t-167 62.5q-91 0 -172 -41t-127.5 -112t-46.5 -152z " />
<glyph unicode="9" horiz-adv-x="1126" d="M153 -37v88l89 13q481 133 636 571q-176 -131 -383 -131q-142 0 -231.5 101t-89.5 255q0 145 74 282.5t196 215.5t256 78q170 0 271.5 -115.5t101.5 -310.5q0 -258 -125 -492.5t-337.5 -381.5t-457.5 -173zM305 875q0 -127 70.5 -200t189.5 -73q190 0 336 123 q37 114 37 299q0 155 -68.5 249.5t-187.5 94.5q-102 0 -186.5 -64.5t-137.5 -186.5t-53 -242z" />
<glyph unicode=":" horiz-adv-x="805" d="M188 88q0 47 32.5 78t74.5 31q45 0 75.5 -31.5t30.5 -77.5q0 -45 -30.5 -74.5t-75.5 -29.5q-43 0 -75 29.5t-32 74.5zM369 883q0 45 31 73.5t73 28.5q43 0 76 -28.5t33 -73.5q0 -47 -31.5 -78t-77.5 -31q-43 0 -73.5 30.5t-30.5 78.5z" />
<glyph unicode=";" horiz-adv-x="805" d="M55 -270q216 126 269 274h-41q-44 0 -68.5 25t-24.5 69q0 47 33 78t86 31q115 0 115 -125q0 -113 -79.5 -215t-213.5 -177l-45 -26zM369 883q0 45 31 73.5t73 28.5q43 0 76 -28.5t33 -73.5q0 -47 -31.5 -78t-77.5 -31q-43 0 -73.5 30.5t-30.5 78.5z" />
<glyph unicode="&#x3c;" d="M209 502v100l889 471v-110l-758 -412l758 -410v-110z" />
<glyph unicode="=" d="M164 324v106h979v-106h-979zM164 672v110h979v-110h-979z" />
<glyph unicode="&#x3e;" d="M207 31v110l764 410l-764 412v110l889 -471v-100z" />
<glyph unicode="?" horiz-adv-x="909" d="M176 94q0 47 32.5 80t76.5 33q47 0 78.5 -33.5t31.5 -79.5q0 -48 -31 -79t-79 -31q-44 0 -76.5 31.5t-32.5 78.5zM242 1198q0 57 46 117.5t125 98.5t175 38q164 0 254 -85.5t90 -236.5q0 -211 -133.5 -350.5t-370.5 -177.5l-78 -254h-80l82 375q443 43 443 424 q0 110 -57 173.5t-163 63.5q-35 0 -74 -12t-61 -26q-9 -106 -25 -138.5t-40 -49.5t-64 -17q-35 0 -52 18.5t-17 38.5z" />
<glyph unicode="@" horiz-adv-x="1847" d="M203 477q0 240 116.5 447.5t316 325.5t441.5 118q193 0 339 -79.5t227 -231.5t81 -340q0 -160 -58.5 -292.5t-163.5 -206t-234 -73.5q-76 0 -127 49t-51 130h-11q-44 -80 -111 -128.5t-132 -48.5q-95 0 -152 75.5t-57 195.5q0 125 64.5 253.5t164.5 203.5t207 75 q61 0 106.5 -37.5t59.5 -101.5h8l47 127h113l-185 -532q-18 -56 -18 -109q0 -48 22 -74t76 -26q94 0 176.5 67.5t129.5 189t47 273.5q0 164 -70.5 294.5t-200.5 201.5t-305 71q-199 0 -371.5 -108.5t-267 -293.5t-94.5 -411q0 -222 82.5 -384.5t234 -248.5t351.5 -86 q152 0 268.5 40t216.5 122l31 -43q-96 -86 -228.5 -138t-296.5 -52q-224 0 -411 104t-284 282t-97 400zM754 410q0 -90 25.5 -141.5t76.5 -51.5q67 0 128 52.5t128 174.5l96 289q-15 91 -52.5 130.5t-96.5 39.5q-74 0 -142 -66.5t-115.5 -190t-47.5 -236.5z" />
<glyph unicode="A" horiz-adv-x="1284" d="M-152 0l13 61q87 7 151.5 50.5t112.5 126.5l772 1202h18l177 -1227q12 -78 63 -113t107 -39l-13 -61h-489l12 61q95 12 126 20.5t47 23t16 38.5q0 34 -9 95l-32 264h-531l-143 -238q-51 -92 -51 -125q0 -31 50.5 -52.5t133.5 -25.5l-12 -61h-519zM434 578h473l-84 614z " />
<glyph unicode="B" horiz-adv-x="1272" d="M-8 0l12 61l37 3q93 7 124.5 31t45.5 83l246 1057q6 30 6 49q0 31 -50.5 49t-109.5 25l12 61h590q79 0 159.5 -33.5t121.5 -88.5t41 -126q0 -151 -104.5 -259.5t-288.5 -147.5l2 -2q161 -27 249.5 -108t88.5 -197q0 -91 -42.5 -173t-118 -144t-176.5 -101t-182 -39h-663z M358 168q0 -50 57 -77.5t169 -27.5q119 0 213.5 53.5t154.5 161.5t60 214q0 96 -86 160.5t-211 64.5l-240 -4l-104 -457q-13 -57 -13 -88zM494 784h174q119 0 208 49t138 137.5t49 194.5q0 89 -64.5 138t-183.5 49l-194 -4z" />
<glyph unicode="C" horiz-adv-x="1280" d="M109 522q0 238 108 454t293.5 345t390.5 129q231 0 371 -104l47 73h78l-109 -499h-69v51q0 150 -35.5 235t-108.5 125.5t-178 40.5q-165 0 -314 -108.5t-232 -291t-83 -399.5q0 -143 53.5 -260.5t149 -182t215.5 -64.5q145 0 270 86.5t207 236.5l66 -37 q-115 -198 -262 -289.5t-336 -91.5q-151 0 -270 70.5t-185.5 197.5t-66.5 283z" />
<glyph unicode="D" horiz-adv-x="1446" d="M-14 0l12 61q109 6 145 21q50 21 68 96l246 1057q6 30 6 49q0 31 -50.5 49t-109.5 25l12 61h545q164 0 299.5 -70.5t203 -190.5t67.5 -279q0 -248 -115.5 -447t-325 -315.5t-446.5 -116.5h-557zM358 180q0 -60 53.5 -83t182.5 -23q191 0 345.5 99t244.5 282.5t90 394.5 q0 228 -131.5 364t-349.5 136l-170 -4l-252 -1090q-13 -65 -13 -76z" />
<glyph unicode="E" horiz-adv-x="1309" d="M-27 0l13 61q123 7 157 21q50 21 68 96l246 1057q6 30 6 49q0 52 -144 70l-30 4l12 61h1063l-80 -332h-61q-7 244 -136 259q-108 6 -210 6h-252l-133 -580h213q86 0 133 20t83.5 75.5t63.5 129.5h64l-123 -534h-62l2 76q0 78 -10 98q-18 35 -59 48t-111 13h-213 l-100 -436q-13 -57 -13 -96q0 -52 43 -72t177 -20q155 0 260 15t139 42q83 65 192 275h68l-121 -406h-1145z" />
<glyph unicode="F" horiz-adv-x="1194" d="M-25 0l11 61q123 7 157 21q50 21 68 96l246 1057q6 30 6 49q0 52 -144 70l-30 4l12 61h1073l-80 -342h-63v10q0 102 -36.5 175.5t-96.5 83.5q-42 6 -168 6h-305l-136 -584h228q75 0 123 16.5t88.5 63.5t75.5 145h65l-125 -536h-65l4 38l2 42q0 64 -13 92q-17 29 -37 41 t-52 20t-85 8h-227l-100 -448q-17 -68 -17 -105q0 -43 47 -59.5t131 -24.5l-14 -61h-543z" />
<glyph unicode="G" horiz-adv-x="1442" d="M109 543q0 237 114 447t308.5 335t408.5 125q123 0 232.5 -28t175.5 -76l49 73h65l-104 -483h-68q2 51 2 68q-3 190 -101 279t-280 89q-174 0 -326.5 -111t-236.5 -299t-84 -413q0 -226 125.5 -365t331.5 -139q167 0 280 80q27 40 54 167t32 189q0 32 -18 48.5t-78.5 26 t-106.5 9.5h-10l13 68h551l-13 -68l-31 -3q-75 -7 -105 -22.5t-48 -43.5t-29 -70q-36 -157 -54 -236.5t-21 -117.5q-166 -58 -272 -79.5t-206 -21.5q-156 0 -282.5 71t-197 201.5t-70.5 299.5z" />
<glyph unicode="H" horiz-adv-x="1610" d="M-8 0l12 61l37 3q93 7 124.5 31t45.5 83l246 1057q6 30 6 49q0 31 -50.5 49t-109.5 25l12 61h502l-14 -61q-98 -9 -143.5 -31t-61.5 -92l-104 -459h739l106 459q7 35 7 49q0 31 -52 49t-108 25l12 61h502l-14 -61q-96 -9 -141.5 -29.5t-63.5 -93.5l-234 -1018 q-10 -47 -10 -67q0 -29 14.5 -46t55 -30t79.5 -13l-16 -61h-496l13 61l37 3q93 7 124.5 31t45.5 83l120 522h-739l-110 -483q-11 -38 -11 -67t14 -45.5t55.5 -30t80.5 -13.5l-17 -61h-495z" />
<glyph unicode="I" horiz-adv-x="729" d="M-39 0l12 61q131 9 152 17q69 26 86 98l244 1051q8 29 8 49q0 41 -68 60t-123 22l13 61h565l-14 -61q-107 -8 -164 -28.5t-74 -92.5l-233 -1016q-11 -38 -11 -69q0 -45 51 -65.5t134 -25.5l-13 -61h-565z" />
<glyph unicode="J" horiz-adv-x="1022" d="M-51 217q0 105 46.5 173.5t119.5 68.5q34 0 56 -23t22 -57q0 -38 -16.5 -71.5t-40 -65t-48.5 -61.5t-43 -60q24 -42 83 -68t132 -26q93 0 157 46t108 132t89 280l168 750q6 18 6 41q0 40 -67 59t-123 23l12 61h551l-14 -61q-61 -5 -118 -19.5t-76 -40.5t-27 -63 l-193 -827q-47 -202 -175.5 -321.5t-307.5 -119.5q-136 0 -218.5 67.5t-82.5 182.5z" />
<glyph unicode="K" horiz-adv-x="1335" d="M-8 0l12 61l37 3q93 7 124.5 31t45.5 83l246 1057q6 30 6 49q0 31 -50.5 49t-109.5 25l12 61h502l-14 -61q-98 -9 -143.5 -31t-61.5 -92l-119 -518h8q120 75 268 192.5t268 233t120 166.5q0 22 -40.5 35.5t-92.5 13.5l12 61h491l-16 -57q-52 0 -104 -15.5t-82 -41.5 q-159 -147 -306 -270.5t-364 -286.5q163 -226 265 -384l67 -104q66 -103 117.5 -146.5t166.5 -52.5l-20 -61h-274q-80 151 -205 346.5t-234 337.5h-53l-106 -467q-11 -38 -11 -67t14 -45.5t55.5 -30t80.5 -13.5l-17 -61h-495z" />
<glyph unicode="L" horiz-adv-x="1194" d="M-8 0l12 61l37 3q93 7 124.5 31t45.5 83l246 1057q6 30 6 49q0 31 -50.5 49t-109.5 25l12 61h510l-12 -61q-73 -6 -137 -27q-61 -20 -80 -102l-223 -977q-17 -74 -17 -107q0 -48 37.5 -62.5t163.5 -14.5q119 0 208.5 15t121.5 40q32 26 95 109t122 174h59l-123 -406 h-1048z" />
<glyph unicode="M" horiz-adv-x="1831" d="M-70 0l17 61l33 5q82 11 127 34t72.5 77t64.5 208l176 758q8 37 8 78q0 69 -49.5 100.5t-126.5 36.5l14 61h389l185 -1140l608 960q86 150 94 180h385l-12 -61q-107 -9 -152.5 -30.5t-62.5 -92.5l-227 -967q-21 -94 -21 -118q0 -27 20.5 -46.5t69.5 -31t74 -11.5l-17 -61 h-534l14 61q18 0 67.5 6.5t79.5 16.5t54.5 33.5t36.5 70.5l258 1086h-10l-795 -1251h-22l-68 454l-133 797h-8l-205 -875q-27 -108 -27 -186q0 -63 25 -90q32 -43 166 -62l-13 -61h-555z" />
<glyph unicode="N" horiz-adv-x="1546" d="M-70 0l17 61l33 5q82 11 127 34t72.5 77t64.5 208l178 766q8 32 8 63q0 45 -45 90.5t-174 53.5l16 61h348l582 -1165l178 766q7 28 17 89.5t10 96.5q0 63 -25 90q-26 39 -186 62l12 61h576l-17 -61l-33 -5q-85 -11 -128.5 -34t-71.5 -78t-64 -207l-243 -1052h-47 l-611 1230l-190 -813q-7 -28 -17 -89.5t-10 -96.5q0 -63 25 -90q26 -39 186 -62l-12 -61h-576z" />
<glyph unicode="O" horiz-adv-x="1446" d="M109 539q0 237 110.5 448.5t297.5 336t388 124.5q237 0 378.5 -158.5t141.5 -419.5q0 -230 -108 -435t-300 -336.5t-388 -131.5q-236 0 -378 157t-142 415zM266 518q0 -228 97.5 -349.5t279.5 -121.5q176 0 316.5 114t223.5 321t83 429q0 218 -98 338.5t-279 120.5 q-131 0 -244.5 -65.5t-197 -186t-132.5 -284.5t-49 -316z" />
<glyph unicode="P" horiz-adv-x="1192" d="M-8 0l12 61l37 3q93 7 124.5 31t45.5 83l246 1057q6 30 6 49q0 26 -52 46t-116 28l12 61h586q160 0 255 -82.5t95 -224.5q0 -128 -74.5 -236.5t-207.5 -174.5t-273 -66h-227l-96 -418q-11 -38 -11 -67q0 -35 21 -52.5t74.5 -27t85.5 -9.5l-17 -61h-526zM479 713h176 q126 0 220.5 49t146 146t51.5 200q0 112 -67 175t-185 63h-200z" />
<glyph unicode="Q" horiz-adv-x="1446" d="M109 539q0 237 110.5 448.5t297.5 336t388 124.5q237 0 378.5 -158.5t141.5 -419.5q0 -202 -84.5 -386.5t-237 -317.5t-325.5 -178q-6 -35 -6 -80q0 -87 59 -140t154 -53q60 0 126 7t106 16l-17 -74q-54 -13 -135 -23t-145 -10q-147 0 -225.5 72.5t-78.5 206.5q0 43 7 57 q-155 1 -271.5 72t-179.5 201t-63 299zM266 518q0 -228 97.5 -349.5t279.5 -121.5q176 0 316.5 114t223.5 321t83 429q0 218 -98 338.5t-279 120.5q-131 0 -244.5 -65.5t-197 -186t-132.5 -284.5t-49 -316z" />
<glyph unicode="R" horiz-adv-x="1339" d="M-12 0l16 61q110 9 131 21q62 25 80 102l242 1059q4 7 4 35t-13 43.5t-66.5 26t-73.5 10.5h-5l12 61h568q97 0 175 -31.5t121.5 -91.5t43.5 -143q0 -176 -116 -299t-331 -170l131 -251l107 -212q42 -79 80 -105l26 -20q45 -29 140 -35l-17 -61h-278q-82 203 -237 496 l-79 151h-188l-109 -477l-4 -25q0 -51 31 -65q11 -7 67.5 -13t73.5 -6l-16 -61h-516zM481 725h164q105 0 200 55t150.5 149t55.5 201q0 102 -62 161t-164 59h-204z" />
<glyph unicode="S" horiz-adv-x="1102" d="M10 0l90 471h70q4 -159 41 -246.5t113 -132.5t198 -45q163 0 260 94t97 250q0 79 -39 138.5t-101 86.5q-58 26 -152 60q-156 54 -218.5 101.5t-94.5 111.5t-32 139q0 116 65 211.5t176 151t228 55.5q194 0 329 -98l43 71h68l-98 -465h-68v21q0 168 -29.5 244t-95 115.5 t-180.5 39.5q-130 0 -217.5 -85t-87.5 -216q0 -139 96 -199q60 -34 150 -65q143 -50 206 -85.5t101 -75t61 -92.5t23 -124q0 -123 -70.5 -227.5t-190 -166t-247.5 -61.5q-129 0 -220.5 25.5t-160.5 79.5l-47 -82h-66z" />
<glyph unicode="T" horiz-adv-x="1241" d="M133 1044l88 375h1204l-84 -375h-65v14q0 104 -24 174t-65 95t-239 25h-67l-260 -1131q-11 -38 -11 -71q0 -47 61 -66t144 -23l-12 -61h-606l12 61l40 3q108 6 142 18q59 22 76 94l272 1176h-61q-130 0 -188.5 -8.5t-113 -50t-99.5 -106t-74 -143.5h-70z" />
<glyph unicode="U" horiz-adv-x="1597" d="M213 287q0 57 18 131l191 815q6 30 6 51q0 31 -51 49t-109 25l13 61h501l-14 -61q-105 -10 -148.5 -33.5t-58.5 -91.5l-192 -838q-13 -48 -13 -100q0 -64 39 -117t111.5 -85t175.5 -32q192 0 323.5 87t172.5 239q24 87 98 416.5t74 402.5q0 63 -25 90q-13 20 -64.5 37.5 t-121.5 24.5l12 61h575l-16 -61l-33 -5q-90 -12 -133 -36.5t-68.5 -78.5t-58.5 -196l-47 -222q-22 -99 -98 -417q-55 -211 -214 -323.5t-401 -112.5q-125 0 -227.5 43t-159.5 116.5t-57 160.5z" />
<glyph unicode="V" horiz-adv-x="1309" d="M166 1358l14 61h494l-17 -61q-109 0 -147.5 -14t-38.5 -48l4 -48q14 -133 70 -530t65 -458l298 471l225 363q75 131 75 182q0 31 -50.5 53.5t-127.5 28.5l12 61h517l-13 -61q-56 0 -115.5 -28t-134.5 -140q-179 -272 -411.5 -638t-358.5 -572h-22q-33 270 -94 707.5 t-82 551.5q-9 41 -30 65.5t-61.5 39t-70.5 14.5z" />
<glyph unicode="W" horiz-adv-x="1886" d="M201 1358l12 61h485l-12 -61q-203 0 -203 -66v-62l2 -91l27 -826l635 1076h31l135 -1092q185 365 385 784q43 97 57 138t14 65q0 62 -161 74l12 61h494l-13 -61q-53 0 -127 -37q-74 -46 -123 -137l-616 -1204h-33l-133 1128l-661 -1128h-31q-17 915 -33 1230 q-5 70 -23.5 95.5t-54 39t-65.5 13.5z" />
<glyph unicode="X" horiz-adv-x="1401" d="M-106 0l16 61l24 3q61 5 113 30q79 36 152 115t249 257.5t238 248.5l-233 491q-26 55 -54 86.5t-81.5 48.5t-73.5 17l16 61h506l-12 -61q-105 0 -138.5 -14.5t-33.5 -49.5q0 -34 30.5 -110t169.5 -367l94 99q60 62 145 152.5t114.5 123.5t47 62t17.5 46q0 27 -40.5 42.5 t-115.5 15.5l17 61h504l-13 -61l-26 -2q-78 -4 -128.5 -29.5t-140.5 -118.5l-97 -101q-247 -249 -347 -357q132 -287 168 -362t78 -158.5t73.5 -117.5t59.5 -42.5t82 -8.5l-14 -61h-521l13 61q174 0 174 60q0 59 -56.5 194.5t-150.5 327.5q-95 -92 -377 -403 q-35 -39 -57.5 -73t-22.5 -48q0 -58 70.5 -58h87.5l-12 -61h-514z" />
<glyph unicode="Y" horiz-adv-x="1180" d="M154 1358l16 61h473l-14 -61l-54 -3q-116 -6 -116 -50q0 -55 176 -621q67 82 136 166t130.5 159.5t111 137.5t77.5 100q16 23 16 45q0 55 -116 62l-60 4l16 61h486l-17 -61q-63 -9 -101 -25.5t-80 -57t-167 -183.5t-237 -283t-135.5 -176t-36 -73t-80.5 -347 q-11 -41 -11 -70q0 -30 40.5 -50t166.5 -32l-12 -61h-606l12 61l40 3q108 6 144 18q57 22 74 94l72 307q14 63 14 82q0 57 -58 249.5t-122 377.5q-31 87 -56.5 114.5t-53.5 37.5t-68 14z" />
<glyph unicode="Z" horiz-adv-x="1184" d="M-86 0l6 20l1206 1330h-364q-115 0 -182 -9q-88 -13 -182 -103t-146 -204h-64l129 385h1022l-6 -20l-1204 -1329h322q108 0 226 13.5t148 35.5q52 37 108.5 100.5t100.5 132.5l47 72h66l-146 -424h-1087z" />
<glyph unicode="[" horiz-adv-x="694" d="M-35 -309l422 1829h467l-18 -88h-359l-381 -1651h361l-25 -90h-467z" />
<glyph unicode="\" horiz-adv-x="956" d="M367 1524h110l185 -1948h-111z" />
<glyph unicode="]" horiz-adv-x="694" d="M-127 -309l18 88h359l381 1651h-361l25 90h467l-422 -1829h-467z" />
<glyph unicode="^" d="M236 815l395 641h102l393 -641h-118l-326 531l-326 -531h-120z" />
<glyph unicode="_" d="M-180 -274l20 94h1268l-23 -94h-1265z" />
<glyph unicode="`" horiz-adv-x="1024" d="M610 1466q0 26 16.5 47t45.5 21q34 0 59 -24t80 -115q71 -118 158 -250l-39 -31l-256 242q-64 55 -64 110z" />
<glyph unicode="a" horiz-adv-x="1124" d="M72 346q0 166 81.5 319t217.5 247t286 94q107 0 195 -38l39 -18l123 39l8 -12l-154 -662q-12 -55 -21 -96.5t-9 -68.5q0 -68 86 -68q83 0 123 16l-11 -53q-41 -25 -105.5 -43t-109.5 -18q-110 0 -110 110q0 27 4 49h-8l-62 -54q-128 -116 -262 -116q-146 0 -228.5 102 t-82.5 271zM203 332q0 -123 52 -194.5t157 -71.5q68 0 144.5 37t176.5 128l127 543q0 79 -57.5 125.5t-145.5 46.5q-114 0 -222.5 -88t-170 -229.5t-61.5 -296.5z" />
<glyph unicode="b" horiz-adv-x="1077" d="M84 135l264 1157q14 56 14 103q0 39 -28 52.5t-129 25.5l12 55l291 20l12 -12l-158 -670h9q89 78 159.5 109t135.5 31q155 0 247.5 -105t92.5 -278q0 -162 -73.5 -310t-205.5 -245t-272 -97q-143 0 -231 43t-140 121zM205 156q16 -46 83.5 -83.5t153.5 -37.5 q114 0 215 80t159 217t58 295q0 135 -60 213t-183 78q-59 0 -122 -29t-165 -115z" />
<glyph unicode="c" horiz-adv-x="897" d="M72 348q0 176 73 332.5t195 241t268 84.5q122 0 195.5 -53t73.5 -142q0 -68 -28 -115t-75 -47q-42 0 -61 21.5t-19 50.5q0 39 51 166q-13 22 -56 37.5t-93 15.5q-102 0 -194.5 -76.5t-146.5 -209t-54 -289.5q0 -134 71 -216.5t187 -82.5q176 0 329 202l50 -32 q-76 -117 -196 -190t-230 -73q-162 0 -251 99.5t-89 275.5z" />
<glyph unicode="d" horiz-adv-x="1124" d="M72 346q0 166 81.5 319t217.5 247t286 94q59 0 114 -11t136 -47l80 346q14 56 14 101q0 40 -33.5 55t-140.5 23l15 55l303 20l10 -12l-287 -1221q-12 -55 -21 -96.5t-9 -68.5q0 -68 86 -68q83 0 123 16l-11 -53q-41 -25 -105.5 -43t-109.5 -18q-110 0 -110 110q0 27 4 49 h-8l-62 -54q-128 -116 -262 -116q-146 0 -228.5 102t-82.5 271zM203 332q0 -123 52 -194.5t157 -71.5q68 0 144.5 37t176.5 128l127 543q0 77 -49 124.5t-154 47.5q-114 0 -222.5 -88t-170 -229.5t-61.5 -296.5z" />
<glyph unicode="e" horiz-adv-x="922" d="M70 348q0 167 77 322t210 245.5t288 90.5q114 0 175 -53t61 -144q0 -108 -70.5 -187.5t-230.5 -132t-387 -83.5v-18q0 -156 63.5 -239t187.5 -83q178 0 336 204l49 -34q-81 -120 -199 -191.5t-239 -71.5q-154 0 -237.5 98t-83.5 277zM201 469q178 24 264.5 50.5t159 72 t107 102t34.5 123.5q0 57 -32.5 90t-92.5 33q-101 0 -196 -62.5t-160 -171.5t-84 -237z" />
<glyph unicode="f" horiz-adv-x="621" d="M-332 -350q0 29 18.5 52.5t61.5 23.5q29 0 54.5 -17.5t62.5 -70.5q92 5 160.5 104t107.5 281l184 874h-194l18 84h195l14 61q55 231 184 368.5t291 137.5q50 0 84.5 -23t34.5 -61q0 -35 -20.5 -60.5t-55.5 -25.5q-42 0 -73 27.5t-56 64.5q-179 -9 -266 -389l-22 -100h251 l-22 -84h-248l-176 -838q-30 -141 -99 -256t-165.5 -181t-204.5 -66q-52 0 -85.5 27t-33.5 67z" />
<glyph unicode="g" horiz-adv-x="1116" d="M10 -315q0 31 17.5 56.5t58.5 25.5q62 0 96 -104l17 -48h43q182 0 307 134t178 394h-10l-62 -52q-128 -111 -262 -111q-145 0 -228 98.5t-83 267.5q0 171 85 325t220 244.5t281 90.5q57 0 111 -12t122 -44l115 39l8 -12l-168 -776q-74 -340 -223.5 -492.5t-411.5 -152.5 q-100 0 -155.5 33.5t-55.5 95.5zM213 332q0 -124 52 -192t157 -68q146 0 321 159l121 543q0 85 -50.5 128.5t-145.5 43.5q-112 0 -219 -85t-171.5 -227.5t-64.5 -301.5z" />
<glyph unicode="h" horiz-adv-x="1038" d="M51 0l297 1292q14 56 14 103q0 39 -28 52.5t-129 25.5l12 55l291 20l12 -12l-168 -696h4q80 74 186.5 120t194.5 46q89 0 145 -55t56 -140q0 -61 -25 -158q-101 -392 -109.5 -433.5t-8.5 -69.5q0 -68 86 -68q83 0 123 16l-11 -53q-41 -25 -105.5 -43t-109.5 -18 q-110 0 -110 110q0 47 18 117l105 399q28 112 28 174q0 53 -41 91t-108 38q-78 0 -172.5 -50t-163.5 -124l-170 -739h-113z" />
<glyph unicode="i" horiz-adv-x="537" d="M92 891l10 53q44 25 106 43.5t107 18.5q105 0 105 -111q0 -41 -19 -117l-110 -465q-29 -111 -29 -163q0 -68 86 -68q83 0 123 16l-10 -53q-41 -25 -105.5 -43t-109.5 -18q-111 0 -111 110q0 41 19 117l110 465q29 116 29 164q0 67 -82 67q-58 0 -119 -16zM391 1372 q0 53 27.5 85t66.5 32q78 0 78 -88q0 -51 -28 -84t-68 -33q-76 0 -76 88z" />
<glyph unicode="j" horiz-adv-x="520" d="M-326 -350q0 32 18.5 54t53.5 22q28 0 52.5 -17t62.5 -71q102 0 167 96t107 289l70 311q94 414 94 504q0 32 -17.5 50.5t-68.5 18.5q-23 0 -63.5 -7t-55.5 -13l10 55q58 31 115.5 47.5t95.5 16.5q111 0 111 -111q0 -51 -16 -125q-48 -238 -150 -711q-32 -146 -105 -261 t-172 -178.5t-198 -63.5q-51 0 -81 26t-30 68zM391 1372q0 53 27.5 85t66.5 32q78 0 78 -88q0 -51 -28 -84t-68 -33q-76 0 -76 88z" />
<glyph unicode="k" horiz-adv-x="1014" d="M51 0l297 1292q14 56 14 103q0 39 -28 52.5t-129 25.5l12 55l291 20l12 -12l-250 -1044h4q131 126 469 413q57 48 95 68t75 20q41 0 63.5 -26.5t22.5 -61.5q0 -38 -23.5 -63t-64.5 -25t-104 17q-135 -82 -318 -236q57 -136 125.5 -273.5t97.5 -174.5t61 -54.5t69 -17.5 q30 0 72 7t59 11l-10 -53q-108 -53 -205 -53q-56 0 -97 37.5t-81 119.5q-104 203 -170 373l-160 -131l-86 -389h-113z" />
<glyph unicode="l" horiz-adv-x="512" d="M88 94q0 45 18 117l250 1081q15 60 15 103q0 39 -28 52.5t-130 25.5l12 55l291 20l10 -12l-282 -1223q-29 -123 -29 -163q0 -68 86 -68q83 0 123 16l-10 -53q-41 -25 -105.5 -43t-109.5 -18q-111 0 -111 110z" />
<glyph unicode="m" horiz-adv-x="1720" d="M106 881l11 53q123 59 213 59q51 0 70.5 -28.5t19.5 -83.5l-2 -41h6q80 74 184.5 120t192.5 46q86 0 140 -50t58 -127h2q121 101 204 139t173 38t145.5 -54t55.5 -141q0 -61 -25 -158q-101 -392 -109.5 -433.5t-8.5 -69.5q0 -68 86 -68q83 0 123 16l-11 -53 q-41 -25 -105.5 -43t-109.5 -18q-110 0 -110 110q0 47 18 117l105 399q28 112 28 174q0 53 -38.5 91t-106.5 38q-69 0 -153.5 -41.5t-168.5 -128.5l-174 -743h-114l163 696q11 59 11 88q0 56 -39 92.5t-109 36.5q-73 0 -164 -47t-166 -127l-170 -739h-112l158 695 q18 78 18 126q0 44 -17.5 60t-60.5 16q-55 0 -111 -16z" />
<glyph unicode="n" horiz-adv-x="1147" d="M106 881l11 53q123 59 213 59q51 0 70.5 -28.5t19.5 -83.5l-2 -41h6q79 73 185.5 119.5t195.5 46.5q90 0 145.5 -54t55.5 -141q0 -54 -25 -158q-100 -390 -109.5 -432t-9.5 -71q0 -68 86 -68q83 0 123 16l-10 -53q-41 -25 -105.5 -43t-109.5 -18q-111 0 -111 110 q0 51 19 117l104 399q29 116 29 174q0 53 -41 91t-109 38q-75 0 -168 -47.5t-168 -126.5l-170 -739h-112l158 695q18 78 18 126q0 44 -17.5 60t-60.5 16q-55 0 -111 -16z" />
<glyph unicode="o" horiz-adv-x="1038" d="M68 350q0 180 77.5 334t205.5 238t280 84q155 0 247.5 -104.5t92.5 -274.5q0 -176 -76.5 -332t-205.5 -240t-286 -84q-148 0 -241.5 103t-93.5 276zM195 360q0 -160 60 -240.5t175 -80.5q121 0 215.5 76.5t146.5 210t52 297.5q0 154 -60 234.5t-174 80.5 q-118 0 -210.5 -70t-148.5 -210.5t-56 -297.5z" />
<glyph unicode="p" horiz-adv-x="1143" d="M-139 -444l14 59q87 7 107 12q58 20 73 92l215 945q23 101 23 141q0 53 -16 72.5t-72 19.5q-21 0 -101 -20l11 53q133 63 213 63q48 0 74 -33.5t26 -93.5h8q70 59 112 84t87.5 40.5t95.5 15.5q155 0 247.5 -105t92.5 -278q0 -162 -73.5 -310t-205.5 -245t-272 -97 q-174 0 -282 72q-34 -160 -52 -244q-16 -76 -16 -103v-5q0 -21 9 -33t39.5 -24t71.5 -15l50 -4l-14 -59h-465zM270 156q19 -48 86.5 -84.5t151.5 -36.5q114 0 215.5 81t159 218t57.5 293q0 135 -60.5 213t-183.5 78q-59 0 -122.5 -29.5t-163.5 -114.5z" />
<glyph unicode="q" horiz-adv-x="1075" d="M72 346q0 166 81.5 319t217.5 247t286 94q107 0 195 -38l39 -18l115 39l10 -12l-266 -1186q-17 -79 -17 -104q0 -32 35 -48t121 -24l-15 -59h-464l12 59l65 4q66 4 91.5 25.5t37.5 74.5l101 424h-8l-62 -54q-130 -116 -264 -116q-146 0 -228.5 102t-82.5 271zM203 332 q0 -123 52 -194.5t157 -71.5q68 0 144.5 37t176.5 128l127 543q0 79 -57.5 125.5t-145.5 46.5q-114 0 -222.5 -88t-170 -229.5t-61.5 -296.5z" />
<glyph unicode="r" horiz-adv-x="909" d="M106 881l11 53q123 59 213 59q53 0 69.5 -36t16.5 -89l-2 -47h6q96 84 178 134.5t158 50.5q75 0 109 -34.5t34 -105.5q0 -61 -27.5 -103t-70.5 -42q-44 0 -62 21t-18 49q0 44 41 133q-79 0 -171 -47t-190 -142l-170 -735h-112l151 664q25 100 25 157q0 44 -17.5 60 t-60.5 16q-55 0 -111 -16z" />
<glyph unicode="s" horiz-adv-x="834" d="M20 158q0 40 22 63t56 23q39 0 65 -39t34 -113q64 -49 186 -49q108 0 176 58.5t68 150.5q0 68 -55.5 115t-155.5 82q-138 43 -200 104.5t-62 144.5q0 82 47.5 153t132.5 113t182 42q116 0 196.5 -41t80.5 -103q0 -35 -17.5 -59.5t-52.5 -24.5q-42 0 -70 31.5t-49 108.5 q-52 18 -121 18q-103 0 -170 -51.5t-67 -130.5q0 -66 44.5 -109.5t153.5 -81.5q160 -55 220.5 -112t60.5 -140q0 -149 -106 -243.5t-275 -94.5q-137 0 -230.5 54.5t-93.5 130.5z" />
<glyph unicode="t" horiz-adv-x="639" d="M111 897l18 84h176l70 287h108l-65 -287h282l-18 -84h-285l-129 -561q-24 -98 -24 -160q0 -49 24.5 -70.5t83.5 -21.5q85 0 160 20l-12 -61q-115 -59 -230 -59q-68 0 -110.5 39t-42.5 104q0 53 14 115l154 655h-174z" />
<glyph unicode="u" horiz-adv-x="1106" d="M72 877l14 53q126 63 207 63q98 0 98 -100q0 -59 -20 -139l-86 -383q-27 -108 -27 -166q0 -60 41 -96.5t111 -36.5q68 0 158.5 46.5t158.5 114.5l176 746l103 10l12 -14l-158 -658q-5 -24 -10.5 -48.5t-10 -46.5t-7.5 -40.5t-3 -29.5q0 -42 26.5 -56t80.5 -14 q15 0 48.5 4t49.5 10l-10 -51q-116 -59 -215 -59q-52 0 -81.5 30.5t-29.5 85.5l2 27h-6q-113 -89 -191 -120.5t-159 -31.5q-91 0 -149 53.5t-58 143.5q0 57 23 156l78 334q26 121 26 161q0 35 -16 53.5t-60 18.5q-36 0 -116 -20z" />
<glyph unicode="v" horiz-adv-x="1067" d="M72 874l12 54q132 65 219 65q96 0 96 -104q0 -47 -12 -105l-117 -452q-16 -71 -16 -121q0 -65 44 -102t124 -37q93 0 175 49t147 137.5t109 210.5t44 205q0 52 -12 84.5t-26 57t-26 48.5t-12 60q0 32 22 57t62 25q88 0 88 -154q0 -216 -84 -422.5t-226 -332.5t-304 -126 q-112 0 -179 62t-67 168q0 64 25 151l64 232q48 168 48 241q0 72 -71 72q-32 0 -74.5 -9.5t-52.5 -13.5z" />
<glyph unicode="w" horiz-adv-x="1595" d="M72 877l14 53q126 63 207 63q98 0 98 -100q0 -59 -20 -139l-86 -383q-27 -108 -27 -166q0 -60 41 -96.5t111 -36.5q66 0 147.5 46t149.5 115l176 746l102 10l12 -14l-155 -643q-17 -68 -17 -121q0 -65 44 -102t124 -37q92 0 170.5 47.5t140.5 135t103 209t41 210.5 q0 52 -12 84.5t-26 57t-26 48.5t-12 60q0 32 22 57t62 25q88 0 88 -154q0 -224 -82.5 -431.5t-218.5 -328.5t-293 -121q-96 0 -156.5 47t-82.5 136h-6q-114 -93 -161.5 -120t-96.5 -42t-103 -15q-91 0 -149 53.5t-58 143.5q0 57 23 156l78 334q26 121 26 161q0 35 -16 53.5 t-60 18.5q-36 0 -116 -20z" />
<glyph unicode="x" horiz-adv-x="983" d="M-53 66q0 30 23 51.5t71 21.5q50 0 113 -30q139 121 288 358q-25 89 -66 203t-62 152t-43.5 54.5t-61.5 16.5q-58 0 -125 -23l16 58q47 29 96 47t78 18q43 0 72.5 -20.5t53 -64.5t65 -167t53.5 -170q132 202 244 328q85 94 190 94q35 0 58.5 -21t23.5 -57q-4 -73 -96 -73 q-56 0 -111 22q-81 -72 -148 -159.5t-138 -204.5q14 -49 45.5 -136.5t50.5 -138.5q30 -79 65 -111t91 -32q59 0 122 14l-16 -53q-85 -53 -176 -53q-47 0 -79.5 18.5t-57 57t-57 133.5t-64.5 196q-47 -68 -106 -149.5t-140 -169.5q-86 -92 -182 -92q-38 0 -64 21.5t-26 60.5z " />
<glyph unicode="y" horiz-adv-x="1075" d="M2 -326q0 40 20 62t54 22q64 0 106 -97l19 -46h22q190 0 316 133t176 389h-8q-113 -89 -196 -124.5t-167 -35.5q-91 0 -149 53.5t-58 143.5q0 57 23 156l78 334q26 121 26 161q0 35 -16 53.5t-60 18.5q-36 0 -116 -20l14 53q126 63 207 63q98 0 98 -100q0 -59 -20 -139 l-86 -383q-27 -108 -27 -166q0 -60 41 -96.5t111 -36.5t163.5 45.5t159.5 111.5l172 750l101 10l10 -12l-170 -766q-58 -264 -136.5 -397t-201.5 -195.5t-307 -62.5q-199 0 -199 118z" />
<glyph unicode="z" horiz-adv-x="874" d="M-27 0l15 61l745 840h-174q-111 0 -175 -8t-87 -26.5t-48 -65.5t-54 -117h-56l58 295h704l-10 -51l-758 -850q132 -2 172 -2q145 0 244 6q42 0 72 35.5t71 129.5l43 93h53l-65 -340h-750z" />
<glyph unicode="{" horiz-adv-x="809" d="M70 541l26 118q142 13 217.5 51t117 109t65.5 242q26 191 78.5 288.5t146.5 142t250 44.5l-19 -80q-120 -5 -169.5 -25.5t-84.5 -64t-53 -121.5l-59 -254q-45 -184 -144 -277t-276 -110l-2 -8q138 -12 200 -73t62 -173q0 -60 -18 -139l-60 -254q-10 -44 -10 -74 q0 -50 22 -77.5t59.5 -42t137.5 -21.5l-18 -76q-170 0 -242 51t-72 164q0 51 16.5 114t37 127.5t37 125t16.5 108.5q0 85 -60 129t-202 56z" />
<glyph unicode="|" horiz-adv-x="754" d="M356 -424v1948h103v-1948h-103z" />
<glyph unicode="}" horiz-adv-x="809" d="M-135 -334l18 80q120 5 169.5 25.5t84.5 64t53 121.5l60 254q42 180 140.5 275t279.5 112l2 8q-143 15 -202.5 75.5t-59.5 170.5q0 59 18 139l59 254q11 48 11 74q0 48 -19.5 74.5t-50.5 40t-70 18t-79 8.5l18 76q168 0 240.5 -50.5t72.5 -164.5q0 -51 -16.5 -114 t-36.5 -127.5t-36.5 -125t-16.5 -108.5q0 -86 60.5 -130t201.5 -54l-27 -119q-176 -17 -260 -79t-114 -188q-10 -41 -25 -134q-29 -180 -62.5 -259t-88 -126.5t-134.5 -69t-190 -21.5z" />
<glyph unicode="~" d="M150 410q25 69 80 136t118.5 100.5t128.5 33.5q66 0 121 -18t105.5 -39.5t99 -39.5t102.5 -18q52 0 93 31.5t98 132.5l63 -24q-28 -73 -78.5 -135t-115.5 -100t-136 -38q-64 0 -118 18t-105 39.5t-100.5 39.5t-104.5 18q-36 0 -63.5 -13.5t-50 -38.5t-72.5 -110z" />
<glyph unicode="&#xa1;" horiz-adv-x="631" d="M121 61q0 24 14 86q44 167 193 638l75 243h80q-38 -135 -106 -516q-44 -313 -55 -380t-28.5 -94t-42.5 -40.5t-56 -13.5q-74 0 -74 77zM385 1352q0 46 29.5 76t79.5 30q46 0 76 -30t30 -76q0 -50 -30 -81.5t-76 -31.5q-50 0 -79.5 31.5t-29.5 81.5z" />
<glyph unicode="&#xa2;" horiz-adv-x="1024" d="M137 348q0 163 64.5 311.5t177 239.5t250.5 105l63 272h82l-65 -272q108 -7 170.5 -59.5t62.5 -133.5q0 -72 -29 -117t-73 -45q-42 0 -61 21.5t-19 50.5q0 53 51 166q-11 17 -42 31.5t-75 19.5l-207 -870q28 -2 37 -2q177 0 330 202l49 -32q-77 -119 -196 -191t-230 -72 h-12l-64 -272h-82l68 281q-117 25 -183.5 121.5t-66.5 244.5zM266 365q0 -95 38.5 -168.5t107.5 -106.5l200 846q-93 -18 -173.5 -98.5t-126.5 -205t-46 -267.5z" />
<glyph unicode="&#xa3;" horiz-adv-x="1206" d="M31 0l24 127q110 36 199 173t119 318h-158l18 84h154l17 129l20 144q42 220 177 349.5t317 129.5q88 0 152.5 -31.5t99 -87.5t34.5 -123q0 -77 -30.5 -121t-83.5 -44q-76 0 -76 53q0 46 47 120l22 37q-5 55 -55.5 91t-120.5 36q-78 0 -143 -34.5t-112 -101.5t-71.5 -158 t-68.5 -388h399l-18 -84h-395q-28 -163 -104 -282.5t-216 -196.5v-8h866l-28 -131h-985z" />
<glyph unicode="&#xa4;" horiz-adv-x="1038" d="M178 264l158 164q-35 57 -35 125t35 125l-158 168l78 74l160 -164q56 39 127 39q66 0 127 -37l161 162l80 -74l-163 -168q36 -52 36 -125t-36 -125l163 -166l-75 -74l-166 162q-61 -39 -127 -39q-71 0 -127 39l-164 -164zM403 553q0 -61 41 -103t99 -42q59 0 101 41.5 t42 103.5q0 60 -42 102.5t-101 42.5q-58 0 -99 -41t-41 -104z" />
<glyph unicode="&#xa5;" horiz-adv-x="1143" d="M133 465l21 82h362l21 92l-50 201q-44 159 -78 271.5t-50 145t-41.5 58t-51.5 33t-63 10.5l12 61h449l-13 -61q-71 -3 -113 -14.5t-42 -43.5q0 -23 42 -187t103 -376l303 391q70 88 89.5 120t19.5 46q0 29 -33 44t-117 20l15 61h462l-16 -61q-79 -18 -113 -35 q-43 -23 -70.5 -48.5t-163 -187t-236.5 -293.5l-111 -143l-27 -104h385l-18 -82h-385l-64 -279q-4 -16 -4 -34q0 -31 21.5 -48t59 -27.5t91.5 -15.5l-12 -61h-520l16 61q111 9 144.5 23.5t49 38t25.5 65.5l66 277h-365z" />
<glyph unicode="&#xa6;" horiz-adv-x="754" d="M356 385h103v-809h-103v809zM356 723v801h103v-801h-103z" />
<glyph unicode="&#xa7;" horiz-adv-x="961" d="M51 -121q0 40 19 67t59 27q43 0 75.5 -45.5t37.5 -109.5q42 -21 123 -21q119 0 187.5 57.5t68.5 161.5q0 42 -16.5 73.5t-45.5 57.5t-70 48.5t-90 48.5q-153 79 -205.5 144.5t-52.5 164.5q0 226 318 358q-172 88 -172 232q0 132 112 221.5t285 89.5q117 0 191.5 -42 t74.5 -105q0 -41 -18.5 -69t-59.5 -28q-95 0 -116 158q-45 16 -113 16q-115 0 -184.5 -57t-69.5 -151q0 -65 54 -114t188 -110q132 -60 190 -127t58 -155q0 -117 -82 -213t-238 -164q89 -47 125.5 -100.5t36.5 -126.5q0 -148 -105.5 -243t-279.5 -95q-130 0 -207.5 41.5 t-77.5 109.5zM246 582q0 -78 54.5 -133t199.5 -125q134 63 200 138.5t66 176.5q0 70 -55.5 124.5t-190.5 113.5q-274 -93 -274 -295z" />
<glyph unicode="&#xa8;" horiz-adv-x="1024" d="M420 1370q0 43 23 73t65 30t65 -30t23 -73q0 -42 -23 -71t-65 -29t-65 29t-23 71zM827 1370q0 43 23 73t65 30t65.5 -30t23.5 -73q0 -42 -23.5 -71t-65.5 -29t-65 29t-23 71z" />
<glyph unicode="&#xa9;" horiz-adv-x="1929" d="M104 604q0 233 118.5 437t324 324t444.5 120q241 0 446 -122t321 -325.5t116 -433.5q0 -234 -117 -438.5t-321.5 -325.5t-444.5 -121q-239 0 -443.5 119t-324 324t-119.5 442zM203 604q0 -222 108 -407.5t289.5 -288.5t390.5 -103t390 103t288 288.5t107 407.5 q0 217 -106 401t-287.5 288t-391.5 104q-211 0 -392.5 -104t-288.5 -287.5t-107 -401.5zM559 596q0 142 60.5 258t165 181t225.5 65q140 0 247 -70l23 49h47l6 -334h-57q-14 129 -82 211t-172 82q-149 0 -238.5 -119.5t-89.5 -318.5q0 -177 94.5 -293.5t241.5 -116.5 q95 0 164.5 46t118.5 155l51 -22q-57 -136 -145.5 -198t-217.5 -62q-122 0 -223.5 62.5t-160 176t-58.5 248.5z" />
<glyph unicode="&#xaa;" horiz-adv-x="971" d="M190 924q0 125 65 246.5t179 200.5t234 79q102 0 188 -43l96 33l11 -13l-132 -497q-28 -106 -28 -156q0 -65 78 -65q33 0 84 16l-9 -49q-102 -51 -174 -51q-42 0 -68 23.5t-26 68.5l4 35h-4l-45 -39q-113 -99 -213 -99q-111 0 -175.5 84.5t-64.5 225.5zM313 928 q0 -110 40.5 -171t117.5 -61q52 0 101.5 27t125.5 106l113 428q0 77 -35.5 110.5t-109.5 33.5q-84 0 -167.5 -68.5t-134.5 -179.5t-51 -225z" />
<glyph unicode="&#xab;" horiz-adv-x="1214" d="M197 514q0 16 10.5 27t464.5 368l41 -45l-353 -348l179 -354l-54 -29l-278 356q-10 10 -10 25zM563 514q0 16 11 27t32 28l432 340l41 -45l-352 -348l178 -354l-53 -29l-254 326q-15 20 -25 30t-10 25z" />
<glyph unicode="&#xac;" d="M158 528v105h975v-543h-111v438h-864z" />
<glyph unicode="&#xad;" horiz-adv-x="762" d="M88 487l27 117h590l-27 -117h-590z" />
<glyph unicode="&#xae;" horiz-adv-x="1929" d="M104 604q0 233 118.5 437t324 324t444.5 120q241 0 446 -122t321 -325.5t116 -433.5q0 -234 -117 -438.5t-321.5 -325.5t-444.5 -121q-239 0 -443.5 119t-324 324t-119.5 442zM203 604q0 -222 108 -407.5t289.5 -288.5t390.5 -103t390 103t288 288.5t107 407.5 q0 217 -106 401t-287.5 288t-391.5 104q-211 0 -392.5 -104t-288.5 -287.5t-107 -401.5zM588 135v58l20 2l64 8q37 17 37 69v674q0 61 -37 72q-5 1 -11.5 2.5t-72.5 9.5v57h416q137 0 221 -62t84 -165q0 -95 -55 -162t-177 -106l126 -159q47 -58 106 -138q45 -65 90 -82 q24 -13 94 -20v-58h-231q-104 165 -224 323l-75 99h-138v-287q0 -57 33 -67q23 -10 100 -10v-58h-370zM825 623h119q98 0 162.5 63t64.5 160q0 89 -51 133.5t-145 44.5h-150v-401z" />
<glyph unicode="&#xaf;" horiz-adv-x="1180" d="M193 1606l20 94h1268l-23 -94h-1265z" />
<glyph unicode="&#xb0;" horiz-adv-x="858" d="M197 1128q0 138 88.5 229t226.5 91t228.5 -90t90.5 -230q0 -139 -89.5 -231t-229.5 -92q-138 0 -226.5 93t-88.5 230zM330 1130q0 -121 50 -188.5t136 -67.5q77 0 128.5 66t51.5 180q0 128 -50 195t-134 67t-133 -70t-49 -182z" />
<glyph unicode="&#xb1;" d="M164 0v106h432v406h-432v104h432v445h109v-445h430v-104h-430v-406h430v-106h-971z" />
<glyph unicode="&#xb2;" horiz-adv-x="971" d="M131 489l23 99q59 81 133 138.5t215 131.5q137 73 192 120.5t83 103.5t28 128q0 76 -47.5 122t-120.5 46q-128 0 -203 -90q0 -164 -102 -164q-29 0 -43.5 18.5t-14.5 43.5q0 69 53.5 129.5t142.5 97.5t175 37q132 0 210.5 -67t78.5 -177q0 -80 -33 -142t-96.5 -113.5 t-202.5 -119.5q-127 -61 -176.5 -90.5t-93 -63t-76.5 -71.5h618l-26 -117h-717z" />
<glyph unicode="&#xb3;" horiz-adv-x="971" d="M135 639q0 46 26 79.5t66 33.5q31 0 48.5 -18.5t17.5 -47.5q0 -36 -33 -96q13 -26 66.5 -46t122.5 -20q126 0 208 75t82 192q0 143 -200 143h-107l21 92h84q118 0 192 58t74 155q0 70 -41 107.5t-111 37.5q-109 0 -180 -59q0 -166 -96 -166q-34 0 -51 19t-17 47 q0 62 51 113t137 81.5t169 30.5q129 0 203.5 -56.5t74.5 -146.5q0 -91 -63 -152.5t-205 -101.5l-2 -8q96 -18 150.5 -73t54.5 -132q0 -94 -57.5 -168t-155.5 -115.5t-215 -41.5q-139 0 -226.5 53t-87.5 131z" />
<glyph unicode="&#xb4;" horiz-adv-x="1024" d="M516 1145l117 188q95 154 120.5 177.5t57.5 23.5q29 0 45 -20t16 -46q0 -40 -24.5 -74t-135.5 -135l-159 -145z" />
<glyph unicode="&#xb5;" horiz-adv-x="1079" d="M-70 -377q0 31 15 78t53 138q43 104 100 341l187 799l102 10l12 -14l-141 -600q-27 -126 -27 -166q0 -59 37 -98t115 -39q68 0 158.5 46.5t158.5 114.5l177 746l102 10l12 -14l-157 -658q-31 -124 -31 -165q0 -42 26 -56t80 -14q15 0 48.5 4t50.5 10l-11 -51 q-116 -59 -215 -59q-52 0 -81 30.5t-29 88.5l2 28h-6q-102 -85 -177 -119t-157 -34q-73 0 -125 31t-68 87h-4q-28 -120 -38 -199.5t-13 -187.5q-4 -155 -88 -155q-32 0 -50 19t-18 48z" />
<glyph unicode="&#xb6;" horiz-adv-x="975" d="M184 1024q0 116 60 206.5t166 139.5t233 49h475l-16 -69h-111l-362 -1565h-92l362 1565h-158l-362 -1565h-94l223 960q-149 6 -236.5 81t-87.5 198z" />
<glyph unicode="&#xb7;" horiz-adv-x="512" d="M176 565q0 47 29 78t74 31q46 0 76 -31t30 -78q0 -45 -30 -74.5t-76 -29.5q-45 0 -74 29.5t-29 74.5z" />
<glyph unicode="&#xb8;" horiz-adv-x="1024" d="M133 -444l14 69q131 0 206 27t75 72q0 40 -37.5 58.5t-118.5 18.5l41 215h72l-23 -118q183 -11 183 -140q0 -202 -412 -202z" />
<glyph unicode="&#xb9;" horiz-adv-x="971" d="M197 489l16 68q37 0 95.5 3.5t78.5 10.5q45 16 55 60l154 661h-217l16 72h74q80 0 145 24t105 56h37q-18 -62 -62 -242l-127 -545l-6 -39q0 -34 43 -47.5t144 -13.5l-17 -68h-534z" />
<glyph unicode="&#xba;" horiz-adv-x="971" d="M225 926q0 136 61.5 258.5t166.5 194t225 71.5q128 0 207.5 -86.5t79.5 -222.5q0 -138 -62.5 -264.5t-167.5 -198.5t-227 -72q-125 0 -204 89t-79 231zM350 920q0 -114 48.5 -181t127.5 -67q83 0 156 67.5t114.5 177.5t41.5 228q0 112 -45.5 176.5t-126.5 64.5 q-87 0 -156.5 -58.5t-114.5 -175.5t-45 -232z" />
<glyph unicode="&#xbb;" horiz-adv-x="1214" d="M135 174l352 348l-178 355l53 28l254 -325q16 -20 25.5 -30t9.5 -26q0 -15 -10.5 -26.5t-32.5 -28.5l-432 -340zM502 174l352 348l-178 355l53 28l254 -325q16 -20 25.5 -30t9.5 -26q0 -15 -10.5 -26.5t-32.5 -28.5l-432 -340z" />
<glyph unicode="&#xbc;" horiz-adv-x="2128" d="M156 489l16 68q37 0 95.5 3.5t78.5 10.5q45 16 55 60l154 661h-217l16 72h74q80 0 145 24t105 56h37q-18 -62 -62 -242l-127 -545l-6 -39q0 -34 43 -47.5t144 -13.5l-17 -68h-534zM477 0l1022 1419h127l-1022 -1419h-127zM1092 209l25 105l698 647h82l-152 -651h158 l-22 -101h-158l-53 -227h-134l54 227h-498zM1219 310h393l113 477z" />
<glyph unicode="&#xbd;" horiz-adv-x="2128" d="M156 489l16 68q37 0 95.5 3.5t78.5 10.5q45 16 55 60l154 661h-217l16 72h74q80 0 145 24t105 56h37q-18 -62 -62 -242l-127 -545l-6 -39q0 -34 43 -47.5t144 -13.5l-17 -68h-534zM477 0l1022 1419h127l-1022 -1419h-127zM1210 2l23 99q59 81 133 138.5t215 131.5 q137 73 192 120.5t83 103.5t28 128q0 76 -47.5 122t-120.5 46q-128 0 -203 -90q0 -164 -102 -164q-29 0 -43.5 18.5t-14.5 43.5q0 69 53.5 129.5t142.5 97.5t175 37q132 0 210.5 -67t78.5 -177q0 -80 -33 -142t-96.5 -113.5t-202.5 -119.5q-127 -61 -176.5 -90.5t-93 -63 t-76.5 -71.5h618l-26 -117h-717z" />
<glyph unicode="&#xbe;" horiz-adv-x="2128" d="M153 639q0 46 26 79.5t66 33.5q31 0 48.5 -18.5t17.5 -47.5q0 -36 -33 -96q13 -26 66.5 -46t122.5 -20q126 0 208 75t82 192q0 143 -200 143h-107l21 92h84q118 0 192 58t74 155q0 70 -41 107.5t-111 37.5q-109 0 -180 -59q0 -166 -96 -166q-34 0 -51 19t-17 47 q0 62 51 113t137 81.5t169 30.5q129 0 203.5 -56.5t74.5 -146.5q0 -91 -63 -152.5t-205 -101.5l-2 -8q96 -18 150.5 -73t54.5 -132q0 -94 -57.5 -168t-155.5 -115.5t-215 -41.5q-139 0 -226.5 53t-87.5 131zM612 0l1022 1419h127l-1022 -1419h-127zM1163 209l25 105l698 647 h82l-152 -651h158l-22 -101h-158l-53 -227h-134l54 227h-498zM1290 310h393l113 477z" />
<glyph unicode="&#xbf;" horiz-adv-x="909" d="M68 305q0 213 132.5 353t368.5 180l62 249h96l-82 -374q-161 -19 -256 -72t-140.5 -141.5t-45.5 -210.5q0 -114 59 -176t160 -62q30 0 67.5 11.5t67.5 29.5l11 66q7 56 25 81.5t49 40.5t73 15q28 0 35.5 -17t7.5 -38q0 -58 -46.5 -119t-125 -99t-176.5 -38 q-163 0 -252.5 85t-89.5 236zM602 1341q0 48 31.5 79.5t79.5 31.5q45 0 76.5 -31t31.5 -80q0 -45 -30.5 -77.5t-77.5 -32.5q-49 0 -80 32.5t-31 77.5z" />
<glyph unicode="&#xc0;" horiz-adv-x="1284" d="M-152 0l13 61q87 7 151.5 50.5t112.5 126.5l772 1202h18l177 -1227q12 -78 63 -113t107 -39l-13 -61h-489l12 61q95 12 126 20.5t47 23t16 38.5q0 34 -9 95l-32 264h-531l-143 -238q-51 -92 -51 -125q0 -31 50.5 -52.5t133.5 -25.5l-12 -61h-519zM434 578h473l-84 614z M635 1798q0 29 18.5 49.5t44.5 20.5t47 -13.5t52 -44.5q134 -134 260 -254l-29 -38l-305 168q-55 32 -71.5 55.5t-16.5 56.5z" />
<glyph unicode="&#xc1;" horiz-adv-x="1284" d="M-152 0l13 61q87 7 151.5 50.5t112.5 126.5l772 1202h18l177 -1227q12 -78 63 -113t107 -39l-13 -61h-489l12 61q95 12 126 20.5t47 23t16 38.5q0 34 -9 95l-32 264h-531l-143 -238q-51 -92 -51 -125q0 -31 50.5 -52.5t133.5 -25.5l-12 -61h-519zM434 578h473l-84 614z M776 1556l78 75l127 124q88 88 109 100.5t45 12.5q26 0 44.5 -20.5t18.5 -49.5q0 -32 -16 -56t-72 -56l-305 -168z" />
<glyph unicode="&#xc2;" horiz-adv-x="1284" d="M-152 0l13 61q87 7 151.5 50.5t112.5 126.5l772 1202h18l177 -1227q12 -78 63 -113t107 -39l-13 -61h-489l12 61q95 12 126 20.5t47 23t16 38.5q0 34 -9 95l-32 264h-531l-143 -238q-51 -92 -51 -125q0 -31 50.5 -52.5t133.5 -25.5l-12 -61h-519zM434 578h473l-84 614z M578 1538l291 285q18 18 39.5 31.5t60.5 13.5q43 0 57.5 -13.5t22.5 -27.5l180 -289l-49 -31l-236 211l-319 -211z" />
<glyph unicode="&#xc3;" horiz-adv-x="1284" d="M-152 0l13 61q87 7 151.5 50.5t112.5 126.5l772 1202h18l177 -1227q12 -78 63 -113t107 -39l-13 -61h-489l12 61q95 12 126 20.5t47 23t16 38.5q0 34 -9 95l-32 264h-531l-143 -238q-51 -92 -51 -125q0 -31 50.5 -52.5t133.5 -25.5l-12 -61h-519zM434 578h473l-84 614z M594 1611q41 88 72.5 128.5t70 63t84.5 22.5q47 0 83.5 -15.5t67.5 -34.5t59 -34.5t59 -15.5q52 0 83.5 26.5t69.5 104.5l56 -25q-36 -102 -97 -157.5t-137 -54.5q-50 -1 -86.5 14.5t-67 34t-60 34t-64.5 16.5q-40 -1 -68.5 -27t-71.5 -102z" />
<glyph unicode="&#xc4;" horiz-adv-x="1284" d="M-152 0l13 61q87 7 151.5 50.5t112.5 126.5l772 1202h18l177 -1227q12 -78 63 -113t107 -39l-13 -61h-489l12 61q95 12 126 20.5t47 23t16 38.5q0 34 -9 95l-32 264h-531l-143 -238q-51 -92 -51 -125q0 -31 50.5 -52.5t133.5 -25.5l-12 -61h-519zM434 578h473l-84 614z M629 1745q0 43 23 72.5t65 29.5t65 -29.5t23 -72.5q0 -42 -23 -71t-65 -29t-65 29t-23 71zM1037 1745q0 43 23 72.5t65 29.5t65 -29.5t23 -72.5q0 -42 -23 -71t-65 -29t-65 29t-23 71z" />
<glyph unicode="&#xc5;" horiz-adv-x="1284" d="M-152 0l13 61q87 7 151.5 50.5t112.5 126.5l772 1202h18l177 -1227q12 -78 63 -113t107 -39l-13 -61h-489l12 61q95 12 126 20.5t47 23t16 38.5q0 34 -9 95l-32 264h-531l-143 -238q-51 -92 -51 -125q0 -31 50.5 -52.5t133.5 -25.5l-12 -61h-519zM434 578h473l-84 614z M674 1556q0 108 77.5 183t200.5 75q98 0 157.5 -51t59.5 -133q0 -68 -34.5 -126t-98 -91t-143.5 -33q-100 0 -159.5 48t-59.5 128zM784 1560q0 -54 30 -87t83 -33q70 0 114 52.5t44 135.5q0 56 -28.5 91.5t-82.5 35.5q-71 0 -115.5 -56t-44.5 -139z" />
<glyph unicode="&#xc6;" horiz-adv-x="1890" d="M-213 0l12 61q67 14 115.5 36.5t96.5 74t356.5 440t570.5 734.5q-23 8 -122 11l-38 1l17 61h1151l-80 -332h-62q-2 87 -16 135.5t-40 80.5t-64 40.5t-226 8.5h-209l-133 -580h170q90 0 138 22t84 81.5t59 121.5h63l-123 -534h-61l2 76q0 78 -10 98q-18 35 -59 48t-111 13 h-170l-101 -436q-12 -53 -12 -96q0 -52 43 -72t176 -20q144 0 235 15.5t128.5 47t87.5 104.5t98 165h68l-121 -406h-1102l12 61q124 7 158 21q50 21 68 96l98 428h-461q-150 -182 -258 -342q-47 -66 -47 -112q0 -40 30 -61.5t113 -29.5l-12 -61h-512zM537 690h417l150 647 h-68z" />
<glyph unicode="&#xc7;" horiz-adv-x="1280" d="M109 522q0 238 108 454t293.5 345t390.5 129q231 0 371 -104l47 73h78l-109 -499h-69v51q0 150 -35.5 235t-108.5 125.5t-178 40.5q-165 0 -314 -108.5t-232 -291t-83 -399.5q0 -143 53.5 -260.5t149 -182t215.5 -64.5q145 0 270 86.5t207 236.5l66 -37 q-115 -198 -262 -289.5t-336 -91.5q-151 0 -270 70.5t-185.5 197.5t-66.5 283zM381 -444l14 69q131 0 206 27t75 72q0 40 -37.5 58.5t-118.5 18.5l41 215h72l-23 -118q183 -11 183 -140q0 -202 -412 -202z" />
<glyph unicode="&#xc8;" horiz-adv-x="1309" d="M-27 0l13 61q123 7 157 21q50 21 68 96l246 1057q6 30 6 49q0 52 -144 70l-30 4l12 61h1063l-80 -332h-61q-7 244 -136 259q-108 6 -210 6h-252l-133 -580h213q86 0 133 20t83.5 75.5t63.5 129.5h64l-123 -534h-62l2 76q0 78 -10 98q-18 35 -59 48t-111 13h-213 l-100 -436q-13 -57 -13 -96q0 -52 43 -72t177 -20q155 0 260 15t139 42q83 65 192 275h68l-121 -406h-1145zM576 1798q0 29 18.5 49.5t44.5 20.5t47 -13.5t52 -44.5q134 -134 260 -254l-29 -38l-305 168q-55 32 -71.5 55.5t-16.5 56.5z" />
<glyph unicode="&#xc9;" horiz-adv-x="1309" d="M-27 0l13 61q123 7 157 21q50 21 68 96l246 1057q6 30 6 49q0 52 -144 70l-30 4l12 61h1063l-80 -332h-61q-7 244 -136 259q-108 6 -210 6h-252l-133 -580h213q86 0 133 20t83.5 75.5t63.5 129.5h64l-123 -534h-62l2 76q0 78 -10 98q-18 35 -59 48t-111 13h-213 l-100 -436q-13 -57 -13 -96q0 -52 43 -72t177 -20q155 0 260 15t139 42q83 65 192 275h68l-121 -406h-1145zM712 1556l78 75l127 124q88 88 109 100.5t45 12.5q26 0 44.5 -20.5t18.5 -49.5q0 -32 -16 -56t-72 -56l-305 -168z" />
<glyph unicode="&#xca;" horiz-adv-x="1309" d="M-27 0l13 61q123 7 157 21q50 21 68 96l246 1057q6 30 6 49q0 52 -144 70l-30 4l12 61h1063l-80 -332h-61q-7 244 -136 259q-108 6 -210 6h-252l-133 -580h213q86 0 133 20t83.5 75.5t63.5 129.5h64l-123 -534h-62l2 76q0 78 -10 98q-18 35 -59 48t-111 13h-213 l-100 -436q-13 -57 -13 -96q0 -52 43 -72t177 -20q155 0 260 15t139 42q83 65 192 275h68l-121 -406h-1145zM533 1538l291 285q18 18 39.5 31.5t60.5 13.5q43 0 57.5 -13.5t22.5 -27.5l180 -289l-49 -31l-236 211l-319 -211z" />
<glyph unicode="&#xcb;" horiz-adv-x="1309" d="M-27 0l13 61q123 7 157 21q50 21 68 96l246 1057q6 30 6 49q0 52 -144 70l-30 4l12 61h1063l-80 -332h-61q-7 244 -136 259q-108 6 -210 6h-252l-133 -580h213q86 0 133 20t83.5 75.5t63.5 129.5h64l-123 -534h-62l2 76q0 78 -10 98q-18 35 -59 48t-111 13h-213 l-100 -436q-13 -57 -13 -96q0 -52 43 -72t177 -20q155 0 260 15t139 42q83 65 192 275h68l-121 -406h-1145zM573 1745q0 43 23 72.5t65 29.5t65 -29.5t23 -72.5q0 -42 -23 -71t-65 -29t-65 29t-23 71zM981 1745q0 43 23 72.5t65 29.5t65 -29.5t23 -72.5q0 -42 -23 -71 t-65 -29t-65 29t-23 71z" />
<glyph unicode="&#xcc;" horiz-adv-x="729" d="M-39 0l12 61q131 9 152 17q69 26 86 98l244 1051q8 29 8 49q0 41 -68 60t-123 22l13 61h565l-14 -61q-107 -8 -164 -28.5t-74 -92.5l-233 -1016q-11 -38 -11 -69q0 -45 51 -65.5t134 -25.5l-13 -61h-565zM363 1798q0 29 18.5 49.5t44.5 20.5t47 -13.5t52 -44.5 q134 -134 260 -254l-29 -38l-305 168q-55 32 -71.5 55.5t-16.5 56.5z" />
<glyph unicode="&#xcd;" horiz-adv-x="729" d="M-39 0l12 61q131 9 152 17q69 26 86 98l244 1051q8 29 8 49q0 41 -68 60t-123 22l13 61h565l-14 -61q-107 -8 -164 -28.5t-74 -92.5l-233 -1016q-11 -38 -11 -69q0 -45 51 -65.5t134 -25.5l-13 -61h-565zM454 1556l78 75l127 124q88 88 109 100.5t45 12.5 q26 0 44.5 -20.5t18.5 -49.5q0 -32 -16 -56t-72 -56l-305 -168z" />
<glyph unicode="&#xce;" horiz-adv-x="729" d="M-39 0l12 61q131 9 152 17q69 26 86 98l244 1051q8 29 8 49q0 41 -68 60t-123 22l13 61h565l-14 -61q-107 -8 -164 -28.5t-74 -92.5l-233 -1016q-11 -38 -11 -69q0 -45 51 -65.5t134 -25.5l-13 -61h-565zM264 1538l291 285q18 18 39.5 31.5t60.5 13.5q43 0 57.5 -13.5 t22.5 -27.5l180 -289l-49 -31l-236 211l-319 -211z" />
<glyph unicode="&#xcf;" horiz-adv-x="729" d="M-39 0l12 61q131 9 152 17q69 26 86 98l244 1051q8 29 8 49q0 41 -68 60t-123 22l13 61h565l-14 -61q-107 -8 -164 -28.5t-74 -92.5l-233 -1016q-11 -38 -11 -69q0 -45 51 -65.5t134 -25.5l-13 -61h-565zM324 1745q0 43 23 73t65 30t65 -30t23 -73q0 -42 -23 -71t-65 -29 t-65 29t-23 71zM731 1745q0 43 23 73t65 30t65.5 -30t23.5 -73q0 -42 -23.5 -71t-65.5 -29t-65 29t-23 71z" />
<glyph unicode="&#xd0;" horiz-adv-x="1446" d="M-14 0l12 61q109 6 145 21q50 21 68 96l123 531h-178l22 90h176l103 436q6 30 6 49q0 31 -50.5 49t-109.5 25l12 61h545q164 0 299.5 -70.5t203 -190.5t67.5 -279q0 -248 -115.5 -447t-325 -315.5t-446.5 -116.5h-557zM358 180q0 -60 53.5 -83t182.5 -23q191 0 345.5 99 t244.5 282.5t90 394.5q0 228 -131.5 364t-349.5 136l-170 -4l-127 -547h305l-19 -90h-307l-104 -453q-13 -49 -13 -76z" />
<glyph unicode="&#xd1;" horiz-adv-x="1546" d="M-70 0l17 61l33 5q82 11 127 34t72.5 77t64.5 208l178 766q8 32 8 63q0 45 -45 90.5t-174 53.5l16 61h348l582 -1165l178 766q7 28 17 89.5t10 96.5q0 63 -25 90q-26 39 -186 62l12 61h576l-17 -61l-33 -5q-85 -11 -128.5 -34t-71.5 -78t-64 -207l-243 -1052h-47 l-611 1230l-190 -813q-7 -28 -17 -89.5t-10 -96.5q0 -63 25 -90q26 -39 186 -62l-12 -61h-576zM661 1611q41 88 72.5 128.5t70 63t84.5 22.5q47 0 83.5 -15.5t67.5 -34.5t59 -34.5t59 -15.5q52 0 83.5 26.5t69.5 104.5l56 -25q-36 -102 -97 -157.5t-137 -54.5 q-50 -1 -86.5 14.5t-67 34t-60 34t-64.5 16.5q-40 -1 -68.5 -27t-71.5 -102z" />
<glyph unicode="&#xd2;" horiz-adv-x="1446" d="M109 539q0 237 110.5 448.5t297.5 336t388 124.5q237 0 378.5 -158.5t141.5 -419.5q0 -230 -108 -435t-300 -336.5t-388 -131.5q-236 0 -378 157t-142 415zM266 518q0 -228 97.5 -349.5t279.5 -121.5q176 0 316.5 114t223.5 321t83 429q0 218 -98 338.5t-279 120.5 q-131 0 -244.5 -65.5t-197 -186t-132.5 -284.5t-49 -316zM705 1798q0 29 18.5 49.5t44.5 20.5t47 -13.5t52 -44.5q134 -134 260 -254l-29 -38l-305 168q-55 32 -71.5 55.5t-16.5 56.5z" />
<glyph unicode="&#xd3;" horiz-adv-x="1446" d="M109 539q0 237 110.5 448.5t297.5 336t388 124.5q237 0 378.5 -158.5t141.5 -419.5q0 -230 -108 -435t-300 -336.5t-388 -131.5q-236 0 -378 157t-142 415zM266 518q0 -228 97.5 -349.5t279.5 -121.5q176 0 316.5 114t223.5 321t83 429q0 218 -98 338.5t-279 120.5 q-131 0 -244.5 -65.5t-197 -186t-132.5 -284.5t-49 -316zM733 1556l78 75l127 124q88 88 109 100.5t45 12.5q26 0 44.5 -20.5t18.5 -49.5q0 -32 -16 -56t-72 -56l-305 -168z" />
<glyph unicode="&#xd4;" horiz-adv-x="1446" d="M109 539q0 237 110.5 448.5t297.5 336t388 124.5q237 0 378.5 -158.5t141.5 -419.5q0 -230 -108 -435t-300 -336.5t-388 -131.5q-236 0 -378 157t-142 415zM266 518q0 -228 97.5 -349.5t279.5 -121.5q176 0 316.5 114t223.5 321t83 429q0 218 -98 338.5t-279 120.5 q-131 0 -244.5 -65.5t-197 -186t-132.5 -284.5t-49 -316zM574 1538l291 285q18 18 39.5 31.5t60.5 13.5q43 0 57.5 -13.5t22.5 -27.5l180 -289l-49 -31l-236 211l-319 -211z" />
<glyph unicode="&#xd5;" horiz-adv-x="1446" d="M109 539q0 237 110.5 448.5t297.5 336t388 124.5q237 0 378.5 -158.5t141.5 -419.5q0 -230 -108 -435t-300 -336.5t-388 -131.5q-236 0 -378 157t-142 415zM266 518q0 -228 97.5 -349.5t279.5 -121.5q176 0 316.5 114t223.5 321t83 429q0 218 -98 338.5t-279 120.5 q-131 0 -244.5 -65.5t-197 -186t-132.5 -284.5t-49 -316zM594 1611q41 88 72.5 128.5t70 63t84.5 22.5q47 0 83.5 -15.5t67.5 -34.5t59 -34.5t59 -15.5q52 0 83.5 26.5t69.5 104.5l56 -25q-36 -102 -97 -157.5t-137 -54.5q-50 -1 -86.5 14.5t-67 34t-60 34t-64.5 16.5 q-40 -1 -68.5 -27t-71.5 -102z" />
<glyph unicode="&#xd6;" horiz-adv-x="1446" d="M109 539q0 237 110.5 448.5t297.5 336t388 124.5q237 0 378.5 -158.5t141.5 -419.5q0 -230 -108 -435t-300 -336.5t-388 -131.5q-236 0 -378 157t-142 415zM266 518q0 -228 97.5 -349.5t279.5 -121.5q176 0 316.5 114t223.5 321t83 429q0 218 -98 338.5t-279 120.5 q-131 0 -244.5 -65.5t-197 -186t-132.5 -284.5t-49 -316zM647 1745q0 43 23 72.5t65 29.5t65 -29.5t23 -72.5q0 -42 -23 -71t-65 -29t-65 29t-23 71zM1055 1745q0 43 23 72.5t65 29.5t65 -29.5t23 -72.5q0 -42 -23 -71t-65 -29t-65 29t-23 71z" />
<glyph unicode="&#xd7;" d="M221 203l354 348l-354 352l76 74l348 -350l352 350l76 -74l-354 -352l354 -348l-76 -76l-352 352l-348 -354z" />
<glyph unicode="&#xd8;" horiz-adv-x="1446" d="M43 39l158 151q-92 147 -92 349q0 237 110.5 448.5t297.5 336t388 124.5q131 0 237 -51.5t171 -145.5l141 135l59 -59l-155 -147q67 -136 67 -310q0 -230 -108 -435t-300 -336.5t-388 -131.5q-238 0 -379 158l-152 -143zM266 518q0 -143 35 -233l920 878 q-91 207 -332 207q-131 0 -244.5 -65.5t-197 -186t-132.5 -284.5t-49 -316zM336 207q95 -160 307 -160q176 0 316.5 114t223.5 321t83 429q0 91 -17 164z" />
<glyph unicode="&#xd9;" horiz-adv-x="1597" d="M213 287q0 57 18 131l191 815q6 30 6 51q0 31 -51 49t-109 25l13 61h501l-14 -61q-105 -10 -148.5 -33.5t-58.5 -91.5l-192 -838q-13 -48 -13 -100q0 -64 39 -117t111.5 -85t175.5 -32q192 0 323.5 87t172.5 239q24 87 98 416.5t74 402.5q0 63 -25 90q-13 20 -64.5 37.5 t-121.5 24.5l12 61h575l-16 -61l-33 -5q-90 -12 -133 -36.5t-68.5 -78.5t-58.5 -196l-47 -222q-22 -99 -98 -417q-55 -211 -214 -323.5t-401 -112.5q-125 0 -227.5 43t-159.5 116.5t-57 160.5zM723 1798q0 29 18.5 49.5t44.5 20.5t47 -13.5t52 -44.5q134 -134 260 -254 l-29 -38l-305 168q-55 32 -71.5 55.5t-16.5 56.5z" />
<glyph unicode="&#xda;" horiz-adv-x="1597" d="M213 287q0 57 18 131l191 815q6 30 6 51q0 31 -51 49t-109 25l13 61h501l-14 -61q-105 -10 -148.5 -33.5t-58.5 -91.5l-192 -838q-13 -48 -13 -100q0 -64 39 -117t111.5 -85t175.5 -32q192 0 323.5 87t172.5 239q24 87 98 416.5t74 402.5q0 63 -25 90q-13 20 -64.5 37.5 t-121.5 24.5l12 61h575l-16 -61l-33 -5q-90 -12 -133 -36.5t-68.5 -78.5t-58.5 -196l-47 -222q-22 -99 -98 -417q-55 -211 -214 -323.5t-401 -112.5q-125 0 -227.5 43t-159.5 116.5t-57 160.5zM831 1556l78 75l127 124q88 88 109 100.5t45 12.5q26 0 44.5 -20.5t18.5 -49.5 q0 -32 -16 -56t-72 -56l-305 -168z" />
<glyph unicode="&#xdb;" horiz-adv-x="1597" d="M213 287q0 57 18 131l191 815q6 30 6 51q0 31 -51 49t-109 25l13 61h501l-14 -61q-105 -10 -148.5 -33.5t-58.5 -91.5l-192 -838q-13 -48 -13 -100q0 -64 39 -117t111.5 -85t175.5 -32q192 0 323.5 87t172.5 239q24 87 98 416.5t74 402.5q0 63 -25 90q-13 20 -64.5 37.5 t-121.5 24.5l12 61h575l-16 -61l-33 -5q-90 -12 -133 -36.5t-68.5 -78.5t-58.5 -196l-47 -222q-22 -99 -98 -417q-55 -211 -214 -323.5t-401 -112.5q-125 0 -227.5 43t-159.5 116.5t-57 160.5zM662 1538l291 285q18 18 39.5 31.5t60.5 13.5q43 0 57.5 -13.5t22.5 -27.5 l180 -289l-49 -31l-236 211l-319 -211z" />
<glyph unicode="&#xdc;" horiz-adv-x="1597" d="M213 287q0 57 18 131l191 815q6 30 6 51q0 31 -51 49t-109 25l13 61h501l-14 -61q-105 -10 -148.5 -33.5t-58.5 -91.5l-192 -838q-13 -48 -13 -100q0 -64 39 -117t111.5 -85t175.5 -32q192 0 323.5 87t172.5 239q24 87 98 416.5t74 402.5q0 63 -25 90q-13 20 -64.5 37.5 t-121.5 24.5l12 61h575l-16 -61l-33 -5q-90 -12 -133 -36.5t-68.5 -78.5t-58.5 -196l-47 -222q-22 -99 -98 -417q-55 -211 -214 -323.5t-401 -112.5q-125 0 -227.5 43t-159.5 116.5t-57 160.5zM727 1745q0 43 23 72.5t65 29.5t65 -29.5t23 -72.5q0 -42 -23 -71t-65 -29 t-65 29t-23 71zM1135 1745q0 43 23 72.5t65 29.5t65 -29.5t23 -72.5q0 -42 -23 -71t-65 -29t-65 29t-23 71z" />
<glyph unicode="&#xdd;" horiz-adv-x="1180" d="M154 1358l16 61h473l-14 -61l-54 -3q-116 -6 -116 -50q0 -55 176 -621q67 82 136 166t130.5 159.5t111 137.5t77.5 100q16 23 16 45q0 55 -116 62l-60 4l16 61h486l-17 -61q-63 -9 -101 -25.5t-80 -57t-167 -183.5t-237 -283t-135.5 -176t-36 -73t-80.5 -347 q-11 -41 -11 -70q0 -30 40.5 -50t166.5 -32l-12 -61h-606l12 61l40 3q108 6 144 18q57 22 74 94l72 307q14 63 14 82q0 57 -58 249.5t-122 377.5q-31 87 -56.5 114.5t-53.5 37.5t-68 14zM676 1556l78 75l127 124q88 88 109 100.5t45 12.5q26 0 44.5 -20.5t18.5 -49.5 q0 -32 -16 -56t-72 -56l-305 -168z" />
<glyph unicode="&#xde;" horiz-adv-x="1194" d="M-6 0l12 61l37 3q93 7 124.5 31t45.5 83l240 1039q8 29 8 67q0 31 -50.5 49t-109.5 25l12 61h502l-14 -61q-103 -9 -147 -32.5t-59.5 -95.5t-21.5 -104h256q161 0 256 -82.5t95 -224.5q0 -128 -74.5 -236.5t-207.5 -174.5t-273 -66h-228q-20 -85 -32 -134t-9 -58 q0 -35 21 -52.5t74.5 -27t85.5 -9.5l-17 -61h-526zM416 420h176q126 0 220.5 49t146 146t51.5 200q0 112 -67 175t-185 63h-201z" />
<glyph unicode="&#xdf;" horiz-adv-x="993" d="M-399 -352q0 34 20 56t57 22q29 0 51.5 -13.5t67.5 -74.5q94 6 162 105t107 280l208 985q56 261 191.5 401.5t310.5 140.5q112 0 178 -61.5t66 -161.5q0 -147 -87 -246.5t-263 -142.5v-6q118 -32 184 -117.5t66 -204.5q0 -160 -73.5 -303t-206 -230t-280.5 -87 q-44 0 -71 8l14 76q56 -13 96 -13q109 0 198 76.5t140 210.5t51 285q0 121 -64.5 191.5t-174.5 70.5h-14l18 78h29q84 0 165.5 49.5t122.5 126.5t41 174q0 74 -46 118t-122 44q-136 0 -216.5 -101.5t-129.5 -334.5l-209 -990q-48 -228 -178.5 -365.5t-288.5 -137.5 q-51 0 -85.5 26.5t-34.5 65.5z" />
<glyph unicode="&#xe0;" horiz-adv-x="1124" d="M72 346q0 166 81.5 319t217.5 247t286 94q107 0 195 -38l39 -18l123 39l8 -12l-154 -662q-12 -55 -21 -96.5t-9 -68.5q0 -68 86 -68q83 0 123 16l-11 -53q-41 -25 -105.5 -43t-109.5 -18q-110 0 -110 110q0 27 4 49h-8l-62 -54q-128 -116 -262 -116q-146 0 -228.5 102 t-82.5 271zM203 332q0 -123 52 -194.5t157 -71.5q68 0 144.5 37t176.5 128l127 543q0 79 -57.5 125.5t-145.5 46.5q-114 0 -222.5 -88t-170 -229.5t-61.5 -296.5zM499 1466q0 26 16.5 47t45.5 21q34 0 59 -24t80 -115q71 -118 158 -250l-39 -31l-256 242q-64 55 -64 110z " />
<glyph unicode="&#xe1;" horiz-adv-x="1124" d="M72 346q0 166 81.5 319t217.5 247t286 94q107 0 195 -38l39 -18l123 39l8 -12l-154 -662q-12 -55 -21 -96.5t-9 -68.5q0 -68 86 -68q83 0 123 16l-11 -53q-41 -25 -105.5 -43t-109.5 -18q-110 0 -110 110q0 27 4 49h-8l-62 -54q-128 -116 -262 -116q-146 0 -228.5 102 t-82.5 271zM203 332q0 -123 52 -194.5t157 -71.5q68 0 144.5 37t176.5 128l127 543q0 79 -57.5 125.5t-145.5 46.5q-114 0 -222.5 -88t-170 -229.5t-61.5 -296.5zM590 1145l117 188q95 154 120.5 177.5t57.5 23.5q29 0 45 -20t16 -46q0 -40 -24.5 -74t-135.5 -135l-159 -145 z" />
<glyph unicode="&#xe2;" horiz-adv-x="1124" d="M72 346q0 166 81.5 319t217.5 247t286 94q107 0 195 -38l39 -18l123 39l8 -12l-154 -662q-12 -55 -21 -96.5t-9 -68.5q0 -68 86 -68q83 0 123 16l-11 -53q-41 -25 -105.5 -43t-109.5 -18q-110 0 -110 110q0 27 4 49h-8l-62 -54q-128 -116 -262 -116q-146 0 -228.5 102 t-82.5 271zM203 332q0 -123 52 -194.5t157 -71.5q68 0 144.5 37t176.5 128l127 543q0 79 -57.5 125.5t-145.5 46.5q-114 0 -222.5 -88t-170 -229.5t-61.5 -296.5zM346 1169l303 334q31 35 72 35q43 0 63 -43l162 -338l-47 -31l-197 265l-315 -265z" />
<glyph unicode="&#xe3;" horiz-adv-x="1124" d="M72 346q0 166 81.5 319t217.5 247t286 94q107 0 195 -38l39 -18l123 39l8 -12l-154 -662q-12 -55 -21 -96.5t-9 -68.5q0 -68 86 -68q83 0 123 16l-11 -53q-41 -25 -105.5 -43t-109.5 -18q-110 0 -110 110q0 27 4 49h-8l-62 -54q-128 -116 -262 -116q-146 0 -228.5 102 t-82.5 271zM203 332q0 -123 52 -194.5t157 -71.5q68 0 144.5 37t176.5 128l127 543q0 79 -57.5 125.5t-145.5 46.5q-114 0 -222.5 -88t-170 -229.5t-61.5 -296.5zM332 1240q41 88 72.5 128.5t70 63t84.5 22.5q47 0 83.5 -15.5t67.5 -34.5t59 -34.5t59 -15.5q52 0 83.5 26.5 t69.5 104.5l56 -25q-36 -102 -97 -157.5t-137 -54.5q-50 -1 -86.5 14.5t-67 34t-60 34t-64.5 16.5q-40 -1 -68.5 -27t-71.5 -102z" />
<glyph unicode="&#xe4;" horiz-adv-x="1124" d="M72 346q0 166 81.5 319t217.5 247t286 94q107 0 195 -38l39 -18l123 39l8 -12l-154 -662q-12 -55 -21 -96.5t-9 -68.5q0 -68 86 -68q83 0 123 16l-11 -53q-41 -25 -105.5 -43t-109.5 -18q-110 0 -110 110q0 27 4 49h-8l-62 -54q-128 -116 -262 -116q-146 0 -228.5 102 t-82.5 271zM203 332q0 -123 52 -194.5t157 -71.5q68 0 144.5 37t176.5 128l127 543q0 79 -57.5 125.5t-145.5 46.5q-114 0 -222.5 -88t-170 -229.5t-61.5 -296.5zM397 1370q0 43 23 73t65 30t65 -30t23 -73q0 -42 -23 -71t-65 -29t-65 29t-23 71zM804 1370q0 43 23 73t65 30 t65.5 -30t23.5 -73q0 -42 -23.5 -71t-65.5 -29t-65 29t-23 71z" />
<glyph unicode="&#xe5;" horiz-adv-x="1124" d="M72 346q0 166 81.5 319t217.5 247t286 94q107 0 195 -38l39 -18l123 39l8 -12l-154 -662q-12 -55 -21 -96.5t-9 -68.5q0 -68 86 -68q83 0 123 16l-11 -53q-41 -25 -105.5 -43t-109.5 -18q-110 0 -110 110q0 27 4 49h-8l-62 -54q-128 -116 -262 -116q-146 0 -228.5 102 t-82.5 271zM203 332q0 -123 52 -194.5t157 -71.5q68 0 144.5 37t176.5 128l127 543q0 79 -57.5 125.5t-145.5 46.5q-114 0 -222.5 -88t-170 -229.5t-61.5 -296.5zM443 1296q0 108 77.5 183t200.5 75q98 0 157.5 -51t59.5 -133q0 -68 -34.5 -126t-98 -91t-143.5 -33 q-100 0 -159.5 48t-59.5 128zM553 1300q0 -54 30 -87t83 -33q70 0 114 52.5t44 135.5q0 56 -28.5 91.5t-82.5 35.5q-71 0 -115.5 -56t-44.5 -139z" />
<glyph unicode="&#xe6;" horiz-adv-x="1436" d="M39 172q0 109 64 193.5t191.5 133.5t256.5 68l106 17l13 46q24 73 24 132q0 78 -50 128t-132 50q-50 0 -103.5 -17t-95.5 -44q0 -106 -22.5 -153.5t-75.5 -47.5q-31 0 -48 17t-17 48q0 61 58 122.5t152.5 101t182.5 39.5q102 0 164.5 -36t91.5 -120q67 73 161 114.5 t199 41.5q114 0 175 -53t61 -144q0 -108 -66 -187t-207.5 -127.5t-382.5 -68.5q0 -184 56 -272t182 -88q169 0 317 204l49 -34q-83 -123 -194.5 -193t-228.5 -70q-202 0 -277 197h-6q-88 -100 -173 -146.5t-177 -46.5q-124 0 -186 51.5t-62 143.5zM176 193q0 -59 34 -92 t93 -33q190 0 322 170q-9 47 -9 102q0 89 17 170q-213 -21 -335 -105t-122 -212zM743 489q162 13 249.5 35.5t155 66.5t100 101t32.5 125q0 60 -33 91.5t-84 31.5q-91 0 -182 -61.5t-154.5 -165.5t-83.5 -224z" />
<glyph unicode="&#xe7;" horiz-adv-x="897" d="M72 348q0 176 73 332.5t195 241t268 84.5q122 0 195.5 -53t73.5 -142q0 -68 -28 -115t-75 -47q-42 0 -61 21.5t-19 50.5q0 39 51 166q-13 22 -56 37.5t-93 15.5q-102 0 -194.5 -76.5t-146.5 -209t-54 -289.5q0 -134 71 -216.5t187 -82.5q176 0 329 202l50 -32 q-76 -117 -196 -190t-230 -73q-162 0 -251 99.5t-89 275.5zM209 -444l14 69q131 0 206 27t75 72q0 40 -37.5 58.5t-118.5 18.5l41 215h72l-23 -118q183 -11 183 -140q0 -202 -412 -202z" />
<glyph unicode="&#xe8;" horiz-adv-x="922" d="M70 348q0 167 77 322t210 245.5t288 90.5q114 0 175 -53t61 -144q0 -108 -70.5 -187.5t-230.5 -132t-387 -83.5v-18q0 -156 63.5 -239t187.5 -83q178 0 336 204l49 -34q-81 -120 -199 -191.5t-239 -71.5q-154 0 -237.5 98t-83.5 277zM201 469q178 24 264.5 50.5t159 72 t107 102t34.5 123.5q0 57 -32.5 90t-92.5 33q-101 0 -196 -62.5t-160 -171.5t-84 -237zM372 1466q0 26 16.5 47t45.5 21q34 0 59 -24t80 -115q71 -118 158 -250l-39 -31l-256 242q-64 55 -64 110z" />
<glyph unicode="&#xe9;" horiz-adv-x="922" d="M70 348q0 167 77 322t210 245.5t288 90.5q114 0 175 -53t61 -144q0 -108 -70.5 -187.5t-230.5 -132t-387 -83.5v-18q0 -156 63.5 -239t187.5 -83q178 0 336 204l49 -34q-81 -120 -199 -191.5t-239 -71.5q-154 0 -237.5 98t-83.5 277zM201 469q178 24 264.5 50.5t159 72 t107 102t34.5 123.5q0 57 -32.5 90t-92.5 33q-101 0 -196 -62.5t-160 -171.5t-84 -237zM493 1145l117 188q95 154 120.5 177.5t57.5 23.5q29 0 45 -20t16 -46q0 -40 -24.5 -74t-135.5 -135l-159 -145z" />
<glyph unicode="&#xea;" horiz-adv-x="922" d="M70 348q0 167 77 322t210 245.5t288 90.5q114 0 175 -53t61 -144q0 -108 -70.5 -187.5t-230.5 -132t-387 -83.5v-18q0 -156 63.5 -239t187.5 -83q178 0 336 204l49 -34q-81 -120 -199 -191.5t-239 -71.5q-154 0 -237.5 98t-83.5 277zM201 469q178 24 264.5 50.5t159 72 t107 102t34.5 123.5q0 57 -32.5 90t-92.5 33q-101 0 -196 -62.5t-160 -171.5t-84 -237zM309 1169l303 334q31 35 72 35q43 0 63 -43l162 -338l-47 -31l-197 265l-315 -265z" />
<glyph unicode="&#xeb;" horiz-adv-x="922" d="M70 348q0 167 77 322t210 245.5t288 90.5q114 0 175 -53t61 -144q0 -108 -70.5 -187.5t-230.5 -132t-387 -83.5v-18q0 -156 63.5 -239t187.5 -83q178 0 336 204l49 -34q-81 -120 -199 -191.5t-239 -71.5q-154 0 -237.5 98t-83.5 277zM201 469q178 24 264.5 50.5t159 72 t107 102t34.5 123.5q0 57 -32.5 90t-92.5 33q-101 0 -196 -62.5t-160 -171.5t-84 -237zM330 1370q0 43 23 73t65 30t65 -30t23 -73q0 -42 -23 -71t-65 -29t-65 29t-23 71zM737 1370q0 43 23 73t65 30t65.5 -30t23.5 -73q0 -42 -23.5 -71t-65.5 -29t-65 29t-23 71z" />
<glyph unicode="&#xec;" horiz-adv-x="537" d="M92 891l10 53q44 25 106 43.5t107 18.5q105 0 105 -111q0 -41 -19 -117l-110 -465q-29 -111 -29 -163q0 -68 86 -68q83 0 123 16l-10 -53q-41 -25 -105.5 -43t-109.5 -18q-111 0 -111 110q0 41 19 117l110 465q29 116 29 164q0 67 -82 67q-58 0 -119 -16zM186 1466 q0 26 16.5 47t45.5 21q34 0 59 -24t80 -115q71 -118 158 -250l-39 -31l-256 242q-64 55 -64 110z" />
<glyph unicode="&#xed;" horiz-adv-x="537" d="M92 891l10 53q44 25 106 43.5t107 18.5q105 0 105 -111q0 -41 -19 -117l-110 -465q-29 -111 -29 -163q0 -68 86 -68q83 0 123 16l-10 -53q-41 -25 -105.5 -43t-109.5 -18q-111 0 -111 110q0 41 19 117l110 465q29 116 29 164q0 67 -82 67q-58 0 -119 -16zM258 1145 l117 188q95 154 120.5 177.5t57.5 23.5q29 0 45 -20t16 -46q0 -40 -24.5 -74t-135.5 -135l-159 -145z" />
<glyph unicode="&#xee;" horiz-adv-x="537" d="M43 1169l303 334q31 35 72 35q43 0 63 -43l162 -338l-47 -31l-197 265l-315 -265zM92 891l10 53q44 25 106 43.5t107 18.5q105 0 105 -111q0 -41 -19 -117l-110 -465q-29 -111 -29 -163q0 -68 86 -68q83 0 123 16l-10 -53q-41 -25 -105.5 -43t-109.5 -18q-111 0 -111 110 q0 41 19 117l110 465q29 116 29 164q0 67 -82 67q-58 0 -119 -16z" />
<glyph unicode="&#xef;" horiz-adv-x="537" d="M92 891l10 53q44 25 106 43.5t107 18.5q105 0 105 -111q0 -41 -19 -117l-110 -465q-29 -111 -29 -163q0 -68 86 -68q83 0 123 16l-10 -53q-41 -25 -105.5 -43t-109.5 -18q-111 0 -111 110q0 41 19 117l110 465q29 116 29 164q0 67 -82 67q-58 0 -119 -16zM131 1370 q0 43 23 73t65 30t65 -30t23 -73q0 -42 -23 -71t-65 -29t-65 29t-23 71zM538 1370q0 43 23 73t65 30t65.5 -30t23.5 -73q0 -42 -23.5 -71t-65.5 -29t-65 29t-23 71z" />
<glyph unicode="&#xf0;" horiz-adv-x="1024" d="M70 356q0 171 70.5 310.5t194 217t267.5 77.5q81 0 149 -41.5t95 -102.5l8 2v27q0 114 -33.5 235.5t-85.5 208.5l-270 -141l-39 70l272 141q-48 94 -131 151l45 56q94 -56 176 -166l226 117l43 -74l-228 -109q146 -231 146 -499q0 -257 -70.5 -456.5t-200.5 -304 t-303 -104.5q-97 0 -172 45.5t-117 132.5t-42 207zM199 326q0 -131 60 -209t165 -78q102 0 190.5 77.5t146.5 221.5t58 289q0 122 -64.5 196t-168.5 74q-184 0 -285.5 -150t-101.5 -421z" />
<glyph unicode="&#xf1;" horiz-adv-x="1147" d="M106 881l11 53q123 59 213 59q51 0 70.5 -28.5t19.5 -83.5l-2 -41h6q79 73 185.5 119.5t195.5 46.5q90 0 145.5 -54t55.5 -141q0 -54 -25 -158q-100 -390 -109.5 -432t-9.5 -71q0 -68 86 -68q83 0 123 16l-10 -53q-41 -25 -105.5 -43t-109.5 -18q-111 0 -111 110 q0 51 19 117l104 399q29 116 29 174q0 53 -41 91t-109 38q-75 0 -168 -47.5t-168 -126.5l-170 -739h-112l158 695q18 78 18 126q0 44 -17.5 60t-60.5 16q-55 0 -111 -16zM358 1240q41 88 72.5 128.5t70 63t84.5 22.5q47 0 83.5 -15.5t67.5 -34.5t59 -34.5t59 -15.5 q52 0 83.5 26.5t69.5 104.5l56 -25q-36 -102 -97 -157.5t-137 -54.5q-50 -1 -86.5 14.5t-67 34t-60 34t-64.5 16.5q-40 -1 -68.5 -27t-71.5 -102z" />
<glyph unicode="&#xf2;" horiz-adv-x="1038" d="M68 350q0 180 77.5 334t205.5 238t280 84q155 0 247.5 -104.5t92.5 -274.5q0 -176 -76.5 -332t-205.5 -240t-286 -84q-148 0 -241.5 103t-93.5 276zM195 360q0 -160 60 -240.5t175 -80.5q121 0 215.5 76.5t146.5 210t52 297.5q0 154 -60 234.5t-174 80.5 q-118 0 -210.5 -70t-148.5 -210.5t-56 -297.5zM448 1466q0 26 16.5 47t45.5 21q34 0 59 -24t80 -115q71 -118 158 -250l-39 -31l-256 242q-64 55 -64 110z" />
<glyph unicode="&#xf3;" horiz-adv-x="1038" d="M68 350q0 180 77.5 334t205.5 238t280 84q155 0 247.5 -104.5t92.5 -274.5q0 -176 -76.5 -332t-205.5 -240t-286 -84q-148 0 -241.5 103t-93.5 276zM195 360q0 -160 60 -240.5t175 -80.5q121 0 215.5 76.5t146.5 210t52 297.5q0 154 -60 234.5t-174 80.5 q-118 0 -210.5 -70t-148.5 -210.5t-56 -297.5zM498 1145l117 188q95 154 120.5 177.5t57.5 23.5q29 0 45 -20t16 -46q0 -40 -24.5 -74t-135.5 -135l-159 -145z" />
<glyph unicode="&#xf4;" horiz-adv-x="1038" d="M68 350q0 180 77.5 334t205.5 238t280 84q155 0 247.5 -104.5t92.5 -274.5q0 -176 -76.5 -332t-205.5 -240t-286 -84q-148 0 -241.5 103t-93.5 276zM195 360q0 -160 60 -240.5t175 -80.5q121 0 215.5 76.5t146.5 210t52 297.5q0 154 -60 234.5t-174 80.5 q-118 0 -210.5 -70t-148.5 -210.5t-56 -297.5zM328 1169l303 334q31 35 72 35q43 0 63 -43l162 -338l-47 -31l-197 265l-315 -265z" />
<glyph unicode="&#xf5;" horiz-adv-x="1038" d="M68 350q0 180 77.5 334t205.5 238t280 84q155 0 247.5 -104.5t92.5 -274.5q0 -176 -76.5 -332t-205.5 -240t-286 -84q-148 0 -241.5 103t-93.5 276zM195 360q0 -160 60 -240.5t175 -80.5q121 0 215.5 76.5t146.5 210t52 297.5q0 154 -60 234.5t-174 80.5 q-118 0 -210.5 -70t-148.5 -210.5t-56 -297.5zM311 1240q41 88 72.5 128.5t70 63t84.5 22.5q47 0 83.5 -15.5t67.5 -34.5t59 -34.5t59 -15.5q52 0 83.5 26.5t69.5 104.5l56 -25q-36 -102 -97 -157.5t-137 -54.5q-50 -1 -86.5 14.5t-67 34t-60 34t-64.5 16.5 q-40 -1 -68.5 -27t-71.5 -102z" />
<glyph unicode="&#xf6;" horiz-adv-x="1038" d="M68 350q0 180 77.5 334t205.5 238t280 84q155 0 247.5 -104.5t92.5 -274.5q0 -176 -76.5 -332t-205.5 -240t-286 -84q-148 0 -241.5 103t-93.5 276zM195 360q0 -160 60 -240.5t175 -80.5q121 0 215.5 76.5t146.5 210t52 297.5q0 154 -60 234.5t-174 80.5 q-118 0 -210.5 -70t-148.5 -210.5t-56 -297.5zM359 1370q0 43 23 73t65 30t65 -30t23 -73q0 -42 -23 -71t-65 -29t-65 29t-23 71zM766 1370q0 43 23 73t65 30t65.5 -30t23.5 -73q0 -42 -23.5 -71t-65.5 -29t-65 29t-23 71z" />
<glyph unicode="&#xf7;" d="M164 500v106h985v-106h-985zM543 147q0 45 33 77t79 32q45 0 79 -32.5t34 -76.5q0 -46 -33.5 -76t-79.5 -30q-48 0 -80 30.5t-32 75.5zM543 958q0 47 33 77t79 30q45 0 79 -30.5t34 -76.5t-34 -77t-79 -31q-47 0 -79.5 31.5t-32.5 76.5z" />
<glyph unicode="&#xf8;" horiz-adv-x="1038" d="M-29 45l133 117q-36 90 -36 188q0 180 77.5 334t205.5 238t280 84q181 0 272 -138l109 97l43 -47l-121 -107q37 -82 37 -184q0 -176 -76.5 -332t-205.5 -240t-286 -84q-170 0 -268 135l-121 -106zM195 360q0 -68 8 -110l614 543q-51 145 -207 145q-118 0 -210.5 -70 t-148.5 -210.5t-56 -297.5zM221 182q54 -143 209 -143q121 0 215.5 76.5t146.5 210t52 297.5q0 67 -8 102z" />
<glyph unicode="&#xf9;" horiz-adv-x="1106" d="M72 877l14 53q126 63 207 63q98 0 98 -100q0 -59 -20 -139l-86 -383q-27 -108 -27 -166q0 -60 41 -96.5t111 -36.5q68 0 158.5 46.5t158.5 114.5l176 746l103 10l12 -14l-158 -658q-5 -24 -10.5 -48.5t-10 -46.5t-7.5 -40.5t-3 -29.5q0 -42 26.5 -56t80.5 -14 q15 0 48.5 4t49.5 10l-10 -51q-116 -59 -215 -59q-52 0 -81.5 30.5t-29.5 85.5l2 27h-6q-113 -89 -191 -120.5t-159 -31.5q-91 0 -149 53.5t-58 143.5q0 57 23 156l78 334q26 121 26 161q0 35 -16 53.5t-60 18.5q-36 0 -116 -20zM428 1466q0 26 16.5 47t45.5 21q34 0 59 -24 t80 -115q71 -118 158 -250l-39 -31l-256 242q-64 55 -64 110z" />
<glyph unicode="&#xfa;" horiz-adv-x="1106" d="M72 877l14 53q126 63 207 63q98 0 98 -100q0 -59 -20 -139l-86 -383q-27 -108 -27 -166q0 -60 41 -96.5t111 -36.5q68 0 158.5 46.5t158.5 114.5l176 746l103 10l12 -14l-158 -658q-5 -24 -10.5 -48.5t-10 -46.5t-7.5 -40.5t-3 -29.5q0 -42 26.5 -56t80.5 -14 q15 0 48.5 4t49.5 10l-10 -51q-116 -59 -215 -59q-52 0 -81.5 30.5t-29.5 85.5l2 27h-6q-113 -89 -191 -120.5t-159 -31.5q-91 0 -149 53.5t-58 143.5q0 57 23 156l78 334q26 121 26 161q0 35 -16 53.5t-60 18.5q-36 0 -116 -20zM541 1145l117 188q95 154 120.5 177.5 t57.5 23.5q29 0 45 -20t16 -46q0 -40 -24.5 -74t-135.5 -135l-159 -145z" />
<glyph unicode="&#xfb;" horiz-adv-x="1106" d="M72 877l14 53q126 63 207 63q98 0 98 -100q0 -59 -20 -139l-86 -383q-27 -108 -27 -166q0 -60 41 -96.5t111 -36.5q68 0 158.5 46.5t158.5 114.5l176 746l103 10l12 -14l-158 -658q-5 -24 -10.5 -48.5t-10 -46.5t-7.5 -40.5t-3 -29.5q0 -42 26.5 -56t80.5 -14 q15 0 48.5 4t49.5 10l-10 -51q-116 -59 -215 -59q-52 0 -81.5 30.5t-29.5 85.5l2 27h-6q-113 -89 -191 -120.5t-159 -31.5q-91 0 -149 53.5t-58 143.5q0 57 23 156l78 334q26 121 26 161q0 35 -16 53.5t-60 18.5q-36 0 -116 -20zM348 1169l303 334q31 35 72 35q43 0 63 -43 l162 -338l-47 -31l-197 265l-315 -265z" />
<glyph unicode="&#xfc;" horiz-adv-x="1106" d="M72 877l14 53q126 63 207 63q98 0 98 -100q0 -59 -20 -139l-86 -383q-27 -108 -27 -166q0 -60 41 -96.5t111 -36.5q68 0 158.5 46.5t158.5 114.5l176 746l103 10l12 -14l-158 -658q-5 -24 -10.5 -48.5t-10 -46.5t-7.5 -40.5t-3 -29.5q0 -42 26.5 -56t80.5 -14 q15 0 48.5 4t49.5 10l-10 -51q-116 -59 -215 -59q-52 0 -81.5 30.5t-29.5 85.5l2 27h-6q-113 -89 -191 -120.5t-159 -31.5q-91 0 -149 53.5t-58 143.5q0 57 23 156l78 334q26 121 26 161q0 35 -16 53.5t-60 18.5q-36 0 -116 -20zM375 1370q0 43 23 73t65 30t65 -30t23 -73 q0 -42 -23 -71t-65 -29t-65 29t-23 71zM782 1370q0 43 23 73t65 30t65.5 -30t23.5 -73q0 -42 -23.5 -71t-65.5 -29t-65 29t-23 71z" />
<glyph unicode="&#xfd;" horiz-adv-x="1075" d="M2 -326q0 40 20 62t54 22q64 0 106 -97l19 -46h22q190 0 316 133t176 389h-8q-113 -89 -196 -124.5t-167 -35.5q-91 0 -149 53.5t-58 143.5q0 57 23 156l78 334q26 121 26 161q0 35 -16 53.5t-60 18.5q-36 0 -116 -20l14 53q126 63 207 63q98 0 98 -100q0 -59 -20 -139 l-86 -383q-27 -108 -27 -166q0 -60 41 -96.5t111 -36.5t163.5 45.5t159.5 111.5l172 750l101 10l10 -12l-170 -766q-58 -264 -136.5 -397t-201.5 -195.5t-307 -62.5q-199 0 -199 118zM541 1145l117 188q95 154 120.5 177.5t57.5 23.5q29 0 45 -20t16 -46q0 -40 -24.5 -74 t-135.5 -135l-159 -145z" />
<glyph unicode="&#xfe;" horiz-adv-x="1077" d="M-205 -444l15 59q84 6 106 12q59 20 74 92l358 1573q14 56 14 103q0 39 -28 52.5t-129 25.5l12 55l291 20l12 -12l-158 -670h9q89 78 159.5 109t135.5 31q155 0 247.5 -105t92.5 -278q0 -162 -73.5 -310t-205.5 -245t-272 -97q-175 0 -283 72q-34 -163 -52 -248.5 t-16 -103.5q0 -17 6 -28t25.5 -21t40 -15t98.5 -12l-14 -59h-465zM205 156q16 -46 83.5 -83.5t153.5 -37.5q114 0 215 80t159 217t58 295q0 135 -60 213t-183 78q-59 0 -122 -29t-165 -115z" />
<glyph unicode="&#xff;" horiz-adv-x="1075" d="M2 -326q0 40 20 62t54 22q64 0 106 -97l19 -46h22q190 0 316 133t176 389h-8q-113 -89 -196 -124.5t-167 -35.5q-91 0 -149 53.5t-58 143.5q0 57 23 156l78 334q26 121 26 161q0 35 -16 53.5t-60 18.5q-36 0 -116 -20l14 53q126 63 207 63q98 0 98 -100q0 -59 -20 -139 l-86 -383q-27 -108 -27 -166q0 -60 41 -96.5t111 -36.5t163.5 45.5t159.5 111.5l172 750l101 10l10 -12l-170 -766q-58 -264 -136.5 -397t-201.5 -195.5t-307 -62.5q-199 0 -199 118zM375 1370q0 43 23 73t65 30t65 -30t23 -73q0 -42 -23 -71t-65 -29t-65 29t-23 71z M782 1370q0 43 23 73t65 30t65.5 -30t23.5 -73q0 -42 -23.5 -71t-65.5 -29t-65 29t-23 71z" />
<glyph unicode="&#x152;" horiz-adv-x="1942" d="M109 539q0 185 68.5 348t194 282t288 184.5t327.5 65.5h1010l-80 -332h-62q-2 87 -16 135.5t-40 80.5t-64 40.5t-226 8.5h-209l-133 -580h170q87 0 133.5 20t82.5 73.5t65 131.5h63l-122 -534h-62l2 76q0 78 -10 98q-18 35 -59 48t-111 13h-170l-100 -436 q-13 -57 -13 -96q0 -52 43 -72t176 -20q284 0 357 57q83 65 192 275h68l-121 -406h-1065q-267 0 -422 144t-155 395zM266 518q0 -215 121.5 -329.5t349.5 -114.5q90 0 127 4l287 1253q-76 10 -158 10q-204 0 -370 -106t-261.5 -297t-95.5 -420z" />
<glyph unicode="&#x153;" horiz-adv-x="1581" d="M68 350q0 179 75 334t197 238.5t266 83.5q116 0 193 -59.5t106 -162.5q72 108 176.5 165t229.5 57q110 0 169.5 -53t59.5 -144q0 -182 -179.5 -273t-467.5 -130q0 -340 229 -340q170 0 318 204l49 -34q-80 -119 -191.5 -191t-222.5 -72t-185.5 50t-107.5 149 q-74 -97 -174.5 -149t-218.5 -52q-142 0 -231.5 103.5t-89.5 275.5zM195 360q0 -162 57 -241.5t164 -79.5q113 0 202 77t137 212.5t48 294.5q0 156 -56.5 235.5t-162.5 79.5q-111 0 -198 -71t-139 -210.5t-52 -296.5zM899 469q152 21 233 48t153.5 73t106 102.5t33.5 124.5 q0 57 -31 90t-89 33q-92 0 -178 -62.5t-147.5 -173t-80.5 -235.5z" />
<glyph unicode="&#x178;" horiz-adv-x="1180" d="M154 1358l16 61h473l-14 -61l-54 -3q-116 -6 -116 -50q0 -55 176 -621q67 82 136 166t130.5 159.5t111 137.5t77.5 100q16 23 16 45q0 55 -116 62l-60 4l16 61h486l-17 -61q-63 -9 -101 -25.5t-80 -57t-167 -183.5t-237 -283t-135.5 -176t-36 -73t-80.5 -347 q-11 -41 -11 -70q0 -30 40.5 -50t166.5 -32l-12 -61h-606l12 61l40 3q108 6 144 18q57 22 74 94l72 307q14 63 14 82q0 57 -58 249.5t-122 377.5q-31 87 -56.5 114.5t-53.5 37.5t-68 14zM555 1745q0 43 23 72.5t65 29.5t65 -29.5t23 -72.5q0 -42 -23 -71t-65 -29t-65 29 t-23 71zM963 1745q0 43 23 72.5t65 29.5t65 -29.5t23 -72.5q0 -42 -23 -71t-65 -29t-65 29t-23 71z" />
<glyph unicode="&#x2c6;" horiz-adv-x="1024" d="M377 1169l303 334q31 35 72 35q43 0 63 -43l162 -338l-47 -31l-197 265l-315 -265z" />
<glyph unicode="&#x2dc;" horiz-adv-x="1024" d="M348 1240q41 88 72.5 128.5t70 63t84.5 22.5q47 0 83.5 -15.5t67.5 -34.5t59 -34.5t59 -15.5q52 0 83.5 26.5t69.5 104.5l56 -25q-36 -102 -97 -157.5t-137 -54.5q-50 -1 -86.5 14.5t-67 34t-60 34t-64.5 16.5q-40 -1 -68.5 -27t-71.5 -102z" />
<glyph unicode="&#x2000;" horiz-adv-x="934" />
<glyph unicode="&#x2001;" horiz-adv-x="1868" />
<glyph unicode="&#x2002;" horiz-adv-x="934" />
<glyph unicode="&#x2003;" horiz-adv-x="1868" />
<glyph unicode="&#x2004;" horiz-adv-x="622" />
<glyph unicode="&#x2005;" horiz-adv-x="467" />
<glyph unicode="&#x2006;" horiz-adv-x="311" />
<glyph unicode="&#x2007;" horiz-adv-x="311" />
<glyph unicode="&#x2008;" horiz-adv-x="233" />
<glyph unicode="&#x2009;" horiz-adv-x="373" />
<glyph unicode="&#x200a;" horiz-adv-x="103" />
<glyph unicode="&#x2010;" horiz-adv-x="762" d="M88 487l27 117h590l-27 -117h-590z" />
<glyph unicode="&#x2011;" horiz-adv-x="762" d="M88 487l27 117h590l-27 -117h-590z" />
<glyph unicode="&#x2012;" horiz-adv-x="762" d="M88 487l27 117h590l-27 -117h-590z" />
<glyph unicode="&#x2013;" horiz-adv-x="1251" d="M88 504l23 100h1052l-24 -100h-1051z" />
<glyph unicode="&#x2014;" horiz-adv-x="1679" d="M88 504l23 100h1480l-24 -100h-1479z" />
<glyph unicode="&#x2018;" horiz-adv-x="424" d="M262 1186q0 80 30.5 139t81 104t154.5 95l29 -51q-86 -47 -119 -74t-55.5 -60.5t-34.5 -81.5h27q44 0 70 -25.5t26 -62.5q0 -46 -28.5 -74t-69.5 -28q-53 0 -82 31.5t-29 87.5z" />
<glyph unicode="&#x2019;" horiz-adv-x="424" d="M225 1124l68 38q114 65 141 177h-26q-42 0 -69.5 25t-27.5 63q0 47 28 75t71 28q52 0 81 -31.5t29 -87.5q0 -79 -30 -138t-79 -103t-157 -97z" />
<glyph unicode="&#x201a;" horiz-adv-x="424" d="M-54 -211l68 38q114 65 141 177h-26q-42 0 -69.5 25t-27.5 63q0 47 28 75t71 28q52 0 81 -31.5t29 -87.5q0 -79 -30 -138t-79 -103t-157 -97z" />
<glyph unicode="&#x201c;" horiz-adv-x="731" d="M260 1186q0 80 30.5 139t81 104t154.5 95l29 -51q-86 -47 -119 -74t-55.5 -60.5t-34.5 -81.5h27q44 0 70 -25.5t26 -62.5q0 -46 -28.5 -74t-69.5 -28q-53 0 -82 31.5t-29 87.5zM569 1186q0 80 31 139.5t82 104.5t154 94l28 -51q-86 -47 -119 -74t-55.5 -60.5t-34.5 -81.5 h27q44 0 70 -25.5t26 -62.5q0 -46 -28.5 -74t-69.5 -28q-53 0 -82 31.5t-29 87.5z" />
<glyph unicode="&#x201d;" horiz-adv-x="731" d="M225 1124l68 38q114 65 141 177h-26q-42 0 -69.5 25t-27.5 63q0 47 28 75t71 28q52 0 81 -31.5t29 -87.5q0 -79 -30 -138t-79 -103t-157 -97zM535 1124l67 38q114 65 141 177h-26q-43 0 -69.5 25.5t-26.5 62.5q0 47 27.5 75t70.5 28q52 0 81 -31.5t29 -87.5 q0 -79 -30.5 -139t-81.5 -105t-154 -94z" />
<glyph unicode="&#x201e;" horiz-adv-x="731" d="M-56 -211l68 38q114 65 141 177h-26q-42 0 -69.5 25t-27.5 63q0 47 28 75t71 28q52 0 81 -31.5t29 -87.5q0 -79 -30 -138t-79 -103t-157 -97zM254 -211l67 38q114 65 141 177h-26q-43 0 -69.5 25.5t-26.5 62.5q0 47 27.5 75t70.5 28q52 0 81 -31.5t29 -87.5 q0 -79 -30.5 -139t-81.5 -105t-154 -94z" />
<glyph unicode="&#x2022;" horiz-adv-x="760" d="M162 594q0 97 69.5 166t167.5 69q99 0 168.5 -68t69.5 -167q0 -98 -68.5 -167t-169.5 -69q-99 0 -168 69.5t-69 166.5z" />
<glyph unicode="&#x2026;" horiz-adv-x="1495" d="M137 84q0 41 29 71.5t70 30.5q42 0 72 -30.5t30 -71.5q0 -42 -29.5 -71t-72.5 -29q-42 0 -70.5 29.5t-28.5 70.5zM641 84q0 41 29 71.5t71 30.5q43 0 72 -30.5t29 -71.5t-29 -70.5t-72 -29.5t-71.5 29.5t-28.5 70.5zM1145 84q0 42 30.5 72t69.5 30q43 0 73 -31t30 -71 q0 -41 -30 -70.5t-73 -29.5q-41 0 -70.5 28.5t-29.5 71.5z" />
<glyph unicode="&#x202f;" horiz-adv-x="373" />
<glyph unicode="&#x2039;" horiz-adv-x="848" d="M197 514q0 16 10.5 27t464.5 368l41 -45l-353 -348l179 -354l-54 -29l-278 356q-10 10 -10 25z" />
<glyph unicode="&#x203a;" horiz-adv-x="848" d="M135 178l352 348l-178 355l53 28l254 -325q16 -20 25.5 -30t9.5 -26q0 -15 -10.5 -26.5t-32.5 -28.5l-432 -340z" />
<glyph unicode="&#x205f;" horiz-adv-x="467" />
<glyph unicode="&#x20ac;" horiz-adv-x="1241" d="M31 535l55 88h86q13 103 39 182h-119l55 88h95q98 249 284 402t408 153q181 0 303 -102l49 73h66l-107 -499h-71v84q0 193 -61 280.5t-179 87.5q-346 0 -543 -479h465l-53 -88h-438q-30 -80 -41 -182h368l-53 -88h-324q-2 -35 -2 -46q0 -197 88.5 -308t253.5 -111 q246 0 453 315l55 -39q-137 -209 -268 -293t-295 -84q-205 0 -322.5 141t-117.5 379q0 29 2 46h-131z" />
<glyph unicode="&#x2122;" horiz-adv-x="1925" d="M223 1223v196h680v-196h-41q-37 129 -88 139l-100 4h-53v-530q0 -27 17 -36.5t46.5 -13.5t50.5 -4v-49h-344v49q50 0 84.5 9.5t34.5 37.5v537h-59q-72 0 -96.5 -4t-46 -33t-44.5 -106h-41zM1030 733v47q39 0 71.5 12.5t42 39.5t9.5 92v354q0 39 -23.5 63t-97.5 29v49h250 l231 -483l193 397q14 25 17.5 48.5t7.5 37.5h241v-49q-67 -7 -85.5 -15t-18.5 -32v-492q0 -30 35 -39.5t69 -9.5v-49h-332v49q33 0 61.5 4t42 12.5t13.5 32.5v455h-10l-256 -530h-18l-248 540h-15v-366q0 -42 4.5 -67.5t15 -41.5t44 -27.5t63.5 -11.5v-49h-307z" />
<glyph unicode="&#x25fc;" horiz-adv-x="995" d="M0 0v995h995v-995h-995z" />
</font>
</defs>
</svg>
